<svg width="24" height="24" viewBox="0 0 24 24" fill="none" xmlns="http://www.w3.org/2000/svg">
<path d="M10.938 2.56801C11.565 2.08801 12.4365 2.08801 13.0635 2.56801L20.5065 8.25751C21.4545 8.98201 20.946 10.494 19.755 10.5H4.245C3.0555 10.494 2.5455 8.98201 3.495 8.25751L10.938 2.56801ZM12 7.87501C12.2984 7.87501 12.5845 7.75648 12.7955 7.5455C13.0065 7.33452 13.125 7.04838 13.125 6.75001C13.125 6.45164 13.0065 6.16549 12.7955 5.95451C12.5845 5.74353 12.2984 5.62501 12 5.62501C11.7016 5.62501 11.4155 5.74353 11.2045 5.95451C10.9935 6.16549 10.875 6.45164 10.875 6.75001C10.875 7.04838 10.9935 7.33452 11.2045 7.5455C11.4155 7.75648 11.7016 7.87501 12 7.87501ZM5.25 12V16.5H7.5V12H5.25ZM9 12V16.5H11.25V12H9ZM12.75 12V16.5H15V12H12.75ZM16.5 12V16.5H18.75V12H16.5ZM3 19.875C3 18.84 3.84 18 4.875 18H19.125C20.16 18 21 18.84 21 19.875V20.25C21 20.4489 20.921 20.6397 20.7803 20.7803C20.6397 20.921 20.4489 21 20.25 21H3.75C3.55109 21 3.36032 20.921 3.21967 20.7803C3.07902 20.6397 3 20.4489 3 20.25V19.875Z" fill="#41B696"/>
</svg>
