<svg width="269" height="229" viewBox="0 0 269 229" fill="none" xmlns="http://www.w3.org/2000/svg">
<path d="M15.2982 79.3759C16.7843 82.2896 17.3772 85.5772 17.0027 88.8265C16.6524 91.5992 15.6893 94.2844 16.0395 97.1096C16.5882 101.569 19.717 105.124 22.2445 108.632C23.7133 110.514 24.8937 112.603 25.7469 114.832C26.6692 117.575 26.4474 120.43 25.9337 123.232C24.9647 128.555 23.5988 133.558 26.5817 138.502C28.2278 141.222 30.4518 143.528 31.9987 146.312C33.6664 149.385 34.7099 152.758 35.0691 156.236C35.1041 156.551 35.7112 156.656 35.682 156.3C35.4764 153.381 34.755 150.521 33.5514 147.853C32.3314 145.156 30.5569 142.892 28.8057 140.533C27.0545 138.175 25.5309 135.572 25.3733 132.495C25.2274 129.623 25.9571 126.792 26.5408 124.002C27.0428 121.439 27.4164 118.795 26.8735 116.209C26.3554 114.048 25.4367 112.002 24.165 110.179C21.6083 106.315 17.995 102.783 16.9326 98.1487C16.1562 94.7514 17.5163 91.535 17.7382 88.1727C17.9745 85.0576 17.2295 81.9467 15.6075 79.2767C15.485 79.0782 15.1814 79.1249 15.304 79.3759H15.2982Z" fill="#37474F"/>
<path d="M14.5273 84.3604C14.3814 83.4323 15.9166 80.572 16.2785 80.5195C16.6404 80.4669 18.771 82.6909 18.9286 83.6833C18.9394 83.8805 18.8982 84.077 18.809 84.2532C18.7199 84.4294 18.586 84.5791 18.4208 84.6873C17.9772 85.0078 17.4637 85.2182 16.9228 85.3015C16.3819 85.3847 15.829 85.3382 15.3095 85.166C15.1179 85.1149 14.9436 85.0131 14.8049 84.8714C14.6662 84.7296 14.5683 84.5531 14.5215 84.3604H14.5273Z" fill="#41B696"/>
<path opacity="0.1" d="M14.5273 84.3604C14.3814 83.4323 15.9166 80.572 16.2785 80.5195C16.6404 80.4669 18.771 82.6909 18.9286 83.6833C18.9394 83.8805 18.8982 84.077 18.809 84.2532C18.7199 84.4294 18.586 84.5791 18.4208 84.6873C17.9772 85.0078 17.4637 85.2182 16.9228 85.3015C16.3819 85.3847 15.829 85.3382 15.3095 85.166C15.1179 85.1149 14.9436 85.0131 14.8049 84.8714C14.6662 84.7296 14.5683 84.5531 14.5215 84.3604H14.5273Z" fill="black"/>
<path d="M0.798099 65.7571C1.87216 72.8903 8.87692 81.0392 16.4654 81.6171C23.511 78.4299 27.7372 68.921 26.6398 61.7703C25.5424 54.6196 19.9269 48.683 11.6088 49.9614C3.29063 51.2398 -0.299312 58.624 0.798099 65.7571Z" fill="#41B696"/>
<path opacity="0.05" d="M26.6457 65.6053C26.6457 65.6053 25.8051 72.7443 17.3877 74.5889C9.30889 76.3751 1.28844 68.4305 0.628829 62.459C0.571889 63.5612 0.628614 64.6664 0.79811 65.7571C1.87217 72.8902 8.87693 81.0391 16.4654 81.617C22.3027 78.9785 26.202 71.9971 26.7449 65.6228L26.6457 65.6053Z" fill="black"/>
<path d="M252.356 107.634C251.038 109.473 250.146 111.583 249.746 113.81C249.361 116.022 249.746 118.229 249.857 120.447C250.032 123.366 249.402 125.811 247.464 128.035C245.929 129.787 244.072 131.246 242.683 133.137C239.893 136.937 239.263 141.187 239.835 145.781C240.483 150.982 241.691 155.874 239.187 160.812C237.844 163.462 236.07 165.879 235.13 168.727C234.29 171.5 233.931 174.396 234.067 177.291C234.067 177.612 234.68 177.711 234.686 177.355C234.638 174.594 234.994 171.841 235.743 169.183C236.507 166.743 237.885 164.6 239.134 162.388C240.4 160.306 241.197 157.974 241.469 155.552C241.583 153.375 241.436 151.192 241.031 149.05C240.646 146.557 240.179 144.03 240.302 141.502C240.454 138.993 241.248 136.565 242.607 134.451C245.001 130.651 249.647 128.316 250.447 123.593C250.832 121.305 250.342 118.982 250.231 116.694C250.079 113.518 251.124 110.623 252.659 107.891C252.758 107.722 252.472 107.447 252.344 107.628L252.356 107.634Z" fill="#37474F"/>
<path d="M253.121 112.852C253.319 111.93 251.954 108.982 251.609 108.9C251.265 108.819 248.982 110.914 248.766 111.895C248.742 112.09 248.77 112.289 248.847 112.47C248.923 112.652 249.047 112.809 249.204 112.928C249.628 113.273 250.128 113.514 250.662 113.632C251.196 113.75 251.75 113.74 252.28 113.605C252.474 113.564 252.654 113.473 252.801 113.341C252.949 113.209 253.059 113.04 253.121 112.852Z" fill="#E4B533"/>
<path opacity="0.1" d="M253.121 112.852C253.319 111.93 251.954 108.982 251.609 108.9C251.265 108.819 248.982 110.914 248.766 111.895C248.742 112.09 248.77 112.289 248.847 112.47C248.923 112.652 249.047 112.809 249.204 112.928C249.628 113.273 250.128 113.514 250.662 113.632C251.196 113.75 251.75 113.74 252.28 113.605C252.474 113.564 252.654 113.473 252.801 113.341C252.949 113.209 253.059 113.04 253.121 112.852Z" fill="black"/>
<path d="M268.007 95.1945C266.46 102.24 258.971 109.928 251.371 110.021C244.541 106.385 240.933 96.6305 242.486 89.5907C244.039 82.5509 250.022 76.9588 258.247 78.7684C266.472 80.5779 269.56 88.1139 268.007 95.1945Z" fill="#E4B533"/>
<path opacity="0.05" d="M242.224 93.3562C242.224 93.3562 242.639 100.536 250.887 102.918C258.837 105.212 267.348 97.7984 268.399 91.8794C268.38 92.985 268.251 94.0859 268.013 95.1658C266.467 102.211 258.977 109.899 251.377 109.993C245.715 106.98 242.277 99.7656 242.143 93.3679L242.224 93.3562Z" fill="black"/>
<path d="M165.504 6.22866C162.778 5.96014 159.083 10.5132 161.756 12.7022C163.239 13.9164 166.467 13.391 166.426 11.1203C166.419 11.0573 166.392 10.9982 166.349 10.9519C166.306 10.9056 166.249 10.8745 166.187 10.8635C164.044 10.3731 161.92 11.2954 162.282 13.7821C162.476 14.8541 163.028 15.8285 163.847 16.5463C164.667 17.2641 165.706 17.6828 166.794 17.734C166.922 17.734 166.876 17.5122 166.794 17.4888C164.926 17.0977 163.163 15.9361 162.795 13.9397C162.712 13.5864 162.705 13.2195 162.775 12.8633C162.844 12.507 162.988 12.1696 163.198 11.8733C163.448 11.5732 163.778 11.3505 164.149 11.2312C164.471 11.132 165.62 10.951 165.901 11.2312C166.403 11.7507 165.037 12.6322 164.628 12.7723C164.225 12.9171 163.794 12.9712 163.368 12.9308C162.941 12.8905 162.528 12.7566 162.159 12.5388C161.027 11.7449 161.307 10.2506 161.855 9.19401C162.597 7.76387 163.893 6.60225 165.562 6.54388C165.714 6.54388 165.632 6.25785 165.515 6.24617L165.504 6.22866Z" fill="#BA68C8"/>
<path d="M166.408 95.9127C167.266 93.9806 167.172 91.9784 169.671 91.3421C170.768 91.0619 173.366 90.8051 174.189 91.7799C174.339 92.0153 174.4 92.2967 174.36 92.573C174.32 92.8492 174.183 93.1022 173.973 93.286C173.325 93.8697 172.841 93.1692 172.671 92.5505C172.541 91.9791 172.591 91.3815 172.815 90.8399C173.039 90.2983 173.425 89.8395 173.92 89.5267C174.969 88.8363 176.238 88.5636 177.477 88.7625C178.716 88.9613 179.836 89.6171 180.616 90.6008C180.709 90.7175 180.808 90.6008 180.768 90.4724C178.853 86.0652 169.677 89.1298 172.595 93.356C173.488 94.6344 175.065 93.5078 174.767 92.1535C174.44 90.6533 171.883 90.7292 170.751 90.8051C169.603 90.8058 168.497 91.2322 167.645 92.0017C166.647 92.9824 166.513 94.5351 166.303 95.8544C166.303 95.9127 166.355 96.0003 166.396 95.9127H166.408Z" fill="#BA68C8"/>
<path d="M231.861 1.14414C233.654 0.618787 236.117 0.764719 237.617 1.97304C238.785 2.90701 239.438 4.93255 237.728 5.62719C237.057 5.8957 234.844 5.8957 234.582 4.98508C234.395 4.34882 235.078 3.9694 235.627 3.88767C237.232 3.63667 238.738 5.32948 238.697 6.84134C238.644 9.11205 236 9.86506 234.132 9.88258C234.01 9.88258 234.039 10.1161 234.132 10.1219C237.314 10.4313 240.863 7.48345 238.032 4.52978C237.273 3.7359 236.082 3.16968 234.984 3.60748C234.366 3.85849 233.875 4.41887 234.185 5.09016C234.681 6.17006 236.677 6.35685 237.646 6.0825C237.903 6.01415 238.143 5.89384 238.352 5.72901C238.56 5.56417 238.733 5.35831 238.859 5.12415C238.985 4.88999 239.061 4.63251 239.083 4.36763C239.106 4.10274 239.074 3.83608 238.989 3.58413C238.207 0.712184 234.185 0.0817556 231.803 0.974862C231.733 0.974862 231.762 1.16749 231.844 1.14414H231.861Z" fill="#41B696"/>
<path d="M255.346 121.644C257.138 121.118 259.601 121.264 261.101 122.473C262.269 123.407 262.922 125.432 261.212 126.127C260.541 126.395 258.328 126.395 258.066 125.479C257.879 124.848 258.562 124.469 259.105 124.381C260.716 124.136 262.216 125.829 262.181 127.341C262.128 129.612 259.484 130.365 257.616 130.382C257.494 130.382 257.523 130.616 257.616 130.621C260.798 130.931 264.347 127.983 261.516 125.029C260.757 124.235 259.566 123.669 258.469 124.107C257.85 124.352 257.359 124.918 257.669 125.59C258.165 126.67 260.161 126.856 261.13 126.576C261.387 126.509 261.628 126.39 261.837 126.226C262.046 126.062 262.219 125.856 262.345 125.623C262.471 125.389 262.547 125.131 262.569 124.866C262.591 124.602 262.559 124.335 262.473 124.084C261.691 121.206 257.669 120.581 255.287 121.474C255.217 121.474 255.24 121.667 255.328 121.644H255.346Z" fill="#E4B533"/>
<path d="M242.211 34.3642C240.074 35.0005 238.089 38.7597 240.074 40.4701C241.761 41.9235 245.17 41.5967 244.604 38.8239C244.599 38.7923 244.585 38.7627 244.564 38.7381C244.544 38.7135 244.517 38.6948 244.487 38.6838C242.246 38.1468 241.504 40.7619 241.977 42.4898C242.707 45.1749 245.415 45.1399 247.371 43.7389C247.435 43.6922 247.406 43.5055 247.312 43.5521C245.713 44.3519 243.471 45.064 242.497 43.021C241.977 41.9294 241.96 40.1023 242.964 39.2792C243.225 39.0355 243.57 38.9018 243.927 38.9057C244.674 38.9932 244.546 39.7988 244.125 40.3125C243.454 41.1297 242.106 41.0421 241.207 40.7269C238.13 39.6353 240.243 35.6485 242.251 34.5277C242.31 34.4927 242.298 34.3409 242.211 34.3642Z" fill="#41B696"/>
<path d="M194.701 24.9724C192.179 24.6513 186.756 26.7761 188.169 30.2259C188.922 32.0647 192.284 33.2438 193.388 31.1365C193.411 31.0792 193.412 31.0148 193.389 30.9571C193.366 30.8993 193.322 30.8528 193.265 30.8272C188.012 27.8502 182.478 36.4485 188.052 39.5831C188.227 39.6824 188.222 39.3846 188.122 39.3088C187.641 38.9795 187.231 38.5575 186.915 38.0677C186.599 37.5778 186.384 37.0299 186.282 36.4559C186.181 35.8819 186.194 35.2934 186.323 34.7248C186.452 34.1563 186.692 33.619 187.031 33.1446C187.599 32.2378 188.407 31.5064 189.366 31.0315C190.084 30.6929 191.887 30.2143 192.559 30.9147C192.862 31.2416 192.856 30.833 192.699 31.2124C192.549 31.4378 192.32 31.5983 192.057 31.6619C191.484 31.8439 190.865 31.8233 190.306 31.6035C189.138 31.1949 188.222 30.1209 188.554 28.8308C189.167 26.2449 192.46 25.3284 194.765 25.2876C194.923 25.2876 194.824 24.9899 194.701 24.9724Z" fill="#41B696"/>
<path d="M206.176 1.69873C206.176 1.69873 206.024 4.52398 208.12 6.09421L210.315 5.42292C210.315 5.42292 208.85 4.72245 208.12 1.69873H206.176Z" fill="#455A64"/>
<path d="M169.204 70.0942C169.204 70.0942 169.046 72.9195 171.142 74.4897L173.343 73.8184C173.343 73.8184 171.872 73.118 171.142 70.0942H169.204Z" fill="#455A64"/>
<path d="M187.147 101.931C187.147 101.931 186.99 104.751 189.091 106.321L191.286 105.655C191.286 105.655 189.821 104.949 189.091 101.931H187.147Z" fill="#37474F"/>
<path d="M255.946 15.8542C255.946 15.8542 254.662 18.376 252.064 18.6853L250.494 17.0042C250.494 17.0042 252.117 17.1326 254.265 14.8853L255.946 15.8542Z" fill="#455A64"/>
<path d="M240.891 106.017C240.891 106.017 239.613 108.539 237.01 108.843L235.439 107.167C235.439 107.167 237.068 107.29 239.21 105.042L240.891 106.017Z" fill="#455A64"/>
<path d="M204.964 53.0554C204.964 53.0554 203.685 55.5771 201.082 55.8806L199.512 54.2053C199.512 54.2053 201.14 54.3279 203.283 52.0806L204.964 53.0554Z" fill="#BA68C8"/>
<path d="M181.608 21.9368C181.608 21.9368 180.33 24.4585 177.732 24.7679L176.162 23.0867C176.162 23.0867 177.785 23.2151 179.933 20.9678L181.608 21.9368Z" fill="#455A64"/>
<path d="M230.11 25.7309C230.11 25.7309 227.302 26.0812 225.592 24.0907L226.111 21.855C226.111 21.855 226.911 23.2734 229.976 23.793L230.11 25.7309Z" fill="#41B696"/>
<path d="M189.401 11.9492C189.401 11.9492 186.599 12.2995 184.889 10.3148L185.402 8.0791C185.402 8.0791 186.208 9.49173 189.272 10.0171L189.401 11.9492Z" fill="#41B696"/>
<path d="M142.196 5.81984C142.196 5.81984 139.394 6.17007 137.684 4.18539L138.197 1.94971C138.197 1.94971 139.003 3.36233 142.062 3.88769L142.196 5.81984Z" fill="#E4B533"/>
<path d="M175.782 43.4819C175.782 43.4819 172.98 43.8263 171.27 41.8416L171.783 39.606C171.783 39.606 172.589 41.0244 175.653 41.5439L175.782 43.4819Z" fill="#BA68C8"/>
<path d="M259.774 64.3852C259.774 64.3852 256.966 64.7296 255.262 62.745L255.775 60.5093C255.775 60.5093 256.581 61.9277 259.64 62.4473L259.774 64.3852Z" fill="#BA68C8"/>
<path d="M210.888 36.0917C210.888 36.0917 209.609 38.6134 207.006 38.9228L205.436 37.2417C205.436 37.2417 207.356 37.5394 209.522 35.292L210.888 36.0917Z" fill="#455A64"/>
<path d="M213.714 39.8164C213.714 39.8164 213.212 42.6008 210.795 43.6399L208.811 42.4724C210.215 41.8388 211.382 40.776 212.144 39.437L213.714 39.8164Z" fill="#37474F"/>
<path d="M115.052 4.04508C117.784 3.77657 121.473 8.32382 118.799 10.5128C117.323 11.7328 114.089 11.2016 114.13 8.9309C114.137 8.86897 114.165 8.81117 114.208 8.76599C114.251 8.72082 114.307 8.69064 114.369 8.6799C116.517 8.18956 118.636 9.10602 118.274 11.5985C118.081 12.6694 117.53 13.643 116.711 14.3599C115.892 15.0767 114.855 15.4944 113.768 15.5446C113.633 15.5446 113.68 15.3227 113.768 15.3052C115.636 14.9083 117.398 13.7467 117.76 11.7503C117.845 11.398 117.853 11.0317 117.783 10.6762C117.714 10.3207 117.568 9.98429 117.358 9.68975C117.105 9.37933 116.766 9.15162 116.383 9.03597C116.068 8.93674 114.912 8.75578 114.661 9.03597C114.153 9.56133 115.525 10.4369 115.933 10.577C116.335 10.7238 116.765 10.7789 117.191 10.7385C117.618 10.6981 118.029 10.5632 118.397 10.3435C119.529 9.55549 119.249 8.06114 118.7 6.99875C117.965 5.57445 116.663 4.40699 114.994 4.35446C114.848 4.35446 114.923 4.06843 115.04 4.05676L115.052 4.04508Z" fill="#E4B533"/>
<path d="M110.672 99.7301C109.814 97.798 109.901 95.7958 107.409 95.1537C106.311 94.8735 103.714 94.6167 102.885 95.5973C102.737 95.8322 102.677 96.1123 102.716 96.3872C102.756 96.6622 102.892 96.914 103.101 97.0975C103.755 97.6812 104.268 96.9808 104.408 96.3678C104.539 95.7957 104.489 95.1971 104.266 94.6545C104.042 94.1119 103.655 93.652 103.159 93.3383C102.108 92.64 100.832 92.3633 99.5858 92.5635C98.3397 92.7636 97.2146 93.4258 96.4347 94.4182C96.3471 94.5291 96.2479 94.4182 96.2888 94.2898C98.2034 89.8826 107.38 92.9472 104.461 97.1734C103.568 98.4518 101.986 97.3193 102.284 95.9709C102.616 94.4707 105.202 94.5466 106.3 94.6166C107.449 94.6192 108.556 95.0452 109.411 95.8133C110.409 96.7998 110.543 98.3525 110.754 99.6659C110.754 99.7301 110.701 99.8118 110.66 99.7301H110.672Z" fill="#BA68C8"/>
<path d="M38.9398 1.14414C37.1477 0.618787 34.6844 0.764719 33.1784 1.97304C32.0109 2.90701 31.363 4.93255 33.0733 5.62719C33.7446 5.8957 35.9569 5.8957 36.2196 4.98508C36.4064 4.34882 35.7234 3.9694 35.1747 3.88767C33.5695 3.63667 32.0634 5.32948 32.0985 6.84134C32.1568 9.11205 34.8011 9.86506 36.6691 9.88258C36.7916 9.88258 36.7625 10.1161 36.6691 10.1219C33.4877 10.4313 29.9387 7.48345 32.7639 4.52978C33.5286 3.7359 34.7194 3.16968 35.8168 3.60748C36.4356 3.85849 36.9259 4.41887 36.6165 5.09016C36.1204 6.17006 34.124 6.35685 33.155 6.0825C32.8981 6.01415 32.658 5.89384 32.4494 5.72901C32.2409 5.56417 32.0683 5.35831 31.9425 5.12415C31.8167 4.88999 31.7402 4.63251 31.7178 4.36763C31.6955 4.10274 31.7277 3.83608 31.8124 3.58413C32.5946 0.712184 36.6107 0.0817556 38.9981 0.974862C39.0682 0.974862 39.039 1.16749 38.9573 1.14414H38.9398Z" fill="#BA68C8"/>
<path d="M18.0943 119.484C16.3022 118.958 13.8389 119.104 12.3329 120.312C11.1654 121.246 10.5116 123.272 12.2278 123.967C12.8991 124.235 15.1056 124.235 15.3741 123.324C15.555 122.688 14.8721 122.309 14.3292 122.227C12.7181 121.976 11.2179 123.669 11.253 125.181C11.3055 127.451 13.9498 128.204 15.8177 128.222C15.9461 128.222 15.9111 128.455 15.8177 128.467C12.6364 128.771 9.08732 125.823 11.9126 122.869C12.6773 122.075 13.8622 121.509 14.9596 121.947C15.5842 122.198 16.0746 122.758 15.7652 123.43C15.269 124.509 13.2668 124.696 12.2978 124.422C12.041 124.354 11.8009 124.233 11.5926 124.068C11.3842 123.903 11.212 123.697 11.0866 123.463C10.9613 123.229 10.8854 122.971 10.8638 122.706C10.8422 122.442 10.8753 122.175 10.9611 121.924C11.7374 119.052 15.7593 118.45 18.1468 119.314C18.2168 119.314 18.1877 119.507 18.1059 119.484H18.0943Z" fill="#41B696"/>
<path d="M22.6868 35.4443C24.8232 36.0806 26.8079 39.8398 24.8232 41.5501C23.1362 43.0095 19.7273 42.6767 20.2935 39.904C20.2998 39.8728 20.3138 39.8437 20.3342 39.8193C20.3546 39.7948 20.3807 39.7758 20.4102 39.7639C22.6517 39.2327 23.3931 41.8478 22.9203 43.5757C22.1906 46.255 19.4821 46.2258 17.5266 44.819C17.4624 44.7723 17.4916 44.5914 17.585 44.6381C19.1844 45.4378 21.4259 46.1441 22.4007 44.101C22.9203 43.0095 22.9378 41.1824 21.9337 40.3652C21.6732 40.1199 21.3284 39.984 20.9706 39.9857C20.2234 40.0733 20.3518 40.8847 20.7721 41.3925C21.4434 42.2098 22.7918 42.1222 23.6908 41.807C26.767 40.7212 24.6539 36.7285 22.6459 35.6078C22.5875 35.5727 22.5992 35.421 22.6868 35.4443Z" fill="#BA68C8"/>
<path d="M29.4755 83.2518C25.8389 83.5437 26.4927 90.4492 29.4288 91.3831C29.6093 91.4477 29.8008 91.4758 29.9921 91.4658C30.1835 91.4558 30.371 91.4078 30.5438 91.3248C30.7592 91.1664 30.9321 90.9572 31.0472 90.7158C31.1623 90.4745 31.2159 90.2084 31.2034 89.9413C30.8531 88.7739 28.8685 90.2566 28.6408 90.7177C28.2629 91.3254 28.0865 92.0369 28.1368 92.7507C28.1871 93.4645 28.4616 94.1442 28.921 94.6929C30.4153 96.3098 33.2756 96.3624 35.1435 95.4284C35.2369 95.3759 35.2545 95.5568 35.1902 95.6035C33.1764 96.8936 29.8024 96.7068 28.3081 94.6637C27.1406 93.0293 27.9403 88.6922 30.5438 89.0774C32.9721 89.4335 31.2909 92.2004 29.4522 91.8326C27.6134 91.4649 26.948 89.0249 26.7729 87.513C26.551 85.6101 27.1173 83.0417 29.4755 83.0825C29.5514 83.0825 29.5456 83.246 29.4755 83.2518Z" fill="#41B696"/>
<path d="M75.1455 24.9724C77.6672 24.6513 83.0901 26.7761 81.6774 30.2259C80.9244 32.0647 77.5621 33.2438 76.4589 31.1365C76.4352 31.0792 76.4347 31.0148 76.4576 30.9571C76.4805 30.8993 76.5249 30.8528 76.5815 30.8272C81.835 27.8502 87.3688 36.4485 81.7942 39.5831C81.6191 39.6824 81.6249 39.3846 81.7241 39.3088C82.206 38.9794 82.6172 38.5572 82.9337 38.0669C83.2501 37.5765 83.4655 37.0279 83.5672 36.4533C83.6689 35.8786 83.6548 35.2894 83.5257 34.7202C83.3967 34.151 83.1553 33.6134 82.8157 33.1387C82.2478 32.232 81.4395 31.5005 80.4808 31.0256C79.7628 30.6871 77.9591 30.2084 77.2878 30.9089C76.9842 31.2358 76.9901 30.8272 77.1477 31.2066C77.2975 31.432 77.5268 31.5925 77.7898 31.6561C78.3629 31.8381 78.9812 31.8175 79.541 31.5977C80.7084 31.1891 81.6249 30.115 81.2922 28.825C80.6793 26.2391 77.387 25.3226 75.0813 25.2817C74.9237 25.2817 75.0229 24.984 75.1455 24.9665V24.9724Z" fill="#E4B533"/>
<path d="M64.914 6.83543C64.914 6.83543 65.0716 9.66068 62.9702 11.2309L60.7754 10.5538C60.7754 10.5538 62.2405 9.85331 62.9702 6.82959L64.914 6.83543Z" fill="#455A64"/>
<path d="M110.275 76.7549C110.275 76.7549 110.433 79.5801 108.332 81.1504L106.137 80.4849C106.137 80.4849 107.602 79.7786 108.332 76.7549H110.275Z" fill="#455A64"/>
<path d="M101.602 110.523C101.602 110.523 101.753 113.349 99.6577 114.919L97.4629 114.248C97.4629 114.248 98.9281 113.547 99.6577 110.523H101.602Z" fill="#37474F"/>
<path d="M13.9023 15.8542C13.9023 15.8542 15.1865 18.376 17.7841 18.6853L19.3836 17.0042C19.3836 17.0042 17.7608 17.1326 15.6127 14.8853L13.9023 15.8542Z" fill="#455A64"/>
<path d="M41.0566 102.941C41.0566 102.941 42.335 105.462 44.9384 105.772L46.5087 104.091C46.5087 104.091 44.8801 104.219 42.7378 101.972L41.0566 102.941Z" fill="#455A64"/>
<path d="M68.7031 56.3245C68.7031 56.3245 69.9815 58.8462 72.5849 59.1555L74.1493 57.4744C74.1493 57.4744 72.5265 57.6028 70.3843 55.3555L68.7031 56.3245Z" fill="#41B696"/>
<path d="M94.1016 23.3201C94.1016 23.3201 95.3799 25.8418 97.9834 26.1512L99.5478 24.47C99.5478 24.47 97.925 24.5984 95.7827 22.3511L94.1016 23.3201Z" fill="#455A64"/>
<path d="M39.7324 25.7309C39.7324 25.7309 42.5402 26.0812 44.2505 24.0907L43.731 21.855C43.731 21.855 42.9313 23.2734 39.8667 23.793L39.7324 25.7309Z" fill="#BA68C8"/>
<path d="M87.6797 3.87013C87.6797 3.87013 90.4874 4.22037 92.1978 2.23569L91.6841 0C91.6841 0 90.8785 1.41263 87.8139 1.93798L87.6797 3.87013Z" fill="#E4B533"/>
<path d="M94.0488 41.1235C94.0488 41.1235 96.8507 41.4679 98.5611 39.4832L98.0474 37.2476C98.0474 37.2476 97.2418 38.666 94.1772 39.1855L94.0488 41.1235Z" fill="#BA68C8"/>
<path d="M3.03906 96.6304C3.03906 96.6304 5.8468 96.9806 7.55713 94.9959L7.04345 92.7544C7.04345 92.7544 6.2379 94.1729 3.17332 94.6924L3.03906 96.6304Z" fill="#41B696"/>
<path d="M58.9609 36.0917C58.9609 36.0917 60.2393 38.6134 62.8427 38.9228L64.413 37.2417C64.413 37.2417 62.4925 37.5394 60.3269 35.292L58.9609 36.0917Z" fill="#455A64"/>
<path d="M56.1582 39.8164C56.1582 39.8164 56.6602 42.6008 59.0769 43.6399L61.0615 42.4724C59.6573 41.8388 58.4903 40.776 57.7284 39.437L56.1582 39.8164Z" fill="#37474F"/>
<path d="M148.317 25.287C148.317 25.287 147.039 27.8087 144.435 28.1181L142.865 26.4428C142.865 26.4428 144.786 26.7347 146.951 24.4873L148.317 25.287Z" fill="#455A64"/>
<path d="M135.731 22.2632C135.731 22.2632 135.229 25.0476 132.813 26.0925L130.828 24.925C132.234 24.2906 133.401 23.2255 134.161 21.8838L135.731 22.2632Z" fill="#37474F"/>
<path d="M157.504 221.411C154.778 221.68 151.083 217.126 153.756 214.937C155.239 213.723 158.467 214.249 158.426 216.519C158.419 216.582 158.392 216.641 158.349 216.688C158.306 216.734 158.249 216.765 158.187 216.776C156.044 217.267 153.92 216.344 154.282 213.858C154.476 212.786 155.028 211.811 155.847 211.093C156.667 210.376 157.706 209.957 158.794 209.906C158.922 209.906 158.876 210.127 158.794 210.151C156.926 210.542 155.163 211.704 154.795 213.7C154.712 214.053 154.705 214.42 154.775 214.776C154.844 215.133 154.988 215.47 155.198 215.766C155.448 216.066 155.778 216.289 156.149 216.408C156.471 216.508 157.62 216.689 157.901 216.408C158.403 215.889 157.037 215.007 156.628 214.867C156.225 214.723 155.794 214.668 155.368 214.709C154.941 214.749 154.528 214.883 154.159 215.101C153.027 215.895 153.307 217.389 153.855 218.446C154.597 219.876 155.893 221.037 157.562 221.096C157.714 221.096 157.632 221.382 157.515 221.393L157.504 221.411Z" fill="#BA68C8"/>
<path d="M186.701 202.667C184.179 202.988 178.756 200.864 180.169 197.414C180.922 195.575 184.284 194.396 185.388 196.503C185.411 196.56 185.412 196.625 185.389 196.683C185.366 196.74 185.322 196.787 185.265 196.812C180.012 199.789 174.478 191.191 180.052 188.057C180.227 187.957 180.222 188.255 180.122 188.331C179.641 188.66 179.231 189.082 178.915 189.572C178.599 190.062 178.384 190.61 178.282 191.184C178.181 191.758 178.194 192.346 178.323 192.915C178.452 193.483 178.692 194.021 179.031 194.495C179.599 195.402 180.407 196.133 181.366 196.608C182.084 196.947 183.887 197.425 184.559 196.725C184.862 196.398 184.856 196.807 184.699 196.427C184.549 196.202 184.32 196.041 184.057 195.978C183.484 195.796 182.865 195.816 182.306 196.036C181.138 196.445 180.222 197.519 180.554 198.809C181.167 201.395 184.46 202.311 186.765 202.352C186.923 202.352 186.824 202.65 186.701 202.667Z" fill="#41B696"/>
<path d="M198.176 225.941C198.176 225.941 198.024 223.116 200.12 221.545L202.315 222.217C202.315 222.217 200.85 222.917 200.12 225.941H198.176Z" fill="#455A64"/>
<path d="M173.608 205.703C173.608 205.703 172.33 203.181 169.732 202.872L168.162 204.553C168.162 204.553 169.785 204.425 171.933 206.672L173.608 205.703Z" fill="#455A64"/>
<path d="M181.401 215.69C181.401 215.69 178.599 215.34 176.889 217.325L177.402 219.561C177.402 219.561 178.208 218.148 181.272 217.623L181.401 215.69Z" fill="#41B696"/>
<path d="M134.196 221.82C134.196 221.82 131.394 221.47 129.684 223.454L130.197 225.69C130.197 225.69 131.003 224.277 134.062 223.752L134.196 221.82Z" fill="#E4B533"/>
<path d="M167.782 184.158C167.782 184.158 164.98 183.813 163.27 185.798L163.783 188.034C163.783 188.034 164.589 186.615 167.653 186.096L167.782 184.158Z" fill="#BA68C8"/>
<path d="M202.888 191.548C202.888 191.548 201.609 189.026 199.006 188.717L197.436 190.398C197.436 190.398 199.356 190.1 201.522 192.348L202.888 191.548Z" fill="#455A64"/>
<path d="M205.714 187.823C205.714 187.823 205.212 185.039 202.795 184L200.811 185.167C202.215 185.801 203.382 186.864 204.144 188.203L205.714 187.823Z" fill="#37474F"/>
<path d="M107.052 223.595C109.784 223.863 113.473 219.316 110.799 217.127C109.323 215.907 106.089 216.438 106.13 218.709C106.137 218.771 106.165 218.828 106.208 218.874C106.251 218.919 106.307 218.949 106.369 218.96C108.517 219.45 110.636 218.534 110.274 216.041C110.081 214.97 109.53 213.997 108.711 213.28C107.892 212.563 106.855 212.145 105.768 212.095C105.633 212.095 105.68 212.317 105.768 212.334C107.636 212.731 109.398 213.893 109.76 215.889C109.845 216.242 109.853 216.608 109.783 216.963C109.714 217.319 109.568 217.655 109.358 217.95C109.105 218.26 108.766 218.488 108.383 218.604C108.068 218.703 106.912 218.884 106.661 218.604C106.153 218.078 107.525 217.203 107.933 217.063C108.335 216.916 108.765 216.861 109.191 216.901C109.618 216.942 110.029 217.076 110.397 217.296C111.529 218.084 111.249 219.579 110.7 220.641C109.965 222.065 108.663 223.233 106.994 223.285C106.848 223.285 106.923 223.571 107.04 223.583L107.052 223.595Z" fill="#E4B533"/>
<path d="M67.1455 202.667C69.6672 202.988 75.0901 200.864 73.6774 197.414C72.9244 195.575 69.5621 194.396 68.4589 196.503C68.4352 196.56 68.4347 196.625 68.4576 196.683C68.4805 196.74 68.5249 196.787 68.5815 196.812C73.835 199.789 79.3688 191.191 73.7942 188.057C73.6191 187.957 73.6249 188.255 73.7241 188.331C74.206 188.66 74.6172 189.082 74.9337 189.573C75.2501 190.063 75.4655 190.612 75.5672 191.186C75.6689 191.761 75.6548 192.35 75.5257 192.919C75.3967 193.489 75.1553 194.026 74.8157 194.501C74.2478 195.408 73.4395 196.139 72.4808 196.614C71.7628 196.953 69.9591 197.431 69.2878 196.731C68.9842 196.404 68.9901 196.812 69.1477 196.433C69.2975 196.208 69.5268 196.047 69.7898 195.984C70.3629 195.802 70.9812 195.822 71.541 196.042C72.7084 196.451 73.6249 197.525 73.2922 198.815C72.6793 201.401 69.387 202.317 67.0813 202.358C66.9237 202.358 67.0229 202.656 67.1455 202.673V202.667Z" fill="#E4B533"/>
<path d="M86.1016 204.32C86.1016 204.32 87.3799 201.798 89.9834 201.488L91.5478 203.17C91.5478 203.17 89.925 203.041 87.7827 205.289L86.1016 204.32Z" fill="#455A64"/>
<path d="M79.6797 223.77C79.6797 223.77 82.4874 223.419 84.1978 225.404L83.6841 227.64C83.6841 227.64 82.8785 226.227 79.8139 225.702L79.6797 223.77Z" fill="#E4B533"/>
<path d="M86.0488 186.516C86.0488 186.516 88.8507 186.172 90.5611 188.156L90.0474 190.392C90.0474 190.392 89.2418 188.974 86.1772 188.454L86.0488 186.516Z" fill="#BA68C8"/>
<path d="M140.317 202.353C140.317 202.353 139.039 199.831 136.435 199.522L134.865 201.197C134.865 201.197 136.786 200.905 138.951 203.152L140.317 202.353Z" fill="#455A64"/>
<path d="M127.731 205.376C127.731 205.376 127.229 202.592 124.813 201.547L122.828 202.715C124.234 203.349 125.401 204.414 126.161 205.756L127.731 205.376Z" fill="#37474F"/>
<path d="M134.002 213C178.186 213 214.002 177.184 214.002 133C214.002 88.8165 178.186 53.0005 134.002 53.0005C89.818 53.0005 54.002 88.8165 54.002 133C54.002 177.184 89.818 213 134.002 213ZM94.002 133L126.002 157L166.002 101" fill="#41B696"/>
<path d="M94.002 133L126.002 157L166.002 101M134.002 213C178.186 213 214.002 177.184 214.002 133C214.002 88.8165 178.186 53.0005 134.002 53.0005C89.818 53.0005 54.002 88.8165 54.002 133C54.002 177.184 89.818 213 134.002 213Z" stroke="#FEFEFE" stroke-width="12"/>
</svg>
