<svg width="143" height="127" viewBox="0 0 143 127" fill="none" xmlns="http://www.w3.org/2000/svg">
<g clip-path="url(#clip0_2377_3225)">
<path d="M71.3578 1.77754L26.7461 29.2309C26.7461 29.2309 26.7461 85.8535 71.3578 116.739C115.97 85.8535 115.97 29.2309 115.97 29.2309L71.3578 1.77754Z" fill="#3F3D56"/>
<path opacity="0.04" d="M71.6239 1.77759L70.8613 2.24688V116.203C71.1146 116.382 71.3677 116.561 71.6239 116.739C116.236 85.8535 116.236 29.2309 116.236 29.2309L71.6239 1.77759Z" fill="#41B696"/>
<path d="M65.6645 59.4336V58.169C65.6869 56.5187 65.9962 54.8814 66.5815 53.3153C68.0703 49.2113 71.2036 45.2939 74.8309 43.4331C77.1385 42.2468 79.2296 42.0993 80.8572 42.8129L77.6833 41.1869C76.9007 40.7279 75.9812 40.4887 75.044 40.5004C74.8949 40.4991 74.7458 40.5051 74.5974 40.5185C74.443 40.5258 74.2893 40.5419 74.1372 40.5667C73.9785 40.5823 73.8212 40.6084 73.6669 40.6449C73.5079 40.675 73.3285 40.7142 73.183 40.7563C72.8446 40.8486 72.5124 40.9582 72.1882 41.0845C72.019 41.1508 71.8499 41.2261 71.6773 41.2983C71.5047 41.3706 71.3389 41.4609 71.1596 41.5482C66.0841 44.1498 62 50.7499 62 56.3022V57.5638C62 63.1071 70.3746 69.1291 70.3746 69.1291L73.7582 70.8333C73.697 70.8009 73.6393 70.7636 73.5857 70.7219C71.0953 68.6564 65.6645 63.7063 65.6645 59.4336ZM75.6633 47.781C75.6946 47.9211 75.7149 48.063 75.7242 48.2056C75.7242 48.2507 75.7242 48.2989 75.7242 48.3531C75.7293 48.4374 75.7293 48.5218 75.7242 48.606C75.7242 51.2015 73.6737 54.3661 71.1393 55.6669C71.0479 55.712 70.9566 55.7572 70.8652 55.7963C70.7739 55.8355 70.6825 55.8746 70.5945 55.9108L70.3306 56.0071H70.3035C70.6994 57.9944 72.5604 58.6899 74.8106 57.5397C77.3382 56.239 79.3887 53.0774 79.3887 50.4759C79.409 48.1875 77.795 47.0885 75.6633 47.7871V47.781Z" fill="#41B696"/>
<path opacity="0.2" d="M65.6645 59.4336V58.169C65.6869 56.5187 65.9962 54.8814 66.5815 53.3153C68.0703 49.2113 71.2036 45.2939 74.8309 43.4331C77.1385 42.2468 79.2296 42.0993 80.8572 42.8129L77.6833 41.1869C76.9007 40.7279 75.9812 40.4887 75.044 40.5004C74.8949 40.4991 74.7458 40.5051 74.5974 40.5185C74.443 40.5258 74.2893 40.5419 74.1372 40.5667C73.9785 40.5823 73.8212 40.6084 73.6669 40.6449C73.5079 40.675 73.3285 40.7142 73.183 40.7563C72.8446 40.8486 72.5124 40.9582 72.1882 41.0845C72.019 41.1508 71.8499 41.2261 71.6773 41.2983C71.5047 41.3706 71.3389 41.4609 71.1596 41.5482C66.0841 44.1498 62 50.7499 62 56.3022V57.5638C62 63.1071 70.3746 69.1291 70.3746 69.1291L73.7582 70.8333C73.697 70.8009 73.6393 70.7636 73.5857 70.7219C71.0953 68.6564 65.6645 63.7063 65.6645 59.4336Z" fill="#2C2C2C"/>
<path opacity="0.5" d="M75.6625 47.7865C75.6938 47.9266 75.7141 48.0685 75.7234 48.2111C75.7234 48.2562 75.7234 48.3044 75.7234 48.3586C75.7286 48.4429 75.7286 48.5273 75.7234 48.6115C75.7234 51.207 73.6729 54.3716 71.1385 55.6724C71.0471 55.7175 70.9558 55.7627 70.8644 55.8018C70.7731 55.841 70.6817 55.8801 70.5937 55.9163L70.3298 56.0126H70.3027C70.6986 57.9999 72.5596 58.6954 74.8098 57.5452C77.3374 56.2444 79.3879 53.0829 79.3879 50.4814C79.4082 48.187 77.7942 47.088 75.6625 47.7865Z" fill="#2C2C2C"/>
<path d="M83.9861 48.7595C83.9861 43.2192 79.8817 40.8315 74.8231 43.433C69.7645 46.0345 65.6602 52.6316 65.6602 58.1869V59.4335C65.6602 63.7031 71.0943 68.6562 73.5915 70.7067C73.7327 70.8233 73.9026 70.9089 74.0876 70.9566C74.2726 71.0043 74.4676 71.0128 74.657 70.9815C74.8463 70.9502 75.0249 70.8799 75.1783 70.7763C75.3317 70.6726 75.4557 70.5385 75.5405 70.3845C77.6992 66.4522 83.9996 54.6099 83.9996 50.0181L83.9861 48.7595ZM74.8231 57.5546C72.2921 58.8554 70.2416 57.8015 70.2416 55.2C70.2416 52.5985 72.2921 49.44 74.8231 48.1392C77.3541 46.8384 79.4046 47.8923 79.4046 50.4938C79.4046 53.0953 77.3541 56.2539 74.8231 57.5546Z" fill="#41B696"/>
<path d="M80.8526 42.8129L77.6787 41.1869C76.8961 40.7279 75.9766 40.4887 75.0394 40.5004C74.8903 40.4991 74.7412 40.5051 74.5928 40.5185C74.4384 40.5258 74.2847 40.5419 74.1326 40.5667C73.9739 40.5823 73.8167 40.6084 73.6623 40.6449C73.5033 40.675 73.3239 40.7142 73.1784 40.7563C72.84 40.8486 72.5078 40.9582 72.1836 41.0845C72.0144 41.1508 71.8453 41.2261 71.6727 41.2983C71.5001 41.3706 71.3343 41.4609 71.155 41.5482C67.7341 43.3067 64.7531 46.8958 63.1797 50.7499L66.8442 52.6318C68.4176 48.7807 71.402 45.1916 74.8263 43.4331C77.1339 42.2468 79.242 42.0993 80.8526 42.8129Z" fill="#41B696"/>
<path opacity="0.3" d="M80.8526 42.8129L77.6787 41.1869C76.8961 40.7279 75.9766 40.4887 75.0394 40.5004C74.8903 40.4991 74.7412 40.5051 74.5928 40.5185C74.4384 40.5258 74.2847 40.5419 74.1326 40.5667C73.9739 40.5823 73.8167 40.6084 73.6623 40.6449C73.5033 40.675 73.3239 40.7142 73.1784 40.7563C72.84 40.8486 72.5078 40.9582 72.1836 41.0845C72.0144 41.1508 71.8453 41.2261 71.6727 41.2983C71.5001 41.3706 71.3343 41.4609 71.155 41.5482C67.7341 43.3067 64.7531 46.8958 63.1797 50.7499L66.8442 52.6318C68.4176 48.7807 71.402 45.1916 74.8263 43.4331C77.1339 42.2468 79.242 42.0993 80.8526 42.8129Z" fill="white"/>
<path d="M74.833 43.4333L74.2916 43.7645C74.1065 43.869 73.928 43.9826 73.757 44.1047C73.4186 44.3546 73.06 44.5805 72.7419 44.8575C72.4238 45.1345 72.0956 45.3814 71.8046 45.6734L71.3546 46.098L70.935 46.5466C68.71 48.9585 67.1078 51.776 66.2419 54.7998C66.1268 55.1762 66.0592 55.5616 65.9678 55.941C65.8764 56.3204 65.8494 56.7118 65.7851 57.0972C65.7208 57.4826 65.7208 57.8741 65.7005 58.2655L65.67 59.4338L65.6328 58.2625C65.6328 57.871 65.6328 57.4766 65.6497 57.0852C65.6667 56.6937 65.7276 56.2993 65.7918 55.9109C65.8561 55.5225 65.9238 55.134 66.0287 54.7516C66.819 51.6691 68.4454 48.8055 70.7658 46.4111C71.9143 45.2135 73.2911 44.2054 74.833 43.4333Z" fill="#41B696"/>
<g opacity="0.5">
<path d="M74.8311 43.433L74.2897 43.7642C74.1045 43.8687 73.926 43.9823 73.755 44.1044C73.4167 44.3544 73.058 44.5802 72.7399 44.8572C72.4219 45.1342 72.0937 45.3811 71.8027 45.6732L71.3526 46.0977L70.9331 46.5464C68.708 48.9582 67.1058 51.7757 66.2399 54.7995C66.1249 55.1759 66.0572 55.5613 65.9658 55.9407C65.8745 56.3201 65.8474 56.7115 65.7831 57.0969C65.7188 57.4824 65.7188 57.8738 65.6985 58.2652L65.6681 59.4335L65.6309 58.2622C65.6309 57.8708 65.6309 57.4763 65.6478 57.0849C65.6647 56.6935 65.7256 56.299 65.7899 55.9106C65.8542 55.5222 65.9219 55.1338 66.0268 54.7514C66.817 51.6688 68.4434 48.8053 70.7639 46.4109C71.9123 45.2132 73.2891 44.2051 74.8311 43.433Z" fill="white"/>
</g>
<path opacity="0.5" d="M27.3407 7.93251C27.2039 7.87295 27.0938 7.76519 27.0314 7.62973C26.9689 7.49428 26.9585 7.34059 27.002 7.19792C27.009 7.17605 27.0135 7.15342 27.0152 7.13051C27.0192 7.06514 27.002 7.00023 26.9662 6.94539C26.9304 6.89056 26.8779 6.8487 26.8165 6.82604C26.755 6.80338 26.6879 6.8011 26.6251 6.81956C26.5623 6.83802 26.5071 6.87622 26.4676 6.92851C26.4541 6.94706 26.4428 6.96715 26.4339 6.98835C26.3743 7.12511 26.2666 7.23518 26.1311 7.29763C25.9957 7.36008 25.842 7.37055 25.6993 7.32703C25.6774 7.31999 25.6548 7.31555 25.6319 7.31381C25.5665 7.30984 25.5016 7.32702 25.4468 7.36281C25.3919 7.3986 25.3501 7.45111 25.3274 7.51255C25.3048 7.57399 25.3025 7.6411 25.3209 7.70393C25.3394 7.76676 25.3776 7.82198 25.4299 7.8614C25.4485 7.87496 25.4685 7.88628 25.4897 7.89513C25.6265 7.95468 25.7366 8.06245 25.799 8.1979C25.8615 8.33336 25.8719 8.48705 25.8284 8.62972C25.8214 8.65159 25.8169 8.67422 25.8152 8.69713C25.8112 8.7625 25.8284 8.82741 25.8642 8.88224C25.9 8.93708 25.9525 8.97893 26.0139 9.0016C26.0754 9.02426 26.1425 9.02653 26.2053 9.00808C26.2682 8.98962 26.3234 8.95142 26.3628 8.89913C26.3763 8.88058 26.3877 8.86049 26.3965 8.83928C26.4561 8.70253 26.5638 8.59245 26.6993 8.53C26.8348 8.46755 26.9884 8.45709 27.1311 8.50061C27.153 8.50765 27.1756 8.51208 27.1985 8.51382C27.2639 8.5178 27.3288 8.50062 27.3836 8.46483C27.4385 8.42903 27.4803 8.37653 27.503 8.31509C27.5257 8.25365 27.5279 8.18654 27.5095 8.12371C27.491 8.06088 27.4528 8.00566 27.4005 7.96624C27.382 7.95268 27.3619 7.94136 27.3407 7.93251Z" fill="#4D8AF0"/>
<path opacity="0.5" d="M3.19028 61.6911C3.05353 61.6316 2.94345 61.5238 2.881 61.3884C2.81855 61.2529 2.80809 61.0992 2.8516 60.9566C2.85865 60.9347 2.86308 60.9121 2.86482 60.8891C2.8688 60.8238 2.85162 60.7589 2.81582 60.704C2.78003 60.6492 2.72752 60.6073 2.66608 60.5847C2.60464 60.562 2.53754 60.5597 2.47471 60.5782C2.41187 60.5967 2.35666 60.6349 2.31724 60.6871C2.30368 60.7057 2.29236 60.7258 2.28351 60.747C2.22395 60.8837 2.11618 60.9938 1.98073 61.0563C1.84527 61.1187 1.69159 61.1292 1.54892 61.0857C1.52704 61.0786 1.50442 61.0742 1.48151 61.0724C1.41614 61.0685 1.35123 61.0856 1.29639 61.1214C1.24155 61.1572 1.1997 61.2097 1.17704 61.2712C1.15437 61.3326 1.1521 61.3997 1.17056 61.4626C1.18901 61.5254 1.22722 61.5806 1.27951 61.62C1.29806 61.6336 1.31815 61.6449 1.33935 61.6538C1.4761 61.7133 1.58618 61.8211 1.64863 61.9565C1.71108 62.092 1.72154 62.2457 1.67803 62.3883C1.67099 62.4102 1.66655 62.4328 1.66481 62.4558C1.66083 62.5211 1.67801 62.586 1.71381 62.6409C1.7496 62.6957 1.80211 62.7376 1.86355 62.7602C1.92499 62.7829 1.99209 62.7852 2.05492 62.7667C2.11776 62.7482 2.17297 62.71 2.2124 62.6578C2.22595 62.6392 2.23728 62.6191 2.24613 62.5979C2.30568 62.4612 2.41345 62.3511 2.5489 62.2886C2.68436 62.2262 2.83805 62.2157 2.98072 62.2592C3.00259 62.2663 3.02521 62.2707 3.04813 62.2725C3.11349 62.2764 3.1784 62.2592 3.23324 62.2235C3.28808 62.1877 3.32993 62.1352 3.35259 62.0737C3.37525 62.0123 3.37753 61.9452 3.35907 61.8823C3.34062 61.8195 3.30241 61.7643 3.25012 61.7249C3.23157 61.7113 3.21148 61.7 3.19028 61.6911Z" fill="#4D8AF0"/>
<path opacity="0.5" d="M123.793 43.0069C124.341 43.0069 124.786 42.5626 124.786 42.0144C124.786 41.4663 124.341 41.022 123.793 41.022C123.245 41.022 122.801 41.4663 122.801 42.0144C122.801 42.5626 123.245 43.0069 123.793 43.0069Z" fill="#F55F44"/>
<path opacity="0.5" d="M20.0804 113.968C20.6285 113.968 21.0728 113.524 21.0728 112.976C21.0728 112.428 20.6285 111.983 20.0804 111.983C19.5322 111.983 19.0879 112.428 19.0879 112.976C19.0879 113.524 19.5322 113.968 20.0804 113.968Z" fill="#F55F44"/>
<path opacity="0.5" d="M140.666 81.2169C141.214 81.2169 141.659 80.7725 141.659 80.2244C141.659 79.6763 141.214 79.2319 140.666 79.2319C140.118 79.2319 139.674 79.6763 139.674 80.2244C139.674 80.7725 140.118 81.2169 140.666 81.2169Z" fill="#F55F44"/>
<path opacity="0.5" d="M116.497 12.7294C116.36 12.6699 116.25 12.5621 116.188 12.4267C116.125 12.2912 116.115 12.1375 116.158 11.9949C116.165 11.973 116.17 11.9504 116.171 11.9274C116.175 11.8621 116.158 11.7972 116.122 11.7423C116.087 11.6875 116.034 11.6456 115.973 11.623C115.911 11.6003 115.844 11.598 115.781 11.6165C115.718 11.635 115.663 11.6732 115.624 11.7254C115.61 11.744 115.599 11.7641 115.59 11.7853C115.531 11.922 115.423 12.0321 115.287 12.0946C115.152 12.157 114.998 12.1675 114.856 12.124C114.834 12.1169 114.811 12.1125 114.788 12.1108C114.723 12.1068 114.658 12.124 114.603 12.1597C114.548 12.1955 114.506 12.248 114.484 12.3095C114.461 12.3709 114.459 12.438 114.477 12.5009C114.496 12.5637 114.534 12.6189 114.586 12.6583C114.605 12.6719 114.625 12.6832 114.646 12.6921C114.783 12.7516 114.893 12.8594 114.955 12.9948C115.018 13.1303 115.028 13.284 114.985 13.4267C114.978 13.4485 114.973 13.4712 114.971 13.4941C114.967 13.5594 114.985 13.6243 115.02 13.6792C115.056 13.734 115.109 13.7759 115.17 13.7985C115.232 13.8212 115.299 13.8235 115.362 13.805C115.424 13.7866 115.48 13.7484 115.519 13.6961C115.533 13.6775 115.544 13.6574 115.553 13.6362C115.612 13.4995 115.72 13.3894 115.856 13.3269C115.991 13.2645 116.145 13.254 116.287 13.2975C116.309 13.3046 116.332 13.309 116.355 13.3108C116.42 13.3147 116.485 13.2976 116.54 13.2618C116.595 13.226 116.637 13.1735 116.659 13.112C116.682 13.0506 116.684 12.9835 116.666 12.9207C116.647 12.8578 116.609 12.8026 116.557 12.7632C116.538 12.7496 116.518 12.7383 116.497 12.7294Z" fill="#4D8AF0"/>
<path opacity="0.5" d="M133.038 116.608C132.901 116.548 132.791 116.44 132.729 116.305C132.666 116.169 132.656 116.016 132.699 115.873C132.706 115.851 132.711 115.828 132.712 115.806C132.716 115.74 132.699 115.675 132.663 115.62C132.628 115.566 132.575 115.524 132.514 115.501C132.452 115.478 132.385 115.476 132.322 115.495C132.26 115.513 132.204 115.551 132.165 115.604C132.151 115.622 132.14 115.642 132.131 115.663C132.072 115.8 131.964 115.91 131.828 115.973C131.693 116.035 131.539 116.046 131.397 116.002C131.375 115.995 131.352 115.991 131.329 115.989C131.264 115.985 131.199 116.002 131.144 116.038C131.089 116.074 131.047 116.126 131.025 116.188C131.002 116.249 131 116.316 131.018 116.379C131.037 116.442 131.075 116.497 131.127 116.536C131.146 116.55 131.166 116.561 131.187 116.57C131.324 116.63 131.434 116.738 131.496 116.873C131.559 117.008 131.569 117.162 131.526 117.305C131.519 117.327 131.514 117.349 131.512 117.372C131.508 117.438 131.526 117.502 131.561 117.557C131.597 117.612 131.65 117.654 131.711 117.677C131.773 117.699 131.84 117.702 131.903 117.683C131.965 117.665 132.021 117.627 132.06 117.574C132.074 117.556 132.085 117.536 132.094 117.514C132.153 117.378 132.261 117.268 132.397 117.205C132.532 117.143 132.686 117.132 132.828 117.176C132.85 117.183 132.873 117.187 132.896 117.189C132.961 117.193 133.026 117.176 133.081 117.14C133.136 117.104 133.178 117.052 133.2 116.99C133.223 116.929 133.225 116.862 133.207 116.799C133.188 116.736 133.15 116.681 133.098 116.641C133.079 116.628 133.059 116.616 133.038 116.608Z" fill="#4D8AF0"/>
<path opacity="0.5" d="M2.03208 30.263C1.89532 30.2035 1.78525 30.0957 1.7228 29.9602C1.66035 29.8248 1.64988 29.6711 1.6934 29.5284C1.70044 29.5066 1.70488 29.4839 1.70662 29.461C1.7106 29.3956 1.69342 29.3307 1.65762 29.2759C1.62183 29.2211 1.56932 29.1792 1.50788 29.1565C1.44644 29.1339 1.37934 29.1316 1.3165 29.1501C1.25367 29.1685 1.19846 29.2067 1.15903 29.259C1.14548 29.2776 1.13416 29.2977 1.12531 29.3189C1.06575 29.4556 0.957982 29.5657 0.822527 29.6281C0.687072 29.6906 0.533382 29.7011 0.390713 29.6575C0.36884 29.6505 0.346215 29.6461 0.323303 29.6443C0.257937 29.6403 0.193027 29.6575 0.138189 29.6933C0.083351 29.7291 0.0414999 29.7816 0.0188355 29.8431C-0.00382889 29.9045 -0.00610177 29.9716 0.0123539 30.0344C0.0308097 30.0973 0.069013 30.1525 0.121304 30.1919C0.139856 30.2055 0.159944 30.2168 0.18115 30.2256C0.317901 30.2852 0.42798 30.393 0.49043 30.5284C0.55288 30.6639 0.563341 30.8176 0.519824 30.9602C0.512783 30.9821 0.508347 31.0047 0.506609 31.0276C0.502629 31.093 0.519809 31.1579 0.555604 31.2128C0.591399 31.2676 0.643904 31.3094 0.705344 31.3321C0.766783 31.3548 0.833889 31.357 0.896722 31.3386C0.959554 31.3201 1.01477 31.2819 1.05419 31.2296C1.06775 31.2111 1.07907 31.191 1.08792 31.1698C1.14748 31.033 1.25524 30.923 1.3907 30.8605C1.52615 30.7981 1.67984 30.7876 1.82251 30.8311C1.84439 30.8382 1.86701 30.8426 1.88992 30.8443C1.95529 30.8483 2.0202 30.8311 2.07504 30.7953C2.12987 30.7595 2.17172 30.707 2.19439 30.6456C2.21705 30.5842 2.21932 30.5171 2.20087 30.4542C2.18241 30.3914 2.14421 30.3362 2.09192 30.2967C2.07337 30.2832 2.05328 30.2719 2.03208 30.263Z" fill="#4D8AF0"/>
<path opacity="0.5" d="M13.1331 47.9692C13.6812 47.9692 14.1256 47.5249 14.1256 46.9768C14.1256 46.4287 13.6812 45.9843 13.1331 45.9843C12.585 45.9843 12.1406 46.4287 12.1406 46.9768C12.1406 47.5249 12.585 47.9692 13.1331 47.9692Z" fill="#41B696"/>
<path opacity="0.5" d="M141.162 55.909C141.711 55.909 142.155 55.4646 142.155 54.9165C142.155 54.3684 141.711 53.924 141.162 53.924C140.614 53.924 140.17 54.3684 140.17 54.9165C140.17 55.4646 140.614 55.909 141.162 55.909Z" fill="#41B696"/>
<g opacity="0.5">
<path opacity="0.5" d="M96.9982 0H96.502V2.81199H96.9982V0Z" fill="#41B696"/>
<path opacity="0.5" d="M98.1562 1.65412V1.15788L95.3443 1.15788V1.65412L98.1562 1.65412Z" fill="#41B696"/>
</g>
<g opacity="0.5">
<path opacity="0.5" d="M98.8166 110.164H98.3203V112.976H98.8166V110.164Z" fill="#41B696"/>
<path opacity="0.5" d="M99.9746 111.818V111.322H97.1626V111.818H99.9746Z" fill="#41B696"/>
</g>
<g opacity="0.5">
<path opacity="0.5" d="M4.86342 116.119H4.36719V118.931H4.86342V116.119Z" fill="#41B696"/>
<path opacity="0.5" d="M6.02148 117.773V117.276H3.20949V117.773H6.02148Z" fill="#41B696"/>
</g>
<g opacity="0.5">
<path opacity="0.5" d="M117.84 65.5028H117.344V68.3148H117.84V65.5028Z" fill="#41B696"/>
<path opacity="0.5" d="M118.998 67.1569V66.6607H116.186V67.1569H118.998Z" fill="#41B696"/>
</g>
<path opacity="0.5" d="M131.602 20.3486L132.668 21.3255L134.178 19.105L134.711 19.5491L132.668 22.2137L131.158 20.5262L131.602 20.3486Z" fill="#41B696"/>
<path d="M101.176 39.5782L97.5 39.7208L97.6833 44.4476L101.36 44.305L101.176 39.5782Z" fill="#41B696"/>
<path d="M84.5927 56.1323C84.5927 56.1323 79.5015 53.6998 79.583 55.8006C79.6645 57.9014 84.7149 59.2835 84.7149 59.2835L84.5927 56.1323Z" fill="#FFB9B9"/>
<path d="M87.3861 73.9075C87.3861 73.9075 84.9841 79.7865 84.0967 84.0288C83.2092 88.2711 81.8577 94.1093 83.5962 98.2498C85.3347 102.39 90.2774 114.559 90.3284 115.872C90.3793 117.185 89.905 118.519 90.9554 118.478C92.0058 118.437 97.7218 116.637 97.9539 115.84C98.1859 115.042 96.0037 113.022 96.0037 113.022L90.615 96.1367L96.2373 85.136L100.293 101.547L101.087 122.03C101.087 122.03 104.985 120.827 105.551 121.857C105.551 121.857 107.298 119.422 107.519 118.361C107.741 117.301 106.695 97.0911 106.695 97.0911C106.695 97.0911 110.273 74.072 107.384 74.184C104.496 74.296 93.1814 67.371 87.3861 73.9075Z" fill="#41B696"/>
<path d="M90.9145 117.427C90.9145 117.427 88.25 123.317 87.9976 123.589C87.7452 123.862 86.0088 126.559 87.3218 126.508C88.6348 126.458 91.735 125.022 94.017 122.83C96.2989 120.637 99.3075 116.839 99.0347 116.586C98.7619 116.334 96.8932 115.618 96.8932 115.618L90.9145 117.427Z" fill="#575A89"/>
<path d="M101.56 120.696C101.56 120.696 101.399 123.333 100.915 124.403C100.43 125.474 100.492 127.05 101.804 126.999C103.117 126.948 106.511 126.29 106.511 126.29C106.511 126.29 106.712 124.704 106.44 124.452C106.167 124.2 105.004 121.352 105.499 120.544C105.994 119.735 101.56 120.696 101.56 120.696Z" fill="#575A89"/>
<path d="M103.504 35.1486C103.504 35.1486 106.303 39.5109 107.394 40.5206C108.485 41.5302 105.415 43.7532 105.415 43.7532L99.9213 44.4922C99.9213 44.4922 99.9904 39.4927 99.7074 38.9777C99.4245 38.4627 103.504 35.1486 103.504 35.1486Z" fill="#FFB9B9"/>
<path d="M98.7284 40.8566C98.7284 40.8566 99.8603 42.9167 100.911 42.8759C101.961 42.8352 107.394 40.5206 107.626 39.7226C107.858 38.9246 109.426 45.4386 109.426 45.4386L96.1315 68.8345L92.8887 66.5933L94.4599 52.8568L95.7504 45.443L98.7284 40.8566Z" fill="#41B696"/>
<path d="M108.116 61.795C107.586 62.9043 107.255 64.0612 107.301 65.2455C107.303 65.298 107.305 65.3505 107.31 65.4029C107.435 67.8334 108.331 70.6442 108.652 72.6884C108.885 74.1547 108.819 75.225 107.961 75.4766C105.88 76.0832 108.264 76.5168 100.215 79.1958C92.1661 81.8749 90.7615 79.5624 90.7411 79.0372C90.7208 78.512 91.881 74.5222 91.6082 74.2698C91.3355 74.0174 87.7915 77.5737 86.7207 77.0892C85.65 76.6047 86.5985 73.938 86.5985 73.938C86.5985 73.938 89.0107 68.3217 88.9597 67.0087C88.9088 65.6957 92.6136 59.5032 92.6136 59.5032L95.1334 43.1C95.1334 43.1 96.1023 40.9585 97.4051 40.645C98.7079 40.3314 99.7889 41.0785 99.7889 41.0785L97.6088 45.8969L95.3086 54.4018L95.6934 57.5428C95.6934 57.5428 98.3682 51.9163 100.125 49.7442C101.882 47.5722 105.627 42.4301 105.627 42.4301C105.627 42.4301 106.502 39.4796 105.841 38.5978C105.181 37.7135 108.595 37.5811 110.051 41.2066C110.822 43.128 112.074 45.9934 112.859 48.6613C113.558 51.0248 113.888 53.2343 113.196 54.4972C112.137 56.4265 109.474 58.9625 108.116 61.795Z" fill="#575A89"/>
<path opacity="0.1" d="M113.195 54.4972C112.137 56.4265 109.473 58.9625 108.116 61.795C107.761 60.5174 107.329 59.1956 107.329 59.1956C107.329 59.1956 105.669 50.3182 110.577 48.0239C111.39 47.9453 112.204 48.1725 112.858 48.6613C113.558 51.0248 113.888 53.2343 113.195 54.4972Z" fill="black"/>
<path d="M93.712 53.9377L89.5511 55.151L83.774 55.3751L83.1797 60.395L92.6739 61.0788C92.6739 61.0788 95.0453 54.412 93.712 53.9377Z" fill="#575A89"/>
<path d="M100.498 70.8163C100.498 70.8163 94.9317 71.7398 96.2022 73.4148C97.4727 75.0899 102.404 73.3288 102.404 73.3288L100.498 70.8163Z" fill="#FFB9B9"/>
<path opacity="0.1" d="M107.309 65.4029C107.435 67.8334 108.33 70.6442 108.651 72.6884C106.878 74.3666 105.192 75.8469 104.556 75.8716C103.243 75.9225 101.132 75.7413 100.355 76.0345C99.5772 76.3276 99.1211 71.3485 99.1211 71.3485C99.1211 71.3485 99.5852 69.7525 101.655 68.8833C103.053 68.2952 105.731 66.7002 107.309 65.4029Z" fill="black"/>
<path d="M110.517 46.4483C110.517 46.4483 114.96 45.75 114.72 53.1231C114.48 60.4962 115.189 65.2026 113.402 66.5869C111.614 67.9712 105.809 74.2451 104.496 74.296C103.183 74.3469 101.072 74.1658 100.294 74.4589C99.5166 74.7521 99.0605 69.7729 99.0605 69.7729C99.0605 69.7729 99.5246 68.177 101.595 67.3077C103.665 66.4385 108.542 63.3564 108.502 62.306C108.461 61.2556 107.268 57.62 107.268 57.62C107.268 57.62 105.609 48.7426 110.517 46.4483Z" fill="#575A89"/>
<path d="M99.5842 41.6081C102.777 41.6081 105.366 39.0196 105.366 35.8266C105.366 32.6336 102.777 30.0451 99.5842 30.0451C96.3912 30.0451 93.8027 32.6336 93.8027 35.8266C93.8027 39.0196 96.3912 41.6081 99.5842 41.6081Z" fill="#FFB9B9"/>
<path d="M95.6926 27.54C95.5531 27.6602 95.3862 27.744 95.2065 27.784C95.1163 27.8001 95.0234 27.7798 94.9481 27.7276C94.8728 27.6755 94.8211 27.5956 94.8045 27.5055C94.6722 27.7798 94.523 28.0722 94.2529 28.213C93.9829 28.3537 93.5652 28.2357 93.5263 27.9336C93.4869 28.163 93.3854 28.3772 93.2329 28.5529C93.0654 28.7127 92.7615 28.753 92.6152 28.5736C92.7335 29.2199 92.6605 29.8846 92.6976 30.5406C92.7348 31.1966 92.9097 31.8921 93.4053 32.3235C94.1282 32.9526 95.2151 32.7973 96.1659 32.6782C96.3097 32.648 96.4589 32.6561 96.5985 32.7018C96.9546 32.8535 96.9384 33.3491 96.9432 33.736C96.9723 34.415 97.241 35.0617 97.7016 35.5613C98.1623 36.0609 98.7851 36.381 99.4595 36.4649C99.8369 36.5232 100.222 36.4292 100.53 36.2036C100.8 35.9748 100.938 35.6019 101.247 35.43C101.75 35.1503 102.361 35.5581 102.729 36.0009C103.097 36.4436 103.459 36.9883 104.029 37.0693C104.783 37.1765 105.357 36.4083 105.639 35.701C106.027 34.7096 106.213 33.6505 106.186 32.586C106.159 31.5216 105.919 30.4733 105.48 29.5031C103.906 26.0723 98.5298 25.5296 95.6926 27.54Z" fill="#2F2E41"/>
</g>
<defs>
<clipPath id="clip0_2377_3225">
<rect width="142.154" height="127" fill="white"/>
</clipPath>
</defs>
</svg>
