<svg width="143" height="127" viewBox="0 0 143 127" fill="none" xmlns="http://www.w3.org/2000/svg">
<g clip-path="url(#clip0_2377_2755)">
<path d="M71.3578 1.77754L26.7461 29.2309C26.7461 29.2309 26.7461 85.8535 71.3578 116.739C115.97 85.8535 115.97 29.2309 115.97 29.2309L71.3578 1.77754Z" fill="#3F3D56"/>
<path opacity="0.04" d="M71.6239 1.77759L70.8613 2.24688V116.203C71.1146 116.382 71.3677 116.561 71.6239 116.739C116.236 85.8535 116.236 29.2309 116.236 29.2309L71.6239 1.77759Z" fill="#41B696"/>
<g opacity="0.7">
<path opacity="0.7" d="M60.5589 57.4089L68.9689 65.1181L79.3945 50.0782L83.5995 53.5825L68.9689 72.1265L57.0547 58.8106L60.5589 57.4089Z" fill="url(#paint0_linear_2377_2755)"/>
</g>
<path d="M79.5226 66.1279C83.6521 61.8142 83.1841 54.6645 78.4772 50.1586C73.7702 45.6528 66.6068 45.4971 62.4772 49.8108C58.3477 54.1245 58.8157 61.2742 63.5227 65.7801C68.2296 70.2859 75.393 70.4417 79.5226 66.1279Z" fill="#41B696"/>
<g opacity="0.8">
<path d="M79.5226 66.1279C83.6521 61.8141 83.1841 54.6644 78.4772 50.1586C73.7702 45.6527 66.6068 45.497 62.4772 49.8107C58.3477 54.1245 58.8157 61.2742 63.5227 65.78C68.2296 70.2859 75.393 70.4416 79.5226 66.1279Z" fill="white"/>
</g>
<path d="M65.7389 50.8827C65.6449 50.8827 65.5533 50.8531 65.477 50.7981C65.4008 50.7431 65.3437 50.6656 65.314 50.5764C65.2843 50.4872 65.2834 50.3909 65.3114 50.3012C65.3394 50.2114 65.395 50.1328 65.4702 50.0764C66.9785 48.9939 68.7964 48.4282 70.6527 48.4639C70.7715 48.4639 70.8854 48.5111 70.9694 48.5951C71.0534 48.6791 71.1006 48.793 71.1006 48.9118C71.1006 49.0306 71.0534 49.1445 70.9694 49.2285C70.8854 49.3125 70.7715 49.3597 70.6527 49.3597C68.9901 49.3231 67.3605 49.826 66.0077 50.7931C65.9302 50.8512 65.8359 50.8827 65.7389 50.8827Z" fill="#41B696"/>
<path d="M67.8543 66.2908C67.7808 66.2904 67.7085 66.272 67.6438 66.237C66.2711 65.503 65.08 64.4712 64.1577 63.2172C63.2354 61.9632 62.6053 60.5188 62.3135 58.9897C62.0289 57.6671 62.042 56.2977 62.3519 54.9807C62.6618 53.6637 63.2607 52.4321 64.1052 51.3751C64.1812 51.2837 64.2905 51.2261 64.4089 51.2152C64.5274 51.2043 64.6453 51.2409 64.7368 51.3169C64.8283 51.3929 64.8858 51.5022 64.8967 51.6206C64.9076 51.7391 64.871 51.857 64.795 51.9485C64.0321 52.9052 63.492 54.0199 63.2138 55.2115C62.9356 56.4032 62.9265 57.6418 63.187 58.8374C63.4553 60.2352 64.032 61.5556 64.8751 62.7024C65.7181 63.8491 66.8063 64.7935 68.0604 65.4666C68.148 65.5139 68.2173 65.589 68.2575 65.68C68.2976 65.7711 68.3063 65.8729 68.2822 65.9694C68.2581 66.066 68.2025 66.1517 68.1242 66.2132C68.0459 66.2746 67.9494 66.3082 67.8499 66.3087L67.8543 66.2908Z" fill="#41B696"/>
<path d="M72.3389 67.46C71.3363 67.4557 70.3404 67.2955 69.3871 66.9852C69.3309 66.967 69.2788 66.9379 69.2339 66.8995C69.189 66.8612 69.1521 66.8144 69.1252 66.7618C69.0984 66.7091 69.0822 66.6518 69.0776 66.5929C69.0729 66.534 69.0799 66.4748 69.0981 66.4186C69.1164 66.3624 69.1455 66.3104 69.1838 66.2655C69.2222 66.2206 69.269 66.1836 69.3216 66.1568C69.3742 66.13 69.4316 66.1138 69.4905 66.1091C69.5494 66.1045 69.6086 66.1115 69.6648 66.1297C72.4195 67.0255 75.1697 66.5239 77.2078 64.7859C78.2417 63.8734 79.0231 62.7098 79.4766 61.4075C79.9301 60.1051 80.0403 58.7079 79.7968 57.3505C79.7778 57.2317 79.8067 57.1102 79.8773 57.0128C79.9479 56.9154 80.0543 56.8499 80.1731 56.8309C80.2918 56.8119 80.4133 56.8409 80.5108 56.9115C80.6082 56.982 80.6736 57.0884 80.6926 57.2072C80.9642 58.7155 80.8408 60.2684 80.3346 61.715C79.8283 63.1615 78.9564 64.4525 77.8035 65.4623C76.2846 66.769 74.3424 67.479 72.3389 67.46Z" fill="#41B696"/>
<path d="M72.8139 49.6104C72.7798 49.6151 72.7451 49.6151 72.7109 49.6104C72.0368 49.4534 71.3471 49.3737 70.655 49.373C70.5362 49.373 70.4222 49.3258 70.3382 49.2418C70.2542 49.1578 70.207 49.0439 70.207 48.9251C70.207 48.8063 70.2542 48.6924 70.3382 48.6083C70.4222 48.5243 70.5362 48.4772 70.655 48.4772C71.4091 48.4795 72.1606 48.5681 72.8946 48.7414C73.0134 48.7551 73.1219 48.8154 73.1962 48.909C73.2706 49.0027 73.3046 49.1221 73.291 49.2409C73.2773 49.3597 73.217 49.4682 73.1234 49.5425C73.0297 49.6168 72.9103 49.6509 72.7916 49.6373L72.8139 49.6104Z" fill="#41B696"/>
<path d="M64.9127 60.3112C64.8212 60.3115 64.7318 60.2837 64.6565 60.2317C64.5812 60.1796 64.5237 60.1058 64.4917 60.02C64.0718 58.9362 63.9242 57.7659 64.0616 56.6118C64.199 55.4576 64.6174 54.3547 65.28 53.3998C65.9064 52.4952 66.7454 51.7582 67.7232 51.2537C68.701 50.7492 69.7878 50.4925 70.888 50.5063C71.0068 50.5063 71.1208 50.5535 71.2048 50.6375C71.2888 50.7215 71.336 50.8354 71.336 50.9542C71.336 51.073 71.2888 51.1869 71.2048 51.2709C71.1208 51.3549 71.0068 51.4021 70.888 51.4021C69.9321 51.3908 68.9879 51.6135 68.1377 52.0507C67.2875 52.4879 66.5571 53.1264 66.0102 53.9104C65.4291 54.7514 65.0635 55.7222 64.9456 56.7375C64.8276 57.7529 64.9609 58.7816 65.3338 59.7334C65.3744 59.8445 65.3693 59.9671 65.3198 60.0745C65.2703 60.1819 65.1803 60.2654 65.0695 60.3067C65.0179 60.3168 64.9649 60.3183 64.9127 60.3112Z" fill="#41B696"/>
<path d="M72.0183 65.4263C70.6757 65.3814 69.3638 65.0131 68.1941 64.3526C67.0243 63.6921 66.0313 62.7589 65.2995 61.6324C65.2451 61.5335 65.2301 61.4176 65.2575 61.3081C65.2849 61.1986 65.3527 61.1034 65.4472 61.0417C65.5418 60.98 65.6562 60.9562 65.7675 60.9753C65.8788 60.9943 65.9788 61.0546 66.0475 61.1442C66.698 62.1463 67.5801 62.9772 68.6193 63.5666C69.6586 64.156 70.8244 64.4866 72.0183 64.5305C72.1371 64.5305 72.2511 64.5777 72.3351 64.6617C72.4191 64.7457 72.4663 64.8596 72.4663 64.9784C72.4663 65.0972 72.4191 65.2111 72.3351 65.2951C72.2511 65.3791 72.1371 65.4263 72.0183 65.4263Z" fill="#41B696"/>
<path d="M73.6931 65.2339C73.5908 65.2369 73.4905 65.2047 73.409 65.1428C73.3275 65.0808 73.2697 64.9928 73.2452 64.8935C73.2168 64.7782 73.2352 64.6564 73.2965 64.5548C73.3578 64.4532 73.457 64.3801 73.5722 64.3515C77.2048 63.4556 78.1455 60.271 77.8453 57.8253C77.4557 54.6362 74.9383 51.4067 70.8757 51.4022C70.7569 51.4022 70.6429 51.355 70.5589 51.271C70.4749 51.187 70.4277 51.0731 70.4277 50.9543C70.4277 50.8355 70.4749 50.7215 70.5589 50.6375C70.6429 50.5535 70.7569 50.5063 70.8757 50.5063C75.4579 50.5063 78.2978 54.1345 78.7367 57.7178C79.1846 61.4131 77.2451 64.3604 73.7872 65.2204C73.7564 65.2282 73.7248 65.2327 73.6931 65.2339Z" fill="#41B696"/>
<path d="M69.0569 53.8745C68.972 53.8739 68.889 53.8491 68.8176 53.8031C68.7463 53.7571 68.6894 53.6918 68.6538 53.6147C68.6033 53.5072 68.5976 53.3841 68.6379 53.2723C68.6782 53.1606 68.7613 53.0695 68.8688 53.019C69.5555 52.7153 70.2994 52.5625 71.0502 52.5711C71.169 52.5711 71.2829 52.6183 71.3669 52.7023C71.4509 52.7863 71.4981 52.9002 71.4981 53.019C71.4981 53.1378 71.4509 53.2517 71.3669 53.3357C71.2829 53.4197 71.169 53.4669 71.0502 53.4669C70.432 53.4673 69.821 53.6002 69.2585 53.8566C69.1935 53.8779 69.1246 53.884 69.0569 53.8745Z" fill="#41B696"/>
<path d="M71.9358 63.3389C70.8013 63.3207 69.6959 62.9777 68.7504 62.3506C67.8049 61.7235 67.059 60.8384 66.601 59.8004C65.6738 57.7803 65.947 55.6706 67.3311 54.1477C67.4114 54.0606 67.523 54.0089 67.6413 54.0038C67.7597 53.9988 67.8752 54.0409 67.9627 54.1208C68.0498 54.2011 68.1015 54.3127 68.1065 54.431C68.1116 54.5494 68.0695 54.6649 67.9896 54.7524C67.433 55.3819 67.0803 56.1653 66.9779 56.9993C66.8756 57.8333 67.0284 58.6787 67.4162 59.4241C67.8121 60.3289 68.4651 61.0974 69.2941 61.6341C70.1231 62.1709 71.0915 62.4522 72.0791 62.4431C72.8262 62.4377 73.5557 62.2162 74.1797 61.8052C74.8036 61.3943 75.2953 60.8116 75.5953 60.1274C75.9327 59.3202 76.0343 58.434 75.8884 57.5714C75.7425 56.7089 75.3551 55.9054 74.7711 55.254C74.7329 55.2093 74.7038 55.1575 74.6856 55.1016C74.6674 55.0457 74.6604 54.9867 74.6649 54.928C74.6695 54.8694 74.6856 54.8122 74.7123 54.7598C74.7389 54.7074 74.7757 54.6607 74.8204 54.6225C74.8651 54.5842 74.9169 54.5552 74.9728 54.537C75.0288 54.5188 75.0877 54.5117 75.1464 54.5163C75.205 54.5209 75.2622 54.537 75.3146 54.5636C75.3671 54.5903 75.4137 54.627 75.452 54.6717C76.1473 55.4516 76.6069 56.4128 76.7774 57.4436C76.9478 58.4744 76.8222 59.5325 76.415 60.4947C76.0474 61.3341 75.4453 62.0495 74.6808 62.5549C73.9164 63.0603 73.0223 63.3341 72.106 63.3434L71.9358 63.3389Z" fill="#41B696"/>
<path d="M73.8221 54.269C73.7376 54.2695 73.6549 54.2445 73.5847 54.1973C72.8284 53.7105 71.9489 53.4495 71.0495 53.4448C70.9307 53.4448 70.8168 53.3976 70.7328 53.3136C70.6488 53.2296 70.6016 53.1157 70.6016 52.9969C70.6016 52.8781 70.6488 52.7642 70.7328 52.6802C70.8168 52.5962 70.9307 52.549 71.0495 52.549C72.1194 52.553 73.1656 52.8639 74.064 53.4448C74.1451 53.4972 74.2072 53.5744 74.2408 53.665C74.2745 53.7555 74.278 53.8545 74.2508 53.9472C74.2236 54.0399 74.1671 54.1213 74.0899 54.1793C74.0126 54.2373 73.9187 54.2687 73.8221 54.269Z" fill="#41B696"/>
<path d="M71.6997 61.3191C71.1763 61.3155 70.6601 61.1974 70.1873 60.973C69.7144 60.7486 69.2965 60.4233 68.9629 60.0201C68.5324 59.5274 68.2528 58.9212 68.1575 58.2739C68.0621 57.6265 68.1552 56.9655 68.4254 56.3696C68.6666 55.8287 69.0613 55.3706 69.5606 55.0521C70.0599 54.7336 70.6417 54.5687 71.2339 54.5779C71.3527 54.5779 71.4666 54.6251 71.5506 54.7091C71.6346 54.7931 71.6818 54.907 71.6818 55.0258C71.6818 55.1446 71.6346 55.2586 71.5506 55.3426C71.4666 55.4266 71.3527 55.4737 71.2339 55.4737C70.815 55.4661 70.4031 55.5811 70.0489 55.8048C69.6947 56.0285 69.4137 56.3509 69.2406 56.7324C69.0437 57.1723 68.9774 57.6595 69.0496 58.136C69.1219 58.6125 69.3297 59.0582 69.6482 59.4199C69.9653 59.8085 70.3863 60.099 70.8621 60.2576C71.3379 60.4162 71.8489 60.4363 72.3357 60.3157C72.7318 60.2266 73.094 60.0255 73.379 59.7365C73.6641 59.4474 73.8601 59.0826 73.9438 58.6853C73.9695 58.5696 74.04 58.4688 74.14 58.405C74.2399 58.3411 74.361 58.3195 74.4768 58.3449C74.5345 58.3571 74.5893 58.3806 74.6379 58.4141C74.6865 58.4475 74.728 58.4902 74.76 58.5397C74.7921 58.5893 74.814 58.6446 74.8246 58.7027C74.8352 58.7607 74.8342 58.8203 74.8217 58.8779C74.7031 59.4385 74.4267 59.9534 74.0252 60.3621C73.6236 60.7708 73.1136 61.0562 72.5552 61.1847C72.2764 61.2634 71.9892 61.3085 71.6997 61.3191Z" fill="#41B696"/>
<path d="M74.3064 57.7716C74.2076 57.7761 74.1101 57.7478 74.0291 57.6911C73.948 57.6344 73.8881 57.5524 73.8585 57.4581C73.6797 56.8968 73.3304 56.4054 72.8591 56.0521C72.3878 55.6988 71.818 55.5014 71.2292 55.4872C71.1104 55.4872 70.9964 55.44 70.9124 55.356C70.8284 55.272 70.7812 55.1581 70.7812 55.0393C70.7812 54.9205 70.8284 54.8066 70.9124 54.7226C70.9964 54.6386 71.1104 54.5914 71.2292 54.5914C72.008 54.6087 72.762 54.8682 73.3865 55.3338C74.011 55.7994 74.475 56.4479 74.714 57.1893C74.7321 57.2455 74.7389 57.3047 74.7341 57.3635C74.7292 57.4223 74.7128 57.4796 74.6857 57.532C74.6587 57.5844 74.6215 57.631 74.5764 57.6691C74.5313 57.7071 74.4791 57.7359 74.4229 57.7537C74.385 57.7648 74.3459 57.7708 74.3064 57.7716Z" fill="#41B696"/>
<path d="M71.8213 59.4558C71.7025 59.4558 71.5886 59.4086 71.5046 59.3246C71.4206 59.2406 71.3734 59.1266 71.3734 59.0078C71.3734 58.889 71.4206 58.7751 71.5046 58.6911C71.5886 58.6071 71.7025 58.5599 71.8213 58.5599C71.8825 58.56 71.943 58.5476 71.9992 58.5234C72.0553 58.4993 72.106 58.4639 72.1479 58.4194C72.1899 58.3749 72.2223 58.3223 72.2432 58.2648C72.264 58.2073 72.2729 58.1462 72.2692 58.0851C72.2716 57.9979 72.2566 57.9111 72.2252 57.8297C72.1937 57.7483 72.1464 57.674 72.0859 57.6111C72.0255 57.5482 71.9532 57.4979 71.8731 57.4631C71.7931 57.4284 71.707 57.4099 71.6197 57.4088C71.554 57.4105 71.4893 57.4253 71.4293 57.4522C71.3694 57.4791 71.3153 57.5176 71.2703 57.5655C71.2244 57.6197 71.1897 57.6824 71.1682 57.7501C71.1467 57.8177 71.1388 57.889 71.1449 57.9597C71.1485 58.0185 71.1404 58.0775 71.1211 58.1332C71.1019 58.1889 71.0718 58.2402 71.0327 58.2843C70.9936 58.3284 70.9462 58.3644 70.8933 58.3901C70.8403 58.4159 70.7827 58.431 70.7239 58.4345C70.6651 58.438 70.6061 58.4299 70.5504 58.4107C70.4947 58.3914 70.4434 58.3614 70.3993 58.3223C70.3552 58.2832 70.3192 58.2358 70.2935 58.1828C70.2677 58.1298 70.2526 58.0723 70.2491 58.0135C70.2332 57.8255 70.2558 57.6363 70.3157 57.4574C70.3755 57.2785 70.4713 57.1137 70.5972 56.9732C70.723 56.8327 70.8762 56.7194 71.0475 56.6402C71.2187 56.5611 71.4043 56.5178 71.5929 56.5129C71.7979 56.5135 72.0008 56.5548 72.1898 56.6343C72.3788 56.7139 72.5501 56.8301 72.6938 56.9763C72.8376 57.1226 72.9509 57.2959 73.0271 57.4862C73.1034 57.6765 73.1412 57.8801 73.1382 58.0851C73.1418 58.2638 73.1097 58.4415 73.0437 58.6076C72.9778 58.7738 72.8794 58.9251 72.7542 59.0527C72.6291 59.1804 72.4798 59.2818 72.3149 59.351C72.1501 59.4202 71.9732 59.4558 71.7944 59.4558H71.8213Z" fill="#41B696"/>
<path d="M83.3428 57.9643C83.8893 64.2038 79.2712 69.2608 73.0406 69.2608H72.5568C78.4963 68.9562 82.8098 64.0201 82.2812 57.9777C81.976 55.0201 80.6346 52.2656 78.4943 50.2016C76.354 48.1376 73.5528 46.897 70.5859 46.6992C70.7427 46.6992 70.904 46.6992 71.0652 46.6992C77.3137 46.6723 82.8142 51.7293 83.3428 57.9643Z" fill="#41B696"/>
<g opacity="0.4">
<path d="M83.3467 57.9638C83.8932 64.2033 79.2751 69.2602 73.0445 69.2602H72.5607C78.5002 68.9557 82.8137 64.0196 82.2851 57.9772C81.9799 55.0195 80.6385 52.2651 78.4982 50.2011C76.3579 48.1371 73.5567 46.8964 70.5898 46.6986C70.7466 46.6986 70.9079 46.6986 71.0691 46.6986C77.3177 46.6718 82.8182 51.7288 83.3467 57.9638Z" fill="white"/>
</g>
<path opacity="0.5" d="M27.3407 7.93251C27.2039 7.87295 27.0938 7.76519 27.0314 7.62973C26.9689 7.49428 26.9585 7.34059 27.002 7.19792C27.009 7.17605 27.0135 7.15342 27.0152 7.13051C27.0192 7.06514 27.002 7.00023 26.9662 6.94539C26.9304 6.89056 26.8779 6.8487 26.8165 6.82604C26.755 6.80338 26.6879 6.8011 26.6251 6.81956C26.5623 6.83802 26.5071 6.87622 26.4676 6.92851C26.4541 6.94706 26.4428 6.96715 26.4339 6.98835C26.3743 7.12511 26.2666 7.23518 26.1311 7.29763C25.9957 7.36008 25.842 7.37055 25.6993 7.32703C25.6774 7.31999 25.6548 7.31555 25.6319 7.31381C25.5665 7.30984 25.5016 7.32702 25.4468 7.36281C25.3919 7.3986 25.3501 7.45111 25.3274 7.51255C25.3048 7.57399 25.3025 7.6411 25.3209 7.70393C25.3394 7.76676 25.3776 7.82198 25.4299 7.8614C25.4485 7.87496 25.4685 7.88628 25.4897 7.89513C25.6265 7.95468 25.7366 8.06245 25.799 8.1979C25.8615 8.33336 25.8719 8.48705 25.8284 8.62972C25.8214 8.65159 25.8169 8.67422 25.8152 8.69713C25.8112 8.7625 25.8284 8.82741 25.8642 8.88224C25.9 8.93708 25.9525 8.97893 26.0139 9.0016C26.0754 9.02426 26.1425 9.02653 26.2053 9.00808C26.2682 8.98962 26.3234 8.95142 26.3628 8.89913C26.3763 8.88058 26.3877 8.86049 26.3965 8.83928C26.4561 8.70253 26.5638 8.59245 26.6993 8.53C26.8348 8.46755 26.9884 8.45709 27.1311 8.50061C27.153 8.50765 27.1756 8.51208 27.1985 8.51382C27.2639 8.5178 27.3288 8.50062 27.3836 8.46483C27.4385 8.42903 27.4803 8.37653 27.503 8.31509C27.5257 8.25365 27.5279 8.18654 27.5095 8.12371C27.491 8.06088 27.4528 8.00566 27.4005 7.96624C27.382 7.95268 27.3619 7.94136 27.3407 7.93251Z" fill="#4D8AF0"/>
<path opacity="0.5" d="M3.19028 61.6911C3.05353 61.6316 2.94345 61.5238 2.881 61.3884C2.81855 61.2529 2.80809 61.0992 2.8516 60.9566C2.85865 60.9347 2.86308 60.9121 2.86482 60.8891C2.8688 60.8238 2.85162 60.7589 2.81582 60.704C2.78003 60.6492 2.72752 60.6073 2.66608 60.5847C2.60464 60.562 2.53754 60.5597 2.47471 60.5782C2.41187 60.5967 2.35666 60.6349 2.31724 60.6871C2.30368 60.7057 2.29236 60.7258 2.28351 60.747C2.22395 60.8837 2.11618 60.9938 1.98073 61.0563C1.84527 61.1187 1.69159 61.1292 1.54892 61.0857C1.52704 61.0786 1.50442 61.0742 1.48151 61.0724C1.41614 61.0685 1.35123 61.0856 1.29639 61.1214C1.24155 61.1572 1.1997 61.2097 1.17704 61.2712C1.15437 61.3326 1.1521 61.3997 1.17056 61.4626C1.18901 61.5254 1.22722 61.5806 1.27951 61.62C1.29806 61.6336 1.31815 61.6449 1.33935 61.6538C1.4761 61.7133 1.58618 61.8211 1.64863 61.9565C1.71108 62.092 1.72154 62.2457 1.67803 62.3883C1.67099 62.4102 1.66655 62.4328 1.66481 62.4558C1.66083 62.5211 1.67801 62.586 1.71381 62.6409C1.7496 62.6957 1.80211 62.7376 1.86355 62.7602C1.92499 62.7829 1.99209 62.7852 2.05492 62.7667C2.11776 62.7482 2.17297 62.71 2.2124 62.6578C2.22595 62.6392 2.23728 62.6191 2.24613 62.5979C2.30568 62.4612 2.41345 62.3511 2.5489 62.2886C2.68436 62.2262 2.83805 62.2157 2.98072 62.2592C3.00259 62.2663 3.02521 62.2707 3.04813 62.2725C3.11349 62.2764 3.1784 62.2592 3.23324 62.2235C3.28808 62.1877 3.32993 62.1352 3.35259 62.0737C3.37525 62.0123 3.37753 61.9452 3.35907 61.8823C3.34062 61.8195 3.30241 61.7643 3.25012 61.7249C3.23157 61.7113 3.21148 61.7 3.19028 61.6911Z" fill="#4D8AF0"/>
<path opacity="0.5" d="M123.793 43.0069C124.341 43.0069 124.786 42.5626 124.786 42.0144C124.786 41.4663 124.341 41.022 123.793 41.022C123.245 41.022 122.801 41.4663 122.801 42.0144C122.801 42.5626 123.245 43.0069 123.793 43.0069Z" fill="#F55F44"/>
<path opacity="0.5" d="M20.0804 113.968C20.6285 113.968 21.0728 113.524 21.0728 112.976C21.0728 112.428 20.6285 111.983 20.0804 111.983C19.5322 111.983 19.0879 112.428 19.0879 112.976C19.0879 113.524 19.5322 113.968 20.0804 113.968Z" fill="#F55F44"/>
<path opacity="0.5" d="M140.666 81.2169C141.214 81.2169 141.659 80.7725 141.659 80.2244C141.659 79.6763 141.214 79.2319 140.666 79.2319C140.118 79.2319 139.674 79.6763 139.674 80.2244C139.674 80.7725 140.118 81.2169 140.666 81.2169Z" fill="#F55F44"/>
<path opacity="0.5" d="M116.497 12.7294C116.36 12.6699 116.25 12.5621 116.188 12.4267C116.125 12.2912 116.115 12.1375 116.158 11.9949C116.165 11.973 116.17 11.9504 116.171 11.9274C116.175 11.8621 116.158 11.7972 116.122 11.7423C116.087 11.6875 116.034 11.6456 115.973 11.623C115.911 11.6003 115.844 11.598 115.781 11.6165C115.718 11.635 115.663 11.6732 115.624 11.7254C115.61 11.744 115.599 11.7641 115.59 11.7853C115.531 11.922 115.423 12.0321 115.287 12.0946C115.152 12.157 114.998 12.1675 114.856 12.124C114.834 12.1169 114.811 12.1125 114.788 12.1108C114.723 12.1068 114.658 12.124 114.603 12.1597C114.548 12.1955 114.506 12.248 114.484 12.3095C114.461 12.3709 114.459 12.438 114.477 12.5009C114.496 12.5637 114.534 12.6189 114.586 12.6583C114.605 12.6719 114.625 12.6832 114.646 12.6921C114.783 12.7516 114.893 12.8594 114.955 12.9948C115.018 13.1303 115.028 13.284 114.985 13.4267C114.978 13.4485 114.973 13.4712 114.971 13.4941C114.967 13.5594 114.985 13.6243 115.02 13.6792C115.056 13.734 115.109 13.7759 115.17 13.7985C115.232 13.8212 115.299 13.8235 115.362 13.805C115.424 13.7866 115.48 13.7484 115.519 13.6961C115.533 13.6775 115.544 13.6574 115.553 13.6362C115.612 13.4995 115.72 13.3894 115.856 13.3269C115.991 13.2645 116.145 13.254 116.287 13.2975C116.309 13.3046 116.332 13.309 116.355 13.3108C116.42 13.3147 116.485 13.2976 116.54 13.2618C116.595 13.226 116.637 13.1735 116.659 13.112C116.682 13.0506 116.684 12.9835 116.666 12.9207C116.647 12.8578 116.609 12.8026 116.557 12.7632C116.538 12.7496 116.518 12.7383 116.497 12.7294Z" fill="#4D8AF0"/>
<path opacity="0.5" d="M133.038 116.608C132.901 116.548 132.791 116.44 132.729 116.305C132.666 116.169 132.656 116.016 132.699 115.873C132.706 115.851 132.711 115.828 132.712 115.806C132.716 115.74 132.699 115.675 132.663 115.62C132.628 115.566 132.575 115.524 132.514 115.501C132.452 115.478 132.385 115.476 132.322 115.495C132.26 115.513 132.204 115.551 132.165 115.604C132.151 115.622 132.14 115.642 132.131 115.663C132.072 115.8 131.964 115.91 131.828 115.973C131.693 116.035 131.539 116.046 131.397 116.002C131.375 115.995 131.352 115.991 131.329 115.989C131.264 115.985 131.199 116.002 131.144 116.038C131.089 116.074 131.047 116.126 131.025 116.188C131.002 116.249 131 116.316 131.018 116.379C131.037 116.442 131.075 116.497 131.127 116.536C131.146 116.55 131.166 116.561 131.187 116.57C131.324 116.63 131.434 116.738 131.496 116.873C131.559 117.008 131.569 117.162 131.526 117.305C131.519 117.327 131.514 117.349 131.512 117.372C131.508 117.438 131.526 117.502 131.561 117.557C131.597 117.612 131.65 117.654 131.711 117.677C131.773 117.699 131.84 117.702 131.903 117.683C131.965 117.665 132.021 117.627 132.06 117.574C132.074 117.556 132.085 117.536 132.094 117.514C132.153 117.378 132.261 117.268 132.397 117.205C132.532 117.143 132.686 117.132 132.828 117.176C132.85 117.183 132.873 117.187 132.896 117.189C132.961 117.193 133.026 117.176 133.081 117.14C133.136 117.104 133.178 117.052 133.2 116.99C133.223 116.929 133.225 116.862 133.207 116.799C133.188 116.736 133.15 116.681 133.098 116.641C133.079 116.628 133.059 116.616 133.038 116.608Z" fill="#4D8AF0"/>
<path opacity="0.5" d="M2.03208 30.263C1.89532 30.2035 1.78525 30.0957 1.7228 29.9602C1.66035 29.8248 1.64988 29.6711 1.6934 29.5284C1.70044 29.5066 1.70488 29.4839 1.70662 29.461C1.7106 29.3956 1.69342 29.3307 1.65762 29.2759C1.62183 29.2211 1.56932 29.1792 1.50788 29.1565C1.44644 29.1339 1.37934 29.1316 1.3165 29.1501C1.25367 29.1685 1.19846 29.2067 1.15903 29.259C1.14548 29.2776 1.13416 29.2977 1.12531 29.3189C1.06575 29.4556 0.957982 29.5657 0.822527 29.6281C0.687072 29.6906 0.533382 29.7011 0.390713 29.6575C0.36884 29.6505 0.346215 29.6461 0.323303 29.6443C0.257937 29.6403 0.193027 29.6575 0.138189 29.6933C0.083351 29.7291 0.0414999 29.7816 0.0188355 29.8431C-0.00382889 29.9045 -0.00610177 29.9716 0.0123539 30.0344C0.0308097 30.0973 0.069013 30.1525 0.121304 30.1919C0.139856 30.2055 0.159944 30.2168 0.18115 30.2256C0.317901 30.2852 0.42798 30.393 0.49043 30.5284C0.55288 30.6639 0.563341 30.8176 0.519824 30.9602C0.512783 30.9821 0.508347 31.0047 0.506609 31.0276C0.502629 31.093 0.519809 31.1579 0.555604 31.2128C0.591399 31.2676 0.643904 31.3094 0.705344 31.3321C0.766783 31.3548 0.833889 31.357 0.896722 31.3386C0.959554 31.3201 1.01477 31.2819 1.05419 31.2296C1.06775 31.2111 1.07907 31.191 1.08792 31.1698C1.14748 31.033 1.25524 30.923 1.3907 30.8605C1.52615 30.7981 1.67984 30.7876 1.82251 30.8311C1.84439 30.8382 1.86701 30.8426 1.88992 30.8443C1.95529 30.8483 2.0202 30.8311 2.07504 30.7953C2.12987 30.7595 2.17172 30.707 2.19439 30.6456C2.21705 30.5842 2.21932 30.5171 2.20087 30.4542C2.18241 30.3914 2.14421 30.3362 2.09192 30.2967C2.07337 30.2832 2.05328 30.2719 2.03208 30.263Z" fill="#4D8AF0"/>
<path opacity="0.5" d="M13.1331 47.9692C13.6812 47.9692 14.1256 47.5249 14.1256 46.9768C14.1256 46.4287 13.6812 45.9843 13.1331 45.9843C12.585 45.9843 12.1406 46.4287 12.1406 46.9768C12.1406 47.5249 12.585 47.9692 13.1331 47.9692Z" fill="#41B696"/>
<path opacity="0.5" d="M141.162 55.909C141.711 55.909 142.155 55.4646 142.155 54.9165C142.155 54.3684 141.711 53.924 141.162 53.924C140.614 53.924 140.17 54.3684 140.17 54.9165C140.17 55.4646 140.614 55.909 141.162 55.909Z" fill="#41B696"/>
<g opacity="0.5">
<path opacity="0.5" d="M96.9982 0H96.502V2.81199H96.9982V0Z" fill="#41B696"/>
<path opacity="0.5" d="M98.1562 1.65412V1.15788L95.3443 1.15788V1.65412L98.1562 1.65412Z" fill="#41B696"/>
</g>
<g opacity="0.5">
<path opacity="0.5" d="M98.8166 110.164H98.3203V112.976H98.8166V110.164Z" fill="#41B696"/>
<path opacity="0.5" d="M99.9746 111.818V111.322H97.1626V111.818H99.9746Z" fill="#41B696"/>
</g>
<g opacity="0.5">
<path opacity="0.5" d="M4.86342 116.119H4.36719V118.931H4.86342V116.119Z" fill="#41B696"/>
<path opacity="0.5" d="M6.02148 117.773V117.276H3.20949V117.773H6.02148Z" fill="#41B696"/>
</g>
<g opacity="0.5">
<path opacity="0.5" d="M117.84 65.5028H117.344V68.3148H117.84V65.5028Z" fill="#41B696"/>
<path opacity="0.5" d="M118.998 67.1569V66.6607H116.186V67.1569H118.998Z" fill="#41B696"/>
</g>
<path opacity="0.5" d="M131.602 20.3486L132.668 21.3255L134.178 19.105L134.711 19.5491L132.668 22.2137L131.158 20.5262L131.602 20.3486Z" fill="#41B696"/>
<path d="M101.176 39.5782L97.5 39.7208L97.6833 44.4476L101.36 44.305L101.176 39.5782Z" fill="#41B696"/>
<path d="M84.5927 56.1323C84.5927 56.1323 79.5015 53.6998 79.583 55.8006C79.6645 57.9014 84.7149 59.2835 84.7149 59.2835L84.5927 56.1323Z" fill="#FFB9B9"/>
<path d="M87.3861 73.9075C87.3861 73.9075 84.9841 79.7865 84.0967 84.0288C83.2092 88.2711 81.8577 94.1093 83.5962 98.2498C85.3347 102.39 90.2774 114.559 90.3284 115.872C90.3793 117.185 89.905 118.519 90.9554 118.478C92.0058 118.437 97.7218 116.637 97.9539 115.84C98.1859 115.042 96.0037 113.022 96.0037 113.022L90.615 96.1367L96.2373 85.136L100.293 101.547L101.087 122.03C101.087 122.03 104.985 120.827 105.551 121.857C105.551 121.857 107.298 119.422 107.519 118.361C107.741 117.301 106.695 97.0911 106.695 97.0911C106.695 97.0911 110.273 74.072 107.384 74.184C104.496 74.296 93.1814 67.371 87.3861 73.9075Z" fill="#41B696"/>
<path d="M90.9145 117.427C90.9145 117.427 88.25 123.317 87.9976 123.589C87.7452 123.862 86.0088 126.559 87.3218 126.508C88.6348 126.458 91.735 125.022 94.017 122.83C96.2989 120.637 99.3075 116.839 99.0347 116.586C98.7619 116.334 96.8932 115.618 96.8932 115.618L90.9145 117.427Z" fill="#575A89"/>
<path d="M101.56 120.696C101.56 120.696 101.399 123.333 100.915 124.403C100.43 125.474 100.492 127.05 101.804 126.999C103.117 126.948 106.511 126.29 106.511 126.29C106.511 126.29 106.712 124.704 106.44 124.452C106.167 124.2 105.004 121.352 105.499 120.544C105.994 119.735 101.56 120.696 101.56 120.696Z" fill="#575A89"/>
<path d="M103.504 35.1486C103.504 35.1486 106.303 39.5109 107.394 40.5206C108.485 41.5302 105.415 43.7532 105.415 43.7532L99.9213 44.4922C99.9213 44.4922 99.9904 39.4927 99.7074 38.9777C99.4245 38.4627 103.504 35.1486 103.504 35.1486Z" fill="#FFB9B9"/>
<path d="M98.7284 40.8566C98.7284 40.8566 99.8603 42.9167 100.911 42.8759C101.961 42.8352 107.394 40.5206 107.626 39.7226C107.858 38.9246 109.426 45.4386 109.426 45.4386L96.1315 68.8345L92.8887 66.5933L94.4599 52.8568L95.7504 45.443L98.7284 40.8566Z" fill="#41B696"/>
<path d="M108.116 61.795C107.586 62.9043 107.255 64.0612 107.301 65.2455C107.303 65.298 107.305 65.3505 107.31 65.4029C107.435 67.8334 108.331 70.6442 108.652 72.6884C108.885 74.1547 108.819 75.225 107.961 75.4766C105.88 76.0832 108.264 76.5168 100.215 79.1958C92.1661 81.8749 90.7615 79.5624 90.7411 79.0372C90.7208 78.512 91.881 74.5222 91.6082 74.2698C91.3355 74.0174 87.7915 77.5737 86.7207 77.0892C85.65 76.6047 86.5985 73.938 86.5985 73.938C86.5985 73.938 89.0107 68.3217 88.9597 67.0087C88.9088 65.6957 92.6136 59.5032 92.6136 59.5032L95.1334 43.1C95.1334 43.1 96.1023 40.9585 97.4051 40.645C98.7079 40.3314 99.7889 41.0785 99.7889 41.0785L97.6088 45.8969L95.3086 54.4018L95.6934 57.5428C95.6934 57.5428 98.3682 51.9163 100.125 49.7442C101.882 47.5722 105.627 42.4301 105.627 42.4301C105.627 42.4301 106.502 39.4796 105.841 38.5978C105.181 37.7135 108.595 37.5811 110.051 41.2066C110.822 43.128 112.074 45.9934 112.859 48.6613C113.558 51.0248 113.888 53.2343 113.196 54.4972C112.137 56.4265 109.474 58.9625 108.116 61.795Z" fill="#575A89"/>
<path opacity="0.1" d="M113.195 54.4972C112.137 56.4265 109.473 58.9625 108.116 61.795C107.761 60.5174 107.329 59.1956 107.329 59.1956C107.329 59.1956 105.669 50.3182 110.577 48.0239C111.39 47.9453 112.204 48.1725 112.858 48.6613C113.558 51.0248 113.888 53.2343 113.195 54.4972Z" fill="black"/>
<path d="M93.712 53.9377L89.5511 55.151L83.774 55.3751L83.1797 60.395L92.6739 61.0788C92.6739 61.0788 95.0453 54.412 93.712 53.9377Z" fill="#575A89"/>
<path d="M100.498 70.8163C100.498 70.8163 94.9317 71.7398 96.2022 73.4148C97.4727 75.0899 102.404 73.3288 102.404 73.3288L100.498 70.8163Z" fill="#FFB9B9"/>
<path opacity="0.1" d="M107.309 65.4029C107.435 67.8334 108.33 70.6442 108.651 72.6884C106.878 74.3666 105.192 75.8469 104.556 75.8716C103.243 75.9225 101.132 75.7413 100.355 76.0345C99.5772 76.3276 99.1211 71.3485 99.1211 71.3485C99.1211 71.3485 99.5852 69.7525 101.655 68.8833C103.053 68.2952 105.731 66.7002 107.309 65.4029Z" fill="black"/>
<path d="M110.517 46.4483C110.517 46.4483 114.96 45.75 114.72 53.1231C114.48 60.4962 115.189 65.2026 113.402 66.5869C111.614 67.9712 105.809 74.2451 104.496 74.296C103.183 74.3469 101.072 74.1658 100.294 74.4589C99.5166 74.7521 99.0605 69.7729 99.0605 69.7729C99.0605 69.7729 99.5246 68.177 101.595 67.3077C103.665 66.4385 108.542 63.3564 108.502 62.306C108.461 61.2556 107.268 57.62 107.268 57.62C107.268 57.62 105.609 48.7426 110.517 46.4483Z" fill="#575A89"/>
<path d="M99.5842 41.6081C102.777 41.6081 105.366 39.0196 105.366 35.8266C105.366 32.6336 102.777 30.0451 99.5842 30.0451C96.3912 30.0451 93.8027 32.6336 93.8027 35.8266C93.8027 39.0196 96.3912 41.6081 99.5842 41.6081Z" fill="#FFB9B9"/>
<path d="M95.6926 27.54C95.5531 27.6602 95.3862 27.744 95.2065 27.784C95.1163 27.8001 95.0234 27.7798 94.9481 27.7276C94.8728 27.6755 94.8211 27.5956 94.8045 27.5055C94.6722 27.7798 94.523 28.0722 94.2529 28.213C93.9829 28.3537 93.5652 28.2357 93.5263 27.9336C93.4869 28.163 93.3854 28.3772 93.2329 28.5529C93.0654 28.7127 92.7615 28.753 92.6152 28.5736C92.7335 29.2199 92.6605 29.8846 92.6976 30.5406C92.7348 31.1966 92.9097 31.8921 93.4053 32.3235C94.1282 32.9526 95.2151 32.7973 96.1659 32.6782C96.3097 32.648 96.4589 32.6561 96.5985 32.7018C96.9546 32.8535 96.9384 33.3491 96.9432 33.736C96.9723 34.415 97.241 35.0617 97.7016 35.5613C98.1623 36.0609 98.7851 36.381 99.4595 36.4649C99.8369 36.5232 100.222 36.4292 100.53 36.2036C100.8 35.9748 100.938 35.6019 101.247 35.43C101.75 35.1503 102.361 35.5581 102.729 36.0009C103.097 36.4436 103.459 36.9883 104.029 37.0693C104.783 37.1765 105.357 36.4083 105.639 35.701C106.027 34.7096 106.213 33.6505 106.186 32.586C106.159 31.5216 105.919 30.4733 105.48 29.5031C103.906 26.0723 98.5298 25.5296 95.6926 27.54Z" fill="#2F2E41"/>
</g>
<defs>
<linearGradient id="paint0_linear_2377_2755" x1="57.0547" y1="61.1024" x2="83.5996" y2="61.1024" gradientUnits="userSpaceOnUse">
<stop stop-color="#808080" stop-opacity="0.25"/>
<stop offset="0.53514" stop-color="#808080" stop-opacity="0.12"/>
<stop offset="1" stop-color="#808080" stop-opacity="0.1"/>
</linearGradient>
<clipPath id="clip0_2377_2755">
<rect width="142.154" height="127" fill="white"/>
</clipPath>
</defs>
</svg>
