<svg width="143" height="127" viewBox="0 0 143 127" fill="none" xmlns="http://www.w3.org/2000/svg">
<g clip-path="url(#clip0_2374_1696)">
<path d="M71.3578 1.77759L26.7461 29.231C26.7461 29.231 26.7461 85.8535 71.3578 116.739C115.97 85.8535 115.97 29.231 115.97 29.231L71.3578 1.77759Z" fill="#3F3D56"/>
<path opacity="0.04" d="M71.6239 1.77759L70.8613 2.24688V116.203C71.1146 116.382 71.3677 116.561 71.6239 116.739C116.236 85.8535 116.236 29.2309 116.236 29.2309L71.6239 1.77759Z" fill="#41B696"/>
<g opacity="0.7">
<path opacity="0.7" d="M60.5589 57.4088L68.9689 65.118L79.3945 50.0781L83.5995 53.5824L68.9689 72.1264L57.0547 58.8105L60.5589 57.4088Z" fill="url(#paint0_linear_2374_1696)"/>
</g>
<path d="M62.5438 57.8721L69.3658 64.1256L79.0305 49.9128L82.4416 52.7554L69.3658 69.8108L59.7012 59.0091L62.5438 57.8721Z" fill="#41B696"/>
<path opacity="0.5" d="M27.3407 7.93243C27.2039 7.87288 27.0938 7.76511 27.0314 7.62966C26.9689 7.4942 26.9585 7.34051 27.002 7.19784C27.009 7.17597 27.0135 7.15334 27.0152 7.13043C27.0192 7.06507 27.002 7.00016 26.9662 6.94532C26.9304 6.89048 26.8779 6.84863 26.8165 6.82596C26.755 6.8033 26.6879 6.80103 26.6251 6.81948C26.5623 6.83794 26.5071 6.87614 26.4676 6.92843C26.4541 6.94698 26.4428 6.96707 26.4339 6.98828C26.3743 7.12503 26.2666 7.23511 26.1311 7.29756C25.9957 7.36001 25.842 7.37047 25.6993 7.32695C25.6774 7.31991 25.6548 7.31548 25.6319 7.31374C25.5665 7.30976 25.5016 7.32694 25.4468 7.36273C25.3919 7.39853 25.3501 7.45103 25.3274 7.51247C25.3048 7.57391 25.3025 7.64102 25.3209 7.70385C25.3394 7.76668 25.3776 7.8219 25.4299 7.86132C25.4485 7.87488 25.4685 7.8862 25.4897 7.89505C25.6265 7.95461 25.7366 8.06237 25.799 8.19783C25.8615 8.33328 25.8719 8.48697 25.8284 8.62964C25.8214 8.65151 25.8169 8.67414 25.8152 8.69706C25.8112 8.76242 25.8284 8.82733 25.8642 8.88217C25.9 8.93701 25.9525 8.97886 26.0139 9.00152C26.0754 9.02419 26.1425 9.02646 26.2053 9.008C26.2682 8.98955 26.3234 8.95134 26.3628 8.89905C26.3763 8.8805 26.3877 8.86041 26.3965 8.83921C26.4561 8.70245 26.5638 8.59238 26.6993 8.52993C26.8348 8.46748 26.9884 8.45701 27.1311 8.50053C27.153 8.50757 27.1756 8.51201 27.1985 8.51375C27.2639 8.51773 27.3288 8.50054 27.3836 8.46475C27.4385 8.42896 27.4803 8.37645 27.503 8.31501C27.5257 8.25357 27.5279 8.18647 27.5095 8.12363C27.491 8.0608 27.4528 8.00559 27.4005 7.96616C27.382 7.95261 27.3619 7.94128 27.3407 7.93243Z" fill="#4D8AF0"/>
<path opacity="0.5" d="M3.19028 61.6912C3.05353 61.6317 2.94345 61.5239 2.881 61.3884C2.81855 61.253 2.80809 61.0993 2.8516 60.9566C2.85865 60.9348 2.86308 60.9121 2.86482 60.8892C2.8688 60.8239 2.85162 60.7589 2.81582 60.7041C2.78003 60.6493 2.72752 60.6074 2.66608 60.5848C2.60464 60.5621 2.53754 60.5598 2.47471 60.5783C2.41187 60.5967 2.35666 60.6349 2.31724 60.6872C2.30368 60.7058 2.29236 60.7259 2.28351 60.7471C2.22395 60.8838 2.11618 60.9939 1.98073 61.0563C1.84527 61.1188 1.69159 61.1293 1.54892 61.0857C1.52704 61.0787 1.50442 61.0743 1.48151 61.0725C1.41614 61.0685 1.35123 61.0857 1.29639 61.1215C1.24155 61.1573 1.1997 61.2098 1.17704 61.2713C1.15437 61.3327 1.1521 61.3998 1.17056 61.4626C1.18901 61.5255 1.22722 61.5807 1.27951 61.6201C1.29806 61.6337 1.31815 61.645 1.33935 61.6538C1.4761 61.7134 1.58618 61.8212 1.64863 61.9566C1.71108 62.0921 1.72154 62.2458 1.67803 62.3884C1.67099 62.4103 1.66655 62.4329 1.66481 62.4558C1.66083 62.5212 1.67801 62.5861 1.71381 62.6409C1.7496 62.6958 1.80211 62.7376 1.86355 62.7603C1.92499 62.783 1.99209 62.7852 2.05492 62.7668C2.11776 62.7483 2.17297 62.7101 2.2124 62.6578C2.22595 62.6393 2.23728 62.6192 2.24613 62.598C2.30568 62.4612 2.41345 62.3512 2.5489 62.2887C2.68436 62.2263 2.83805 62.2158 2.98072 62.2593C3.00259 62.2664 3.02521 62.2708 3.04813 62.2725C3.11349 62.2765 3.1784 62.2593 3.23324 62.2235C3.28808 62.1877 3.32993 62.1352 3.35259 62.0738C3.37525 62.0124 3.37753 61.9452 3.35907 61.8824C3.34062 61.8196 3.30241 61.7644 3.25012 61.7249C3.23157 61.7114 3.21148 61.7001 3.19028 61.6912Z" fill="#4D8AF0"/>
<path opacity="0.5" d="M123.793 43.0069C124.341 43.0069 124.786 42.5626 124.786 42.0144C124.786 41.4663 124.341 41.022 123.793 41.022C123.245 41.022 122.801 41.4663 122.801 42.0144C122.801 42.5626 123.245 43.0069 123.793 43.0069Z" fill="#F55F44"/>
<path opacity="0.5" d="M20.0804 113.968C20.6285 113.968 21.0728 113.524 21.0728 112.976C21.0728 112.428 20.6285 111.983 20.0804 111.983C19.5322 111.983 19.0879 112.428 19.0879 112.976C19.0879 113.524 19.5322 113.968 20.0804 113.968Z" fill="#F55F44"/>
<path opacity="0.5" d="M140.666 81.2169C141.214 81.2169 141.659 80.7725 141.659 80.2244C141.659 79.6763 141.214 79.2319 140.666 79.2319C140.118 79.2319 139.674 79.6763 139.674 80.2244C139.674 80.7725 140.118 81.2169 140.666 81.2169Z" fill="#F55F44"/>
<path opacity="0.5" d="M116.497 12.7296C116.36 12.67 116.25 12.5622 116.188 12.4268C116.125 12.2913 116.115 12.1376 116.158 11.995C116.165 11.9731 116.17 11.9505 116.171 11.9276C116.175 11.8622 116.158 11.7973 116.122 11.7424C116.087 11.6876 116.034 11.6457 115.973 11.6231C115.911 11.6004 115.844 11.5981 115.781 11.6166C115.718 11.6351 115.663 11.6733 115.624 11.7256C115.61 11.7441 115.599 11.7642 115.59 11.7854C115.531 11.9221 115.423 12.0322 115.287 12.0947C115.152 12.1571 114.998 12.1676 114.856 12.1241C114.834 12.117 114.811 12.1126 114.788 12.1109C114.723 12.1069 114.658 12.1241 114.603 12.1599C114.548 12.1956 114.506 12.2482 114.484 12.3096C114.461 12.371 114.459 12.4381 114.477 12.501C114.496 12.5638 114.534 12.619 114.586 12.6584C114.605 12.672 114.625 12.6833 114.646 12.6922C114.783 12.7517 114.893 12.8595 114.955 12.9949C115.018 13.1304 115.028 13.2841 114.985 13.4268C114.978 13.4486 114.973 13.4713 114.971 13.4942C114.967 13.5595 114.985 13.6245 115.02 13.6793C115.056 13.7341 115.109 13.776 115.17 13.7986C115.232 13.8213 115.299 13.8236 115.362 13.8051C115.424 13.7867 115.48 13.7485 115.519 13.6962C115.533 13.6776 115.544 13.6575 115.553 13.6363C115.612 13.4996 115.72 13.3895 115.856 13.327C115.991 13.2646 116.145 13.2541 116.287 13.2977C116.309 13.3047 116.332 13.3091 116.355 13.3109C116.42 13.3148 116.485 13.2977 116.54 13.2619C116.595 13.2261 116.637 13.1736 116.659 13.1121C116.682 13.0507 116.684 12.9836 116.666 12.9208C116.647 12.8579 116.609 12.8027 116.557 12.7633C116.538 12.7497 116.518 12.7384 116.497 12.7296Z" fill="#4D8AF0"/>
<path opacity="0.5" d="M133.038 116.607C132.901 116.548 132.791 116.44 132.729 116.305C132.666 116.169 132.656 116.016 132.699 115.873C132.706 115.851 132.711 115.828 132.712 115.805C132.716 115.74 132.699 115.675 132.663 115.62C132.628 115.566 132.575 115.524 132.514 115.501C132.452 115.478 132.385 115.476 132.322 115.495C132.26 115.513 132.204 115.551 132.165 115.603C132.151 115.622 132.14 115.642 132.131 115.663C132.072 115.8 131.964 115.91 131.828 115.973C131.693 116.035 131.539 116.046 131.397 116.002C131.375 115.995 131.352 115.991 131.329 115.989C131.264 115.985 131.199 116.002 131.144 116.038C131.089 116.074 131.047 116.126 131.025 116.188C131.002 116.249 131 116.316 131.018 116.379C131.037 116.442 131.075 116.497 131.127 116.536C131.146 116.55 131.166 116.561 131.187 116.57C131.324 116.63 131.434 116.737 131.496 116.873C131.559 117.008 131.569 117.162 131.526 117.305C131.519 117.327 131.514 117.349 131.512 117.372C131.508 117.437 131.526 117.502 131.561 117.557C131.597 117.612 131.65 117.654 131.711 117.677C131.773 117.699 131.84 117.702 131.903 117.683C131.965 117.665 132.021 117.626 132.06 117.574C132.074 117.556 132.085 117.535 132.094 117.514C132.153 117.378 132.261 117.267 132.397 117.205C132.532 117.143 132.686 117.132 132.828 117.176C132.85 117.183 132.873 117.187 132.896 117.189C132.961 117.193 133.026 117.176 133.081 117.14C133.136 117.104 133.178 117.052 133.2 116.99C133.223 116.929 133.225 116.862 133.207 116.799C133.188 116.736 133.15 116.681 133.098 116.641C133.079 116.628 133.059 116.616 133.038 116.607Z" fill="#4D8AF0"/>
<path opacity="0.5" d="M2.03208 30.263C1.89532 30.2034 1.78525 30.0957 1.7228 29.9602C1.66035 29.8248 1.64988 29.6711 1.6934 29.5284C1.70044 29.5065 1.70488 29.4839 1.70662 29.461C1.7106 29.3956 1.69342 29.3307 1.65762 29.2759C1.62183 29.221 1.56932 29.1792 1.50788 29.1565C1.44644 29.1339 1.37934 29.1316 1.3165 29.15C1.25367 29.1685 1.19846 29.2067 1.15903 29.259C1.14548 29.2776 1.13416 29.2976 1.12531 29.3188C1.06575 29.4556 0.957982 29.5657 0.822527 29.6281C0.687072 29.6906 0.533382 29.701 0.390713 29.6575C0.36884 29.6505 0.346215 29.646 0.323303 29.6443C0.257937 29.6403 0.193027 29.6575 0.138189 29.6933C0.083351 29.7291 0.0414999 29.7816 0.0188355 29.843C-0.00382889 29.9045 -0.00610177 29.9716 0.0123539 30.0344C0.0308097 30.0973 0.069013 30.1525 0.121304 30.1919C0.139856 30.2055 0.159944 30.2168 0.18115 30.2256C0.317901 30.2852 0.42798 30.3929 0.49043 30.5284C0.55288 30.6639 0.563341 30.8175 0.519824 30.9602C0.512783 30.9821 0.508347 31.0047 0.506609 31.0276C0.502629 31.093 0.519809 31.1579 0.555604 31.2127C0.591399 31.2676 0.643904 31.3094 0.705344 31.3321C0.766783 31.3548 0.833889 31.357 0.896722 31.3386C0.959554 31.3201 1.01477 31.2819 1.05419 31.2296C1.06775 31.2111 1.07907 31.191 1.08792 31.1698C1.14748 31.033 1.25524 30.9229 1.3907 30.8605C1.52615 30.798 1.67984 30.7876 1.82251 30.8311C1.84439 30.8381 1.86701 30.8426 1.88992 30.8443C1.95529 30.8483 2.0202 30.8311 2.07504 30.7953C2.12987 30.7595 2.17172 30.707 2.19439 30.6456C2.21705 30.5841 2.21932 30.517 2.20087 30.4542C2.18241 30.3914 2.14421 30.3362 2.09192 30.2967C2.07337 30.2832 2.05328 30.2719 2.03208 30.263Z" fill="#4D8AF0"/>
<path opacity="0.5" d="M13.1331 47.9693C13.6812 47.9693 14.1256 47.525 14.1256 46.9768C14.1256 46.4287 13.6812 45.9844 13.1331 45.9844C12.585 45.9844 12.1406 46.4287 12.1406 46.9768C12.1406 47.525 12.585 47.9693 13.1331 47.9693Z" fill="#41B696"/>
<path opacity="0.5" d="M141.162 55.909C141.711 55.909 142.155 55.4647 142.155 54.9165C142.155 54.3684 141.711 53.9241 141.162 53.9241C140.614 53.9241 140.17 54.3684 140.17 54.9165C140.17 55.4647 140.614 55.909 141.162 55.909Z" fill="#41B696"/>
<g opacity="0.5">
<path opacity="0.5" d="M96.9982 0H96.502V2.81199H96.9982V0Z" fill="#41B696"/>
<path opacity="0.5" d="M98.1562 1.65419V1.15796L95.3443 1.15796V1.65419L98.1562 1.65419Z" fill="#41B696"/>
</g>
<g opacity="0.5">
<path opacity="0.5" d="M98.8166 110.164H98.3203V112.976H98.8166V110.164Z" fill="#41B696"/>
<path opacity="0.5" d="M99.9746 111.818V111.322H97.1626V111.818H99.9746Z" fill="#41B696"/>
</g>
<g opacity="0.5">
<path opacity="0.5" d="M4.86342 116.119H4.36719V118.931H4.86342V116.119Z" fill="#41B696"/>
<path opacity="0.5" d="M6.02148 117.773V117.277H3.20949V117.773H6.02148Z" fill="#41B696"/>
</g>
<g opacity="0.5">
<path opacity="0.5" d="M117.84 65.5027H117.344V68.3147H117.84V65.5027Z" fill="#41B696"/>
<path opacity="0.5" d="M118.998 67.1569V66.6606H116.186V67.1569H118.998Z" fill="#41B696"/>
</g>
<path opacity="0.5" d="M131.602 20.3485L132.668 21.3255L134.178 19.105L134.711 19.5491L132.668 22.2137L131.158 20.5262L131.602 20.3485Z" fill="#41B696"/>
<path d="M101.176 39.5781L97.5 39.7207L97.6833 44.4475L101.36 44.3049L101.176 39.5781Z" fill="#41B696"/>
<path d="M84.5927 56.1323C84.5927 56.1323 79.5015 53.6998 79.583 55.8006C79.6645 57.9014 84.7149 59.2835 84.7149 59.2835L84.5927 56.1323Z" fill="#FFB9B9"/>
<path d="M87.3861 73.9076C87.3861 73.9076 84.9841 79.7866 84.0967 84.0289C83.2092 88.2712 81.8577 94.1094 83.5962 98.2499C85.3347 102.39 90.2774 114.559 90.3284 115.872C90.3793 117.185 89.905 118.519 90.9554 118.478C92.0058 118.437 97.7218 116.638 97.9539 115.84C98.1859 115.042 96.0037 113.022 96.0037 113.022L90.615 96.1368L96.2373 85.1361L100.293 101.547L101.087 122.03C101.087 122.03 104.985 120.827 105.551 121.857C105.551 121.857 107.298 119.422 107.519 118.362C107.741 117.301 106.695 97.0912 106.695 97.0912C106.695 97.0912 110.273 74.0721 107.384 74.1841C104.496 74.2961 93.1814 67.3711 87.3861 73.9076Z" fill="#41B696"/>
<path d="M90.9145 117.427C90.9145 117.427 88.25 123.317 87.9976 123.589C87.7452 123.862 86.0088 126.559 87.3218 126.509C88.6348 126.458 91.735 125.022 94.017 122.83C96.2989 120.638 99.3075 116.839 99.0347 116.587C98.7619 116.334 96.8932 115.618 96.8932 115.618L90.9145 117.427Z" fill="#575A89"/>
<path d="M101.56 120.696C101.56 120.696 101.399 123.333 100.915 124.403C100.43 125.474 100.492 127.05 101.804 126.999C103.117 126.948 106.511 126.29 106.511 126.29C106.511 126.29 106.712 124.704 106.44 124.452C106.167 124.2 105.004 121.352 105.499 120.544C105.994 119.736 101.56 120.696 101.56 120.696Z" fill="#575A89"/>
<path d="M103.504 35.1487C103.504 35.1487 106.303 39.511 107.394 40.5207C108.485 41.5303 105.415 43.7533 105.415 43.7533L99.9213 44.4923C99.9213 44.4923 99.9904 39.4928 99.7074 38.9778C99.4245 38.4628 103.504 35.1487 103.504 35.1487Z" fill="#FFB9B9"/>
<path d="M98.7284 40.8566C98.7284 40.8566 99.8603 42.9166 100.911 42.8759C101.961 42.8351 107.394 40.5205 107.626 39.7225C107.858 38.9246 109.426 45.4386 109.426 45.4386L96.1315 68.8345L92.8887 66.5933L94.4599 52.8567L95.7504 45.4429L98.7284 40.8566Z" fill="#41B696"/>
<path d="M108.116 61.795C107.586 62.9043 107.255 64.0612 107.301 65.2455C107.303 65.298 107.305 65.3505 107.31 65.4029C107.435 67.8334 108.331 70.6442 108.652 72.6884C108.885 74.1547 108.819 75.225 107.961 75.4766C105.88 76.0832 108.264 76.5168 100.215 79.1958C92.1661 81.8749 90.7615 79.5624 90.7411 79.0372C90.7208 78.512 91.881 74.5222 91.6082 74.2698C91.3355 74.0174 87.7915 77.5737 86.7207 77.0892C85.65 76.6047 86.5985 73.938 86.5985 73.938C86.5985 73.938 89.0107 68.3217 88.9597 67.0087C88.9088 65.6957 92.6136 59.5032 92.6136 59.5032L95.1334 43.1C95.1334 43.1 96.1023 40.9585 97.4051 40.645C98.7079 40.3314 99.7889 41.0785 99.7889 41.0785L97.6088 45.8969L95.3086 54.4018L95.6934 57.5428C95.6934 57.5428 98.3682 51.9163 100.125 49.7442C101.882 47.5722 105.627 42.4301 105.627 42.4301C105.627 42.4301 106.502 39.4796 105.841 38.5978C105.181 37.7135 108.595 37.5811 110.051 41.2066C110.822 43.128 112.074 45.9934 112.859 48.6613C113.558 51.0248 113.888 53.2343 113.196 54.4972C112.137 56.4265 109.474 58.9625 108.116 61.795Z" fill="#575A89"/>
<path opacity="0.1" d="M113.195 54.4971C112.137 56.4264 109.473 58.9624 108.116 61.7948C107.761 60.5173 107.329 59.1955 107.329 59.1955C107.329 59.1955 105.669 50.3181 110.577 48.0238C111.39 47.9452 112.204 48.1724 112.858 48.6612C113.558 51.0247 113.888 53.2342 113.195 54.4971Z" fill="black"/>
<path d="M93.712 53.9377L89.5511 55.1511L83.774 55.3751L83.1797 60.395L92.6739 61.0788C92.6739 61.0788 95.0453 54.412 93.712 53.9377Z" fill="#575A89"/>
<path d="M100.498 70.8162C100.498 70.8162 94.9317 71.7397 96.2022 73.4147C97.4727 75.0898 102.404 73.3288 102.404 73.3288L100.498 70.8162Z" fill="#FFB9B9"/>
<path opacity="0.1" d="M107.309 65.4028C107.435 67.8333 108.33 70.6441 108.651 72.6883C106.878 74.3665 105.192 75.8468 104.556 75.8715C103.243 75.9224 101.132 75.7413 100.355 76.0344C99.5772 76.3276 99.1211 71.3484 99.1211 71.3484C99.1211 71.3484 99.5852 69.7524 101.655 68.8832C103.053 68.2951 105.731 66.7001 107.309 65.4028Z" fill="black"/>
<path d="M110.517 46.4484C110.517 46.4484 114.96 45.7501 114.72 53.1232C114.48 60.4963 115.189 65.2027 113.402 66.5869C111.614 67.9712 105.809 74.2451 104.496 74.2961C103.183 74.347 101.072 74.1658 100.294 74.459C99.5166 74.7521 99.0605 69.773 99.0605 69.773C99.0605 69.773 99.5246 68.177 101.595 67.3078C103.665 66.4385 108.542 63.3564 108.502 62.3061C108.461 61.2557 107.268 57.62 107.268 57.62C107.268 57.62 105.609 48.7426 110.517 46.4484Z" fill="#575A89"/>
<path d="M99.5842 41.6081C102.777 41.6081 105.366 39.0197 105.366 35.8267C105.366 32.6336 102.777 30.0452 99.5842 30.0452C96.3912 30.0452 93.8027 32.6336 93.8027 35.8267C93.8027 39.0197 96.3912 41.6081 99.5842 41.6081Z" fill="#FFB9B9"/>
<path d="M95.6926 27.5399C95.5531 27.6601 95.3862 27.7439 95.2065 27.7839C95.1163 27.8 95.0234 27.7797 94.9481 27.7275C94.8728 27.6754 94.8211 27.5955 94.8045 27.5054C94.6722 27.7797 94.523 28.0721 94.2529 28.2129C93.9829 28.3536 93.5652 28.2356 93.5263 27.9335C93.4869 28.1629 93.3854 28.3771 93.2329 28.5528C93.0654 28.7126 92.7615 28.7529 92.6152 28.5735C92.7335 29.2198 92.6605 29.8845 92.6976 30.5405C92.7348 31.1965 92.9097 31.892 93.4053 32.3234C94.1282 32.9525 95.2151 32.7972 96.1659 32.678C96.3097 32.6479 96.4589 32.656 96.5985 32.7017C96.9546 32.8534 96.9384 33.349 96.9432 33.7359C96.9723 34.4149 97.241 35.0616 97.7016 35.5612C98.1623 36.0607 98.7851 36.3809 99.4595 36.4648C99.8369 36.5231 100.222 36.4291 100.53 36.2035C100.8 35.9747 100.938 35.6017 101.247 35.4298C101.75 35.1502 102.361 35.558 102.729 36.0008C103.097 36.4435 103.459 36.9882 104.029 37.0692C104.783 37.1764 105.357 36.4082 105.639 35.7009C106.027 34.7095 106.213 33.6504 106.186 32.5859C106.159 31.5214 105.919 30.4732 105.48 29.503C103.906 26.0722 98.5298 25.5295 95.6926 27.5399Z" fill="#2F2E41"/>
</g>
<defs>
<linearGradient id="paint0_linear_2374_1696" x1="57.0547" y1="61.1023" x2="83.5996" y2="61.1023" gradientUnits="userSpaceOnUse">
<stop stop-color="#808080" stop-opacity="0.25"/>
<stop offset="0.53514" stop-color="#808080" stop-opacity="0.12"/>
<stop offset="1" stop-color="#808080" stop-opacity="0.1"/>
</linearGradient>
<clipPath id="clip0_2374_1696">
<rect width="142.154" height="127" fill="white"/>
</clipPath>
</defs>
</svg>
