<svg width="187" height="130" viewBox="0 0 187 130" fill="none" xmlns="http://www.w3.org/2000/svg">
<path d="M186.815 112.204C186.815 110.029 167.28 108.266 143.183 108.266C121.692 108.266 103.846 109.668 100.232 111.513H97.7841C56.3366 111.513 22.7383 115.559 22.7383 120.549C22.7383 125.539 56.3366 129.581 97.7841 129.581C139.232 129.581 172.83 125.529 172.83 120.555C172.83 118.805 168.693 117.184 161.538 115.788C176.471 115.161 186.815 113.785 186.815 112.204Z" fill="#92E3A9"/>
<path opacity="0.4" d="M186.815 112.204C186.815 110.029 167.28 108.266 143.183 108.266C121.692 108.266 103.846 109.668 100.232 111.513H97.7841C56.3366 111.513 22.7383 115.559 22.7383 120.549C22.7383 125.539 56.3366 129.581 97.7841 129.581C139.232 129.581 172.83 125.529 172.83 120.555C172.83 118.805 168.693 117.184 161.538 115.788C176.471 115.161 186.815 113.785 186.815 112.204Z" fill="white"/>
<path d="M7.39492 76.8555C14.4281 87.4796 28.5755 90.5039 28.5755 90.5039C28.5755 90.5039 31.2728 76.3092 24.2261 65.6851C17.1794 55.0611 3.0354 52.04 3.0354 52.04C3.0354 52.04 0.344841 66.2314 7.39492 76.8555Z" fill="#92E3A9"/>
<path opacity="0.4" d="M7.39492 76.8555C14.4281 87.4796 28.5755 90.5039 28.5755 90.5039C28.5755 90.5039 31.2728 76.3092 24.2261 65.6851C17.1794 55.0611 3.0354 52.04 3.0354 52.04C3.0354 52.04 0.344841 66.2314 7.39492 76.8555Z" fill="white"/>
<path d="M28.5774 90.5034L3.05078 52.0361" stroke="white" stroke-width="0.113742" stroke-linecap="round" stroke-linejoin="round"/>
<path d="M12.1228 65.7047L4.68164 64.7202" stroke="white" stroke-width="0.113742" stroke-linecap="round" stroke-linejoin="round"/>
<path d="M16.4121 72.0139L16.638 59.6938" stroke="white" stroke-width="0.113742" stroke-linecap="round" stroke-linejoin="round"/>
<path d="M18.7717 75.7291L7.69922 74.1377" stroke="white" stroke-width="0.113742" stroke-linecap="round" stroke-linejoin="round"/>
<path d="M22.123 80.6143L24.9316 69.916" stroke="white" stroke-width="0.113742" stroke-linecap="round" stroke-linejoin="round"/>
<path d="M24.9516 84.8763L16.7383 84.1885" stroke="white" stroke-width="0.113742" stroke-linecap="round" stroke-linejoin="round"/>
<path d="M12.4366 97.1055C19.5811 99.0004 26.8672 94.8802 26.8672 94.8802C26.8672 94.8802 22.5784 87.6817 15.434 85.7768C8.28947 83.8718 1 87.9987 1 87.9987C1 87.9987 5.29209 95.2107 12.4366 97.1055Z" fill="#92E3A9"/>
<path opacity="0.4" d="M12.4366 97.1055C19.5811 99.0004 26.8672 94.8802 26.8672 94.8802C26.8672 94.8802 22.5784 87.6817 15.434 85.7768C8.28947 83.8718 1 87.9987 1 87.9987C1 87.9987 5.29209 95.2107 12.4366 97.1055Z" fill="white"/>
<path d="M26.8764 94.8797L1.00586 88.0083" stroke="white" stroke-width="0.113742" stroke-linecap="round" stroke-linejoin="round"/>
<path d="M10.2028 90.4531L6.5918 92.8841" stroke="white" stroke-width="0.113742" stroke-linecap="round" stroke-linejoin="round"/>
<path d="M14.4865 91.5353L9.84375 86.1035" stroke="white" stroke-width="0.113742" stroke-linecap="round" stroke-linejoin="round"/>
<path d="M16.9377 92.2402L11.5195 95.8142" stroke="white" stroke-width="0.113742" stroke-linecap="round" stroke-linejoin="round"/>
<path d="M20.2726 93.0694L17.373 87.3477" stroke="white" stroke-width="0.113742" stroke-linecap="round" stroke-linejoin="round"/>
<path d="M23.1393 93.8345L19.3125 96.6936" stroke="white" stroke-width="0.113742" stroke-linecap="round" stroke-linejoin="round"/>
<path d="M29.4643 76.2416C28.1157 83.5109 32.7618 90.4733 32.7618 90.4733C32.7618 90.4733 39.6264 85.6788 40.9717 78.3792C42.317 71.0795 37.6742 64.144 37.6742 64.144C37.6742 64.144 30.8366 68.9689 29.4643 76.2416Z" fill="#92E3A9"/>
<path opacity="0.4" d="M29.4643 76.2416C28.1157 83.5109 32.7618 90.4733 32.7618 90.4733C32.7618 90.4733 39.6264 85.6788 40.9717 78.3792C42.317 71.0795 37.6742 64.144 37.6742 64.144C37.6742 64.144 30.8366 68.9689 29.4643 76.2416Z" fill="white"/>
<path d="M32.7754 90.4735L37.6879 64.1577" stroke="white" stroke-width="0.113742" stroke-linecap="round" stroke-linejoin="round"/>
<path d="M35.9439 73.5141L33.25 70.0986" stroke="white" stroke-width="0.113742" stroke-linecap="round" stroke-linejoin="round"/>
<path d="M35.1836 77.8703L40.2512 72.8364" stroke="white" stroke-width="0.113742" stroke-linecap="round" stroke-linejoin="round"/>
<path d="M34.6604 80.3684L30.6953 75.2334" stroke="white" stroke-width="0.113742" stroke-linecap="round" stroke-linejoin="round"/>
<path d="M34.082 83.7538L39.571 80.4395" stroke="white" stroke-width="0.113742" stroke-linecap="round" stroke-linejoin="round"/>
<path d="M33.5374 86.6668L30.3984 83.0659" stroke="white" stroke-width="0.113742" stroke-linecap="round" stroke-linejoin="round"/>
<path d="M120.016 84.6806L52.523 72.3403C51.5588 72.1615 50.7047 71.6082 50.1474 70.8013C49.5901 69.9945 49.375 68.9997 49.5493 68.0347L56.5791 29.5978C56.7578 28.6336 57.3112 27.7794 58.118 27.2221C58.9249 26.6648 59.9197 26.4497 60.8847 26.624L128.378 38.971C129.342 39.1497 130.196 39.703 130.754 40.5099C131.311 41.3168 131.526 42.3116 131.352 43.2766L124.322 81.7135C124.142 82.6765 123.588 83.529 122.781 84.0849C121.974 84.6408 120.98 84.8549 120.016 84.6806Z" fill="#E4B533" stroke="#E4B533" stroke-width="0.126607" stroke-linecap="round" stroke-linejoin="round"/>
<path d="M118.947 37.2515C114.132 39.9151 108.495 42.1269 102.601 42.4944C86.4343 43.5059 79.5663 36.2096 61.5651 38.5361C59.2366 38.8366 56.9347 39.3168 54.6803 39.9724L51.666 56.4463C56.5578 52.767 62.1974 50.2061 68.187 48.9444C84.0809 45.6132 90.7466 51.5102 105.106 49.4569C113.623 48.2397 121.24 42.781 126.027 38.5428L118.947 37.2515Z" fill="#92E3A9" stroke="#E4B533" stroke-width="0.126607" stroke-linecap="round" stroke-linejoin="round"/>
<path d="M55.4902 35.5659C56.1241 35.4041 56.7681 35.2288 57.4289 35.1074C73.3262 31.7728 79.9919 37.6698 94.3483 35.6199C96.5333 35.2988 98.6754 34.7333 100.734 33.934L61.2861 26.7187C60.2112 26.522 59.1023 26.7603 58.2031 27.3812C57.304 28.0022 56.6884 28.9548 56.4916 30.0297L55.4902 35.5659Z" fill="#92E3A9" stroke="#92E3A9" stroke-width="0.126607" stroke-linecap="round" stroke-linejoin="round"/>
<path d="M68.5874 39.5554L63.334 38.594C62.5757 38.4553 61.8484 38.9575 61.7097 39.7158L60.7975 44.7007C60.6587 45.459 61.161 46.1862 61.9193 46.325L67.1727 47.2863C67.931 47.4251 68.6583 46.9229 68.797 46.1645L69.7092 41.1797C69.848 40.4214 69.3457 39.6942 68.5874 39.5554Z" fill="white" stroke="#E4B533" stroke-width="0.126607" stroke-linecap="round" stroke-linejoin="round"/>
<path d="M66.036 41.8523L64.9018 41.6447C64.5299 41.5766 64.1734 41.8229 64.1053 42.1948L63.9129 43.2461C63.8449 43.6179 64.0912 43.9745 64.463 44.0426L65.5972 44.2501C65.9691 44.3182 66.3257 44.0719 66.3937 43.7001L66.5861 42.6487C66.6541 42.2769 66.4079 41.9203 66.036 41.8523Z" fill="white" stroke="#E4B533" stroke-width="0.126607" stroke-linecap="round" stroke-linejoin="round"/>
<path d="M61.8027 39.207L64.1629 39.6386C64.2716 39.6581 64.3753 39.6989 64.4682 39.7587C64.561 39.8185 64.6411 39.896 64.7038 39.987C64.7665 40.0779 64.8106 40.1803 64.8335 40.2883C64.8564 40.3964 64.8576 40.5079 64.8372 40.6164L64.6619 41.5908" stroke="#E4B533" stroke-width="0.126607" stroke-linecap="round" stroke-linejoin="round"/>
<path d="M69.8029 40.6702L67.4865 40.2487C67.3781 40.2288 67.2667 40.2304 67.1588 40.2535C67.051 40.2765 66.9487 40.3207 66.8579 40.3833C66.7671 40.4459 66.6896 40.5258 66.6296 40.6184C66.5697 40.7111 66.5287 40.8146 66.5088 40.9231L66.3301 41.8975" stroke="#E4B533" stroke-width="0.126607" stroke-linecap="round" stroke-linejoin="round"/>
<path d="M60.6934 45.2723L63.0366 45.7039C63.2556 45.7433 63.4813 45.6945 63.6645 45.5682C63.8476 45.4419 63.9734 45.2483 64.0144 45.0296L64.1931 44.0552" stroke="#E4B533" stroke-width="0.126607" stroke-linecap="round" stroke-linejoin="round"/>
<path d="M68.6881 46.7392L66.3752 46.3144C66.1565 46.2734 65.9628 46.1476 65.8365 45.9645C65.7102 45.7813 65.6614 45.5556 65.7008 45.3366L65.8762 44.3555" stroke="#E4B533" stroke-width="0.126607" stroke-linecap="round" stroke-linejoin="round"/>
<path d="M61.2344 42.3965L63.9789 42.8989" stroke="#E4B533" stroke-width="0.126607" stroke-linecap="round" stroke-linejoin="round"/>
<path d="M66.3906 43.3403L69.1351 43.8427" stroke="#E4B533" stroke-width="0.126607" stroke-linecap="round" stroke-linejoin="round"/>
<path d="M113.918 79.6233C114.911 79.8048 115.935 79.5846 116.765 79.0111C117.595 78.4376 118.163 77.5577 118.345 76.5652C118.526 75.5726 118.306 74.5485 117.733 73.7183C117.159 72.8881 116.279 72.3197 115.287 72.1382L110.206 71.2076C109.213 71.0261 108.189 71.2463 107.359 71.8198C106.529 72.3933 105.96 73.2731 105.779 74.2657C105.597 75.2583 105.818 76.2823 106.391 77.1125C106.965 77.9428 107.844 78.5111 108.837 78.6927L113.918 79.6233Z" fill="white"/>
<path d="M23.4288 83.8035C23.4288 83.8035 18.8468 89.0667 19.72 96.3562C20.5933 103.646 28.3278 107.459 28.3278 107.459L37.7953 88.9318C37.7953 88.9318 33.0211 84.2115 36.3793 78.2268C36.3826 78.2099 28.4559 79.1978 23.4288 83.8035Z" fill="white" stroke="#263238" stroke-width="0.126607" stroke-linecap="round" stroke-linejoin="round"/>
<g style="mix-blend-mode:multiply" opacity="0.5">
<path d="M23.4288 83.8035C23.4288 83.8035 18.8468 89.0667 19.72 96.3562C20.5933 103.646 28.3278 107.459 28.3278 107.459L37.7953 88.9318C37.7953 88.9318 33.0211 84.2115 36.3793 78.2268C36.3826 78.2099 28.4559 79.1978 23.4288 83.8035Z" fill="#92E3A9"/>
</g>
<path d="M64.2991 70.1047C64.2991 70.1047 58.3448 70.2868 56.3454 71.2545C54.346 72.2221 41.4158 81.4268 34.0151 92.1588C31.5032 95.8001 30.5895 97.8164 30.2557 98.7942C30.0361 99.4386 29.7829 100.071 29.4971 100.689C28.6744 102.476 27.3089 106.155 27.8113 109.978C28.5193 115.329 31.6448 120.548 43.6579 122.767C55.671 124.985 60.2329 116.023 60.5329 112.2C60.5329 112.2 89.7448 114.307 107.884 116.361C126.024 118.414 132.052 117.274 138.124 119.671C144.197 122.069 145.684 123.63 148.239 123.67C150.795 123.711 158.189 115.454 158.374 113.06C158.56 110.666 156.095 107.264 155.31 107.041C154.524 106.819 145.023 92.7589 145.023 92.7589C145.023 92.7589 144.594 89.9975 140.434 87.7486C136.273 85.4997 115.575 79.2352 104.26 76.1097C92.9444 72.9841 70.0814 70.0744 64.2991 70.1047Z" fill="white" stroke="#263238" stroke-width="0.126607" stroke-linecap="round" stroke-linejoin="round"/>
<g style="mix-blend-mode:multiply" opacity="0.5">
<path d="M157.253 109.243C154.715 107.959 152.046 106.952 149.292 106.242L115.047 96.859L69.9073 88.9996C69.9073 88.9996 51.1441 85.9652 42.7757 90.0111C36.8214 92.8973 30.7424 102.324 27.7282 107.527C27.6821 108.342 27.7114 109.159 27.8158 109.968C28.5239 115.319 31.6494 120.538 43.6625 122.757C55.6756 124.975 60.2374 116.013 60.5375 112.19C60.5375 112.19 89.7493 114.297 107.889 116.351C126.028 118.404 132.057 117.264 138.129 119.662C144.201 122.059 145.688 123.62 148.244 123.66C150.799 123.701 158.193 115.444 158.379 113.05C158.494 111.859 157.927 110.416 157.253 109.243Z" fill="#92E3A9"/>
</g>
<path d="M30.4785 102.634C30.4785 102.634 39.0863 88.8611 47.6738 87.917C56.2614 86.9729 83.548 91.0257 83.548 91.0257" stroke="#263238" stroke-width="0.126607" stroke-linecap="round" stroke-linejoin="round"/>
<path d="M86.3906 91.5586C86.3906 91.5586 103.218 93.9896 125.259 99.5562C147.299 105.123 156.207 108.221 157.411 109.277" stroke="#263238" stroke-width="0.126607" stroke-linecap="round" stroke-linejoin="round"/>
<path d="M102.809 79.6099C102.809 79.6099 138.818 88.9494 141.093 89.8799C142.43 90.4124 143.605 91.2839 144.502 92.4087" fill="white"/>
<path d="M102.809 79.6099C102.809 79.6099 138.818 88.9494 141.093 89.8799C142.43 90.4124 143.605 91.2839 144.502 92.4087" stroke="#263238" stroke-width="0.126607" stroke-linecap="round" stroke-linejoin="round"/>
<path d="M57.7301 72.0029L48.502 85.412C48.502 85.412 61.5266 85.1389 95.9273 90.7022L96.723 78.4091C96.723 78.4091 80.1043 73.2673 73.243 72.7346C66.3817 72.2019 57.7301 72.0029 57.7301 72.0029Z" fill="#263238" stroke="#263238" stroke-width="0.126607" stroke-linecap="round" stroke-linejoin="round"/>
<path d="M48.6602 85.412C49.3648 85.412 52.4465 85.412 58.5188 85.9076L52.1127 80.1758L51.6913 80.7861L48.6602 85.412Z" fill="white" stroke="#263238" stroke-width="0.126607" stroke-linecap="round" stroke-linejoin="round"/>
<path d="M57.7312 72.0029L55.9746 74.5553L71.2346 87.1923C75.1221 87.6542 79.5659 88.2341 84.6065 88.9657C86.3935 89.168 88.2512 89.3861 90.1798 89.6199L69.1139 72.4547C63.345 72.1277 57.7312 72.0029 57.7312 72.0029Z" fill="white" stroke="#263238" stroke-width="0.126607" stroke-linecap="round" stroke-linejoin="round"/>
<path d="M97.3382 80.9883L97.2168 88.2508C99.0105 88.1564 101.812 88.2171 103.832 89.2623C104.021 86.7768 103.643 84.2808 102.726 81.9627L97.3382 80.9883Z" fill="white" stroke="#263238" stroke-width="0.126607" stroke-miterlimit="10"/>
<path d="M102.388 81.187C102.004 80.3832 101.545 79.6168 101.019 78.8977L97.3847 78.1323L97.3477 80.4116L102.388 81.187Z" fill="white" stroke="#263238" stroke-width="0.126607" stroke-miterlimit="10"/>
<path d="M97.1997 89.2556L97.166 91.2786L103.353 92.2328C103.549 91.5067 103.686 90.7659 103.761 90.0176C102.631 89.5354 100.534 88.9521 97.1997 89.2556Z" fill="white" stroke="#263238" stroke-width="0.126607" stroke-miterlimit="10"/>
<path d="M111.292 81.6091C111.292 81.6091 107.836 80.7561 107.246 80.7932C106.656 80.8303 106.494 81.8249 106.494 81.8249L107.732 84.2693C107.732 84.2693 107.533 84.6739 109.333 85.2336C111.134 85.7933 112.705 85.908 112.907 85.6787C113.109 85.4494 113.059 84.7683 113.19 84.1918C113.322 83.6152 112.125 81.6765 111.292 81.6091Z" fill="white" stroke="#263238" stroke-width="0.126607" stroke-linecap="round" stroke-linejoin="round"/>
<path d="M113.562 85.8978C113.562 85.8978 110.123 84.7919 109.533 84.829C108.942 84.8661 108.346 86.0799 108.346 86.0799C108.346 86.0799 108.781 89.1313 109.172 89.4988C109.563 89.8663 113.353 90.7429 113.936 90.7901C114.519 90.8373 114.745 90.0989 114.802 89.3471C114.86 88.5952 114.216 86.1136 113.562 85.8978Z" fill="white" stroke="#263238" stroke-width="0.126607" stroke-linecap="round" stroke-linejoin="round"/>
<path d="M114.867 90.6955C114.867 90.6955 110.511 89.5188 110.096 89.4851C109.681 89.4514 109.085 90.5809 109.152 90.8338C109.219 91.0867 109.125 93.349 109.125 93.349L115.895 94.6977L115.383 91.5587C115.383 91.5587 115.396 91.407 114.867 90.6955Z" fill="white" stroke="#263238" stroke-width="0.126607" stroke-linecap="round" stroke-linejoin="round"/>
<path d="M114.576 82.5363L114.094 83.4197L115.56 86.1339C115.56 86.1339 115.604 86.643 117.003 87.0004C118.403 87.3578 120.958 87.8972 120.958 87.8972C120.958 87.8972 121.69 87.115 121.548 86.7677C121.407 86.4204 119.863 83.8681 119.205 83.4837C118.548 83.0994 114.768 82.1182 114.576 82.5363Z" fill="white" stroke="#263238" stroke-width="0.126607" stroke-linecap="round" stroke-linejoin="round"/>
<path d="M116.998 87.0001C116.776 87.3532 116.605 87.7357 116.489 88.1363C116.466 88.4735 116.924 91.191 117.629 91.8451C118.333 92.4992 122.406 92.9713 122.99 93.0151C123.573 93.0589 123.728 92.1519 123.779 91.4844C123.829 90.8168 122.922 88.4802 122.282 88.0958C121.641 87.7115 117.936 86.8382 117.936 86.8382C117.936 86.8382 117.288 86.5213 116.998 87.0001Z" fill="white" stroke="#263238" stroke-width="0.126607" stroke-linecap="round" stroke-linejoin="round"/>
<path d="M124.107 93.0623C123.983 92.9586 123.842 92.8786 123.689 92.8263C122.755 92.5059 119.255 91.3427 118.652 91.6597C117.95 92.0238 117.714 92.9274 117.738 93.6826C117.766 94.2233 117.836 94.7611 117.947 95.2909L125.176 97.2903L124.549 93.8378C124.495 93.5347 124.336 93.2603 124.1 93.0623H124.107Z" fill="white" stroke="#263238" stroke-width="0.126607" stroke-linecap="round" stroke-linejoin="round"/>
<path d="M122.059 84.4575L121.867 85.8702C121.867 85.8702 122.629 87.9404 123.442 88.2574C124.254 88.5743 128.047 89.4543 128.297 89.4712C128.546 89.488 129.116 88.6148 129.072 88.1057C129.029 87.5965 127.606 85.4083 126.793 85.0712C125.981 84.734 122.67 84.1642 122.67 84.1642C122.67 84.1642 121.925 84.0293 122.059 84.4575Z" fill="white" stroke="#263238" stroke-width="0.126607" stroke-linecap="round" stroke-linejoin="round"/>
<path d="M125.184 88.4765L124.459 90.2635C124.459 90.2635 125.406 93.1901 125.541 93.6183C125.676 94.0465 130.959 95.1322 131.222 94.9839C131.485 94.8355 132.089 94.6298 132.011 93.4497C131.934 92.2697 130.309 89.4611 129.651 89.3262C128.994 89.1913 126.195 88.4698 125.943 88.4496C125.69 88.4293 125.295 88.1495 125.184 88.4765Z" fill="white" stroke="#263238" stroke-width="0.126607" stroke-linecap="round" stroke-linejoin="round"/>
<path d="M127.19 93.9998C127.19 93.9998 126.297 95.7767 126.482 96.6297C126.612 97.1906 126.793 97.7381 127.025 98.2649L134.18 100.079C134.18 100.079 133.33 96.9938 133.168 95.9722C133.006 94.9506 131.189 94.4786 129.712 94.0268C128.236 93.575 127.062 93.4873 127.19 93.9998Z" fill="white" stroke="#263238" stroke-width="0.126607" stroke-linecap="round" stroke-linejoin="round"/>
<path d="M129.566 86.049L129.455 87.4651C129.455 87.4651 131.198 89.8657 131.667 90.3209C132.136 90.7761 135.935 91.4909 136.276 91.4336C136.616 91.3762 136.765 90.5502 136.637 90.0377C136.509 89.5252 134.664 87.3673 133.939 87.0605C133.214 86.7537 130.177 85.8434 130.177 85.8434C130.177 85.8434 129.354 85.5298 129.566 86.049Z" fill="white" stroke="#263238" stroke-width="0.126607" stroke-linecap="round" stroke-linejoin="round"/>
<path d="M132.827 90.4967C132.827 90.4967 132.345 92.3882 132.581 92.5736C132.817 92.759 133.862 95.5238 134.428 95.8205C134.995 96.1172 139.115 97.0242 139.627 96.8961C140.14 96.7679 140.217 95.7666 139.948 94.9068C139.678 94.047 138.009 91.8217 137.035 91.4104C136.337 91.117 133.585 90.4697 133.585 90.4697C133.585 90.4697 133.026 90.0921 132.827 90.4967Z" fill="white" stroke="#263238" stroke-width="0.126607" stroke-linecap="round" stroke-linejoin="round"/>
<path d="M139.064 96.6157C139.064 96.6157 136.535 95.6649 136.107 95.7997C135.679 95.9346 135.149 97.317 135.129 97.5698C135.109 97.8227 136.053 100.827 136.053 100.827L142.776 102.776C142.776 102.776 142.776 102.607 142.776 101.518C142.776 100.429 141.158 97.5361 140.844 97.2597C140.531 96.9832 139.064 96.6157 139.064 96.6157Z" fill="white" stroke="#263238" stroke-width="0.126607" stroke-linecap="round" stroke-linejoin="round"/>
<path d="M137.36 88.332C137.236 88.7651 137.145 89.2069 137.087 89.6537C137.05 90.1527 138.516 91.7778 139.234 92.2532C139.953 92.7286 143.486 93.6727 143.735 93.6929C143.985 93.7131 144.632 92.9242 144.191 92.1318C143.483 91.0937 142.585 90.199 141.544 89.4952C140.731 89.0131 138.199 88.3117 137.36 88.332Z" fill="#92E3A9" stroke="#263238" stroke-width="0.126607" stroke-linecap="round" stroke-linejoin="round"/>
<path d="M140.955 92.8029C140.805 93.1452 140.692 93.5023 140.617 93.8684C140.594 94.2055 142.232 96.8455 142.617 97.294C143.001 97.7424 146.632 98.528 147.047 98.5617C147.462 98.5954 148.396 98.4977 148.059 97.3007C147.721 96.1038 146.71 94.1752 145.725 93.8481C144.741 93.5211 142.944 92.9614 142.125 92.7287C141.305 92.4961 140.955 92.8029 140.955 92.8029Z" fill="#92E3A9" stroke="#263238" stroke-width="0.126607" stroke-linecap="round" stroke-linejoin="round"/>
<path d="M144.501 97.8603C144.123 98.4548 143.872 99.1204 143.762 99.8159C143.692 100.733 144.437 102.972 145.152 103.525C145.866 104.078 150.711 105.383 150.711 105.383C150.711 105.383 151.16 103.906 151.315 102.995C151.47 102.085 149.009 99.209 148.786 98.8583C148.564 98.5077 145.091 97.8232 144.501 97.8603Z" fill="#92E3A9" stroke="#263238" stroke-width="0.126607" stroke-linecap="round" stroke-linejoin="round"/>
<path d="M153.744 117.183C152.015 116.728 149.314 116.357 148.309 114.823C147.305 113.289 146.175 111.286 135.962 110.494C125.75 109.701 56.8369 100.025 49.8037 99.6503C42.7705 99.2761 37.3017 107.668 37.3017 107.668C37.3017 107.668 33.0062 107.173 30.346 106.319C29.5003 106.046 28.7214 105.598 28.0601 105.005C27.6988 106.635 27.6156 108.316 27.8139 109.974C28.522 115.325 31.6475 120.545 43.6606 122.763C55.6737 124.982 60.2355 116.02 60.5356 112.196C60.5356 112.196 89.7474 114.304 107.887 116.357C126.026 118.41 132.055 117.271 138.127 119.668C144.199 122.065 145.686 123.626 148.242 123.667C149.793 123.69 153.107 120.676 155.528 117.763C154.864 117.52 154.216 117.308 153.744 117.183Z" fill="#263238" stroke="#263238" stroke-width="0.126607" stroke-linecap="round" stroke-linejoin="round"/>
<path d="M36.1863 109.658C36.1863 109.658 34.0588 114.311 33.2227 116.812" stroke="white" stroke-width="0.0949551" stroke-linecap="round" stroke-linejoin="round"/>
<path d="M39.0352 108.114C39.0352 108.114 51.3315 110.997 58.9649 111.91" stroke="white" stroke-width="0.0949551" stroke-linecap="round" stroke-linejoin="round"/>
<path d="M48.5006 85.4121C48.5006 85.4121 40.8706 80.3243 34.6466 79.8421C28.4225 79.36 23.4258 83.8038 23.4258 83.8038C23.4258 83.8038 38.7532 70.3846 42.9644 69.9092C47.1756 69.4338 52.6747 68.8977 57.7288 72.0199L48.5006 85.4121Z" fill="white" stroke="#263238" stroke-width="0.126607" stroke-linecap="round" stroke-linejoin="round"/>
</svg>
