<svg width="192" height="192" viewBox="0 0 192 192" fill="none" xmlns="http://www.w3.org/2000/svg">
<path d="M96.002 176C140.186 176 176.002 140.184 176.002 96.0005C176.002 51.8165 140.186 16.0005 96.002 16.0005C51.818 16.0005 16.002 51.8165 16.002 96.0005C16.002 140.184 51.818 176 96.002 176ZM56.002 96.0005L88.002 120L128.002 64.0005" fill="#41B696"/>
<path d="M56.002 96.0005L88.002 120L128.002 64.0005M96.002 176C140.186 176 176.002 140.184 176.002 96.0005C176.002 51.8165 140.186 16.0005 96.002 16.0005C51.818 16.0005 16.002 51.8165 16.002 96.0005C16.002 140.184 51.818 176 96.002 176Z" stroke="#FEFEFE" stroke-width="12"/>
</svg>
