<svg width="252" height="263" viewBox="0 0 252 263" fill="none" xmlns="http://www.w3.org/2000/svg">
<path opacity="0.1" d="M185.682 128.533C185.525 123.97 185.228 119.104 184.737 114.068C184.076 104.009 182.816 94.6168 180.531 88.7086C167.951 86.1332 102.597 90.9325 102.549 90.9325L102.143 89.1146L101.979 88.3935L101.688 87.127L101.609 86.8361C101.185 85.1273 100.707 83.4366 100.149 81.7581C100.149 81.7581 50.6047 77.3345 34.1707 81.6248C34.1707 81.7702 34.1707 81.9096 34.1707 82.055L34.2192 86.109C34.2676 93.9563 34.0858 101.319 34.4918 109.402V109.463C34.4132 109.456 34.3341 109.456 34.2555 109.463C33.6178 109.547 33.0158 109.807 32.5163 110.212C32.0169 110.617 31.6393 111.153 31.4256 111.76C31.2626 112.23 31.2026 112.73 31.2499 113.226L31.468 115.777C31.468 115.82 31.468 115.856 31.468 115.898C32.074 122.334 32.68 128.709 32.68 128.709C32.68 128.709 32.9951 128.739 33.5102 128.763L36.231 128.957C30.4379 129.49 24.1115 137.138 24.3903 143.713C24.669 150.287 18.3305 162.667 19.9121 169.769C21.1241 175.32 27.3595 184.246 30.3955 191.027L30.1591 192.372L16.6035 219.592C17.5125 218.259 25.6931 253.83 63.6876 246.297L90.7201 202.255C93.7352 199.982 96.4944 197.387 98.9492 194.517C99.9853 193.488 100.847 192.297 101.5 190.99C102.466 189.448 103.202 187.775 103.688 186.021C103.809 185.561 103.936 185.106 104.07 184.64C106.275 179.023 109.22 171.357 111.378 166.049C139.858 165.2 169.763 163.461 184.779 159.928H184.81C186.264 150.051 186.294 138.968 185.682 128.533ZM39.4184 153.42C39.1833 151.779 39.0417 150.126 38.9942 148.469C39.3275 150.215 39.6911 151.954 40.0729 153.699C39.8547 153.602 39.6366 153.505 39.4184 153.42Z" fill="black"/>
<path d="M13.5078 217.854C13.5078 217.854 25.6758 253.83 63.6884 246.298C63.6884 246.298 72.1236 206.698 79.1892 200.85C83.7462 197.093 93.8114 190.355 95.9626 185.477C98.1138 180.598 106.755 157.432 108.427 154.645C110.1 151.857 90.2967 119.783 90.2967 119.783L48.5815 141.307L25.3728 182.513C25.3728 182.513 20.9189 209.176 13.5078 217.854Z" fill="white"/>
<path d="M24.9665 185.726C24.9665 185.726 21.9912 207.971 12.1562 219.593" stroke="#263238" stroke-width="0.175" stroke-linecap="round" stroke-linejoin="round"/>
<path d="M63.6875 246.298C63.6875 246.298 72.0742 207.983 79.1883 200.85C79.1883 200.85 95.2587 191.506 98.1553 180.508C100.161 172.891 103.809 164.11 105.554 160.123" stroke="#263238" stroke-width="0.175" stroke-linecap="round" stroke-linejoin="round"/>
<path d="M67.0686 161.353C66.4626 160.965 76.7945 169.231 77.1944 180.526" stroke="#263238" stroke-width="0.175" stroke-linecap="round" stroke-linejoin="round"/>
<path d="M179.279 154.427C145.78 162.305 37.8929 161.268 37.8929 161.268C36.984 159.354 35.8871 154.53 34.8267 148.943C32.7058 137.726 30.7243 123.432 30.7243 123.432L27.1551 123.183C27.1551 123.183 26.5491 116.808 25.9431 110.373C25.3372 103.938 28.973 103.944 28.973 103.944L28.7124 81.6681L28.6458 76.1053C45.0798 71.815 94.6241 76.2386 94.6241 76.2386L96.1694 81.6075L97.0298 85.413L175.006 83.2133C182.157 101.701 179.279 154.427 179.279 154.427Z" fill="#92E3A9"/>
<path d="M166.323 100.389L115.179 102.946C113.074 103.051 111.453 104.843 111.558 106.948L112.077 117.341C112.183 119.446 113.974 121.067 116.08 120.962L167.224 118.404C169.329 118.299 170.95 116.507 170.845 114.402L170.325 104.01C170.22 101.905 168.428 100.284 166.323 100.389Z" fill="#263238"/>
<path d="M170.564 125.195L170.728 126.922L111.839 129.201L111.791 127.649L170.564 125.195Z" fill="#263238"/>
<path d="M170.855 131.199L170.91 132.751L112.027 134.926L111.973 133.381L170.855 131.199Z" fill="#263238"/>
<path opacity="0.3" d="M174.994 83.213C174.994 83.213 183.684 124.419 179.279 154.427C179.279 154.427 124.329 160.874 105.514 159.832L104.744 149.803L106.319 149.561C106.319 149.561 98.7327 92.3208 97.0117 85.4127C97.0117 85.4127 162.451 80.6316 174.994 83.213Z" fill="black"/>
<path opacity="0.8" d="M102.931 149.658L103.579 157.239C103.579 157.239 48.1932 159.663 43.3212 157.899C38.4492 156.136 43.5818 153.324 56.4648 152.312C69.3477 151.3 102.931 149.658 102.931 149.658Z" fill="white"/>
<path d="M69.8646 117.505C72.6591 117.505 74.9244 115.454 74.9244 112.924C74.9244 110.394 72.6591 108.343 69.8646 108.343C67.0701 108.343 64.8047 110.394 64.8047 112.924C64.8047 115.454 67.0701 117.505 69.8646 117.505Z" fill="#263238"/>
<path d="M30.7246 123.425C31.8661 136.244 34.2652 148.919 37.8872 161.268C61.3808 161.068 84.8683 160.808 108.356 160.056C131.843 159.305 155.979 157.717 179.255 154.427C179.255 154.427 183.424 117.608 174.97 83.2129C165.626 81.2678 97.2483 85.4005 97.2483 85.4005" stroke="#263238" stroke-width="0.175" stroke-linecap="round" stroke-linejoin="round"/>
<path d="M102.932 149.658L103.581 157.238L50.8611 158.45C48.6857 158.638 45.2983 158.923 43.2986 157.899C42.3896 157.432 41.7352 156.293 42.1654 155.36C42.5532 154.524 43.5713 154.227 44.4802 154.045C50.9278 152.718 57.5086 152.16 64.0713 151.676C78.1218 150.633 92.1945 149.928 106.289 149.561C105.993 149.561 102.557 121.207 102.175 118.59C100.684 108.349 99.2662 98.0653 97.4241 87.8789C96.7593 83.9351 95.8094 80.0447 94.5821 76.2382C72.864 74.6869 50.1824 73.2508 28.5977 76.1049C28.7976 85.7216 28.4401 94.284 28.9309 103.943" stroke="#263238" stroke-width="0.175" stroke-linecap="round" stroke-linejoin="round"/>
<path d="M37.0799 158.414C36.9502 158.022 36.8727 157.614 36.8496 157.202" stroke="#263238" stroke-width="0.175" stroke-linecap="round" stroke-linejoin="round"/>
<path d="M37.2012 154.905C38.0071 152.888 40.4249 150.609 46.9998 149.882C58.992 148.549 85.1336 146.149 100.471 145.567" stroke="#263238" stroke-width="0.175" stroke-linecap="round" stroke-linejoin="round" stroke-dasharray="0.68 0.68"/>
<path d="M101.66 145.525L102.872 145.482L102.708 144.271" stroke="#263238" stroke-width="0.175" stroke-linecap="round" stroke-linejoin="round"/>
<path d="M102.368 141.95C99.6111 122.116 96.557 102.428 93.0605 82.7041" stroke="#263238" stroke-width="0.175" stroke-linecap="round" stroke-linejoin="round" stroke-dasharray="0.68 0.68"/>
<path d="M92.8656 81.5468L92.6475 80.3348L91.4355 80.25" stroke="#263238" stroke-width="0.175" stroke-linecap="round" stroke-linejoin="round"/>
<path d="M88.987 80.0922C78.9097 79.4196 50.2532 77.7411 31.1348 79.05" stroke="#263238" stroke-width="0.175" stroke-linecap="round" stroke-linejoin="round" stroke-dasharray="0.71 0.71"/>
<path d="M29.8994 79.1416L28.6875 79.2386" stroke="#263238" stroke-width="0.175" stroke-linecap="round" stroke-linejoin="round"/>
<path d="M27.1532 123.183L25.7049 107.73C25.6609 107.266 25.7111 106.798 25.8523 106.354C25.9934 105.909 26.2228 105.498 26.5266 105.145C26.8304 104.791 27.2024 104.502 27.6203 104.296C28.0383 104.089 28.4936 103.969 28.959 103.943C37.8668 103.428 60.9059 102.216 69.747 102.925C73.9888 103.264 78.6003 104.628 80.6545 108.688C82.3634 112.033 82.6179 117.05 79.7516 119.801C75.3886 123.982 67.111 123.661 61.4876 123.861C51.0164 124.261 27.1592 123.273 27.1532 123.183Z" stroke="#263238" stroke-width="0.175" stroke-linecap="round" stroke-linejoin="round"/>
<path d="M81.9354 113.736C81.9354 113.306 84.1411 122.614 76.0817 125.686C68.0223 128.758 30.7246 127.789 30.7246 127.789V123.426C30.7246 123.426 57.1087 123.983 61.502 123.862C65.8953 123.741 81.4627 125.201 81.9354 113.736Z" fill="#263238"/>
<path d="M74.1836 165.728C74.1836 165.728 80.7766 169.588 83.2429 176.841" stroke="#263238" stroke-width="0.175" stroke-linecap="round" stroke-linejoin="round"/>
<path d="M25.8887 106.264C25.8887 106.264 58.2234 104.743 66.4525 105.016C74.6816 105.289 78.7114 107.101 79.5294 112.257C80.3475 117.414 75.3603 120.626 71.3851 121.232C67.41 121.838 27.1491 122.014 27.1491 122.014" stroke="#263238" stroke-width="0.175" stroke-linecap="round" stroke-linejoin="round" stroke-dasharray="0.7 0.7"/>
<path d="M48.1092 168.734C48.1092 168.734 43.1039 151.349 33.8931 147.925C33.8931 147.925 32.0752 136.06 36.0019 135.406C39.9286 134.752 51.0179 127.444 48.1213 118.324C45.2248 109.204 36.5291 122.899 30.736 123.426C24.9429 123.953 18.6165 131.607 18.8771 138.187C19.1376 144.768 12.8173 157.148 14.3989 164.244C15.9805 171.34 25.7306 183.999 26.5184 190.586" fill="white"/>
<path d="M48.1092 168.734C48.1092 168.734 43.1039 151.349 33.8931 147.925C33.8931 147.925 32.0752 136.06 36.0019 135.406C39.9286 134.752 51.0179 127.444 48.1213 118.324C45.2248 109.204 36.5291 122.899 30.736 123.426C24.9429 123.953 18.6165 131.607 18.8771 138.187C19.1376 144.768 12.8173 157.148 14.3989 164.244C15.9805 171.34 25.7306 183.999 26.5184 190.586" stroke="#263238" stroke-width="0.175" stroke-linecap="round" stroke-linejoin="round"/>
<path d="M35.9844 120.753C35.9844 120.753 42.9228 122.013 46.6919 117.608C50.4611 113.203 46.1223 112.924 46.1223 112.924L35.9844 120.753Z" fill="white" stroke="#263238" stroke-width="0.175" stroke-linecap="round" stroke-linejoin="round"/>
<path d="M23.5918 130.57C24.8584 130.657 26.0831 131.059 27.1549 131.74" stroke="#263238" stroke-width="0.175" stroke-linecap="round" stroke-linejoin="round"/>
<path d="M23.3789 133.091C24.6405 133.21 25.8424 133.685 26.8451 134.46" stroke="#263238" stroke-width="0.175" stroke-linecap="round" stroke-linejoin="round"/>
<path d="M42.1094 156.379C42.1094 156.379 71.8021 154.846 79.6191 155.294" stroke="#263238" stroke-width="0.175" stroke-linecap="round" stroke-linejoin="round"/>
<path d="M72.3906 153.027C72.3906 153.027 79.8623 152.421 84.5101 153.027" stroke="#263238" stroke-width="0.175" stroke-linecap="round" stroke-linejoin="round"/>
<path d="M91.3203 155.209H103.409" stroke="#263238" stroke-width="0.175" stroke-linecap="round" stroke-linejoin="round"/>
<path d="M98.6348 88.8061C98.6348 88.8061 151.736 84.0613 173.073 86.77C173.073 86.77 178.829 97.3563 177.575 151.609C153.594 154.683 129.466 156.477 105.294 156.984" stroke="#263238" stroke-width="0.175" stroke-linecap="round" stroke-linejoin="round" stroke-dasharray="0.7 0.7"/>
<g opacity="0.1">
<path d="M242.384 163.887C240.875 157.47 238.663 155.058 236.445 153.203C236.445 153.203 236.397 149.568 233.555 147.495C232.796 146.827 231.985 146.219 231.131 145.677C228.465 143.678 225.526 141.436 225.526 141.436C224.144 137.436 222.271 132.594 220.248 127.831L220.351 128.916C218.278 123.856 216.248 118.821 215.678 117.148V117.112C216.284 118.724 216.89 120.281 217.557 121.717L209.97 94.903C209.788 93.8244 209.601 92.7639 209.413 91.7398C209.049 88.71 208.061 83.0017 205.68 82.5957C205.591 82.5897 205.502 82.5897 205.413 82.5957C205.413 82.5957 202.608 81.3838 202.608 86.3588C199.269 87.4738 197.978 89.9946 197.657 92.9578C197.483 93.8977 197.463 94.8595 197.596 95.8059C197.657 96.9027 197.784 98.0237 197.954 99.1387L187.204 85.0075L186.168 83.6622L172.909 66.2103L155.087 42.6986C154.424 41.8258 153.596 41.0922 152.649 40.5398C151.702 39.9873 150.656 39.6268 149.57 39.4788C148.484 39.3308 147.379 39.3982 146.319 39.6772C145.259 39.9562 144.264 40.4414 143.392 41.1049L121.268 57.9085L112.633 64.4651C106.009 67.913 107.736 74.7242 109.573 77.142L148.155 127.928C147.954 127.903 147.751 127.893 147.549 127.898C147.549 127.898 146.446 125.299 143.719 125.711C143.139 125.737 142.577 125.924 142.095 126.25C141.655 126.481 141.282 126.821 141.01 127.238C140.708 127.602 140.437 127.992 140.198 128.401C138.811 130.776 140.095 136.588 142.101 143.684C142.228 144.144 142.356 144.587 142.477 144.999V145.065L142.992 146.841C144.955 153.652 148.628 167.026 149.306 173.582C149.355 174.188 149.385 174.837 149.397 175.443C149.44 182.993 146.089 195.634 147.531 200.857C147.719 201.542 147.913 202.196 148.106 202.845C149.179 206.335 150.136 209.638 151.821 212.916C153.869 216.915 156.311 220.751 158.596 224.623C162.789 231.737 167.128 238.767 171.612 245.711C173.678 248.898 176.096 251.807 178.435 254.801C179.508 256.176 181.847 258.242 182.253 260.006C182.253 260.006 202.995 261.721 214.606 254.346L213.515 237.839L221.302 193.088C223.526 189.713 230.392 183.12 231.761 181.036C232.47 180 233.161 178.969 233.833 177.963C238.954 173.182 241.517 169.48 242.644 165.171C242.669 165.184 242.59 164.693 242.384 163.887ZM170.576 173.661L170.473 173.467C172.592 174.426 174.836 175.079 177.139 175.406C174.721 175.128 171.988 174.74 170.576 173.661ZM179.326 175.667L180.441 175.746C180.068 175.744 179.696 175.718 179.326 175.667ZM170.358 173.207L168.964 170.443C167.025 164.881 162.644 151.767 162.626 151.713C161.768 147.934 160.621 144.227 159.196 140.624C160.227 140.987 161.332 141.089 162.412 140.919C163.491 140.75 164.512 140.315 165.383 139.654L175.987 131.601C177.084 132.261 178.205 132.855 179.302 133.376L189.234 141.139L181.356 173.516L170.358 173.207ZM210.558 98.6358C211.382 102.502 212.685 108.065 214.412 113.452C212.735 108.623 211.443 103.668 210.546 98.6358H210.558Z" fill="black"/>
<path d="M165.539 254.213L165.6 254.504C165.6 254.504 165.581 254.395 165.539 254.213Z" fill="black"/>
</g>
<path d="M202.355 99.8231C202.961 99.4232 211.844 94.5875 216.292 109.088C220.74 123.589 225.958 148.264 225.958 148.264L215.389 150.319C215.389 150.319 205.597 145.107 196.822 132.055C196.822 132.055 184.521 128.867 179.164 121.293C174.317 114.409 189.272 89.1338 189.272 89.1338L202.355 99.8231Z" fill="white"/>
<path d="M198.555 117.869C201.172 121.796 206.129 130.055 212.819 132.661" stroke="#263238" stroke-width="0.175" stroke-linecap="round" stroke-linejoin="round"/>
<path d="M191.148 122.093C192.36 122.584 195.39 124.329 196.82 124.395C196.82 124.395 202.995 136.618 213.182 140.587" stroke="#263238" stroke-width="0.175" stroke-linecap="round" stroke-linejoin="round"/>
<path d="M185.484 126.595C189.272 129.764 193.786 131.927 196.822 132.048C196.822 132.048 202.997 144.271 213.183 148.24" stroke="#263238" stroke-width="0.175" stroke-linecap="round" stroke-linejoin="round"/>
<path d="M153.61 38.0274L120.101 63.4798C117.191 65.6904 116.624 69.8416 118.835 72.7518L165.374 134.021C167.585 136.931 171.736 137.498 174.646 135.288L208.154 109.835C211.065 107.625 211.632 103.473 209.421 100.563L162.882 39.2942C160.671 36.384 156.52 35.8169 153.61 38.0274Z" fill="#263238"/>
<path d="M207.201 108.507L176.454 131.867C175.582 132.532 174.587 133.018 173.526 133.297C172.466 133.577 171.361 133.644 170.274 133.495C169.188 133.347 168.141 132.985 167.195 132.431C166.248 131.877 165.42 131.142 164.759 130.267L120.311 71.7546C119.586 70.8095 119.078 69.7175 118.82 68.555C118.462 66.9941 118.562 65.3629 119.109 63.8578C119.657 62.3527 120.627 61.0378 121.904 60.0715L130.546 53.5148L152.664 36.7052C153.536 36.042 154.531 35.5573 155.592 35.2787C156.652 35.0002 157.757 34.9333 158.843 35.0819C159.929 35.2304 160.975 35.5915 161.921 36.1446C162.868 36.6976 163.696 37.4317 164.359 38.305L182.193 61.7803L195.451 79.2323L208.783 96.8054C209.448 97.6773 209.935 98.6718 210.215 99.7319C210.496 100.792 210.564 101.897 210.417 102.984C210.271 104.071 209.911 105.118 209.359 106.065C208.807 107.013 208.074 107.843 207.201 108.507Z" fill="#92E3A9"/>
<path opacity="0.1" d="M182.168 61.7803L130.527 53.5088L152.664 36.7052C153.536 36.042 154.531 35.5573 155.592 35.2787C156.652 35.0002 157.757 34.9333 158.843 35.0819C159.929 35.2304 160.975 35.5915 161.921 36.1446C162.868 36.6976 163.696 37.4317 164.359 38.305L182.168 61.7803Z" fill="black"/>
<path opacity="0.1" d="M207.202 108.507L176.454 131.868C175.582 132.532 174.587 133.018 173.527 133.298C172.466 133.577 171.361 133.644 170.275 133.496C169.188 133.347 168.142 132.986 167.195 132.432C166.249 131.878 165.421 131.142 164.759 130.268L120.311 71.7552C119.587 70.8101 119.078 69.7181 118.82 68.5557L196.47 80.6327L208.783 96.8424C210.115 98.6009 210.696 100.815 210.4 103.001C210.103 105.187 208.954 107.167 207.202 108.507Z" fill="black"/>
<path d="M157.028 42.6466L151.6 46.7702C150.512 47.5961 150.3 49.1471 151.126 50.2344L157.698 58.8865C158.524 59.9738 160.075 60.1857 161.163 59.3598L166.591 55.2362C167.679 54.4103 167.891 52.8593 167.065 51.772L160.493 43.1199C159.667 42.0326 158.116 41.8207 157.028 42.6466Z" fill="white" stroke="#263238" stroke-width="0.175" stroke-linecap="round" stroke-linejoin="round"/>
<path d="M154.428 44.6133L163.802 57.3508" stroke="#263238" stroke-width="0.175" stroke-linecap="round" stroke-linejoin="round"/>
<path d="M154.428 54.5817L163.802 47.4736" stroke="#263238" stroke-width="0.175" stroke-linecap="round" stroke-linejoin="round"/>
<path d="M172.583 128.055L170.983 129.231L151.465 103.538L153.053 102.338L172.583 128.055Z" fill="#263238"/>
<path d="M175.291 126.049L173.691 127.237L154.148 101.502L155.724 100.302L175.291 126.049Z" fill="#263238"/>
<path d="M177.995 124.057L176.401 125.232L156.828 99.4725L158.41 98.2666L177.995 124.057Z" fill="#263238"/>
<path d="M180.703 122.05L179.103 123.226L159.791 97.8055L161.367 96.5996L180.703 122.05Z" fill="#263238"/>
<path d="M183.622 119.893L182.022 121.075L162.68 95.6121L164.261 94.4062L183.622 119.893Z" fill="#263238"/>
<path d="M183.622 89.9344L182.022 91.11L162.68 65.6471L164.261 64.4473L183.622 89.9344Z" fill="#263238"/>
<path d="M141.499 45.2544L139.023 47.1348L193.528 118.889L196.003 117.009L141.499 45.2544Z" fill="#263238"/>
<path d="M207.201 108.507L176.454 131.867C175.582 132.532 174.587 133.018 173.526 133.297C172.466 133.577 171.361 133.644 170.274 133.495C169.188 133.347 168.141 132.985 167.195 132.431C166.248 131.877 165.42 131.142 164.759 130.267L120.311 71.7546C119.586 70.8095 119.078 69.7175 118.82 68.555C118.462 66.9941 118.562 65.3629 119.109 63.8578C119.657 62.3527 120.627 61.0378 121.904 60.0715L130.546 53.5148L152.664 36.7052C153.536 36.042 154.531 35.5573 155.592 35.2787C156.652 35.0002 157.757 34.9333 158.843 35.0819C159.929 35.2304 160.975 35.5915 161.921 36.1446C162.868 36.6976 163.696 37.4317 164.359 38.305L182.193 61.7803L195.451 79.2323L208.783 96.8054C209.448 97.6773 209.935 98.6718 210.215 99.7319C210.496 100.792 210.564 101.897 210.417 102.984C210.271 104.071 209.911 105.118 209.359 106.065C208.807 107.013 208.074 107.843 207.201 108.507Z" stroke="#263238" stroke-width="0.175" stroke-linecap="round" stroke-linejoin="round"/>
<path d="M182.277 260C182.277 260 218.066 272.725 228.895 245.008C228.895 245.008 211.958 224.405 221.205 207.571C227.022 196.967 243.111 173.558 243.111 173.558C243.111 173.558 249.831 167.177 251.922 160.766C251.922 160.766 250.771 153.622 245.705 148.786C245.705 148.786 245.65 145.15 242.808 143.078C239.966 141.005 234.755 137.018 234.755 137.018C234.755 137.018 226.186 116.463 224.914 112.749C223.641 109.034 221.084 102.011 219.805 94.2545C218.527 86.4981 217.345 78.1478 214.63 78.1721C214.63 78.1721 211.831 76.9601 211.831 81.9351C211.831 81.9351 205.953 84.965 206.819 91.3762C207.686 97.7873 208.486 101.102 208.255 104.708C208.025 108.313 209.183 120.832 212.079 124.759C212.079 124.759 213.049 142.332 214.503 146.907C214.552 147.047 214.594 147.174 214.636 147.289C216.163 151.161 200.905 166.074 192.646 170.11C192.646 170.11 191.779 171.722 188.573 171.28C185.368 170.837 179.944 170.631 179.011 168.25C178.078 165.868 171.867 147.289 171.867 147.289C171.867 147.289 166.843 123.474 156.808 123.481C156.808 123.481 155.287 119.845 151.355 121.832C147.422 123.82 149.997 134.655 151.736 140.581C153.475 146.507 157.881 162.087 158.596 169.256C159.311 176.424 155.251 190.786 156.778 196.433C158.305 202.081 160.002 205.893 164.874 215.14C169.746 224.387 180.538 251.958 182.277 260Z" fill="white"/>
<path d="M182.278 260C182.278 260 174.618 231.168 163.359 212.522C152.1 193.876 158.723 187.283 158.723 171.764C158.723 156.245 146.077 129.825 149.488 124.002C152.9 118.178 157.554 122.838 159.499 128.274C161.444 133.709 158.723 136.818 153.27 137.206" stroke="#263238" stroke-width="0.175" stroke-linecap="round" stroke-linejoin="round"/>
<path d="M156.811 123.504C156.811 123.504 163.349 123.104 167.367 133.557C171.384 144.01 177.82 170.521 184.522 178.587" stroke="#263238" stroke-width="0.175" stroke-linecap="round" stroke-linejoin="round"/>
<path d="M179.23 168.795C179.267 168.88 188.593 174.079 203.063 169.522" stroke="#263238" stroke-width="0.175" stroke-linecap="round" stroke-linejoin="round"/>
<path d="M158.051 154.186C158.778 153.296 159.726 152.613 160.8 152.206C161.875 151.799 163.037 151.681 164.171 151.865" stroke="#263238" stroke-width="0.175" stroke-linecap="round" stroke-linejoin="round"/>
<path d="M159.293 157.476C159.921 156.724 160.748 156.165 161.68 155.862C162.611 155.559 163.609 155.524 164.559 155.761" stroke="#263238" stroke-width="0.175" stroke-linecap="round" stroke-linejoin="round"/>
<path d="M211.832 81.917C202.318 85.0862 209.408 99.4538 208.257 104.695C207.105 109.937 210.075 119.972 212.359 125.414C212.359 131.794 214.632 147.277 214.632 147.277C213.226 152.204 201.494 166.723 190.096 171.267" stroke="#263238" stroke-width="0.175" stroke-linecap="round" stroke-linejoin="round"/>
<path d="M218.812 89.1517C218.812 89.1517 218.103 78.1533 214.631 78.1533C211.158 78.1533 211.37 85.5643 212.813 91.0666C214.255 96.5688 219.866 95.781 218.812 89.1517Z" stroke="#263238" stroke-width="0.175" stroke-linecap="round" stroke-linejoin="round"/>
<path d="M218.812 89.1523C218.812 89.1523 221.77 106.441 226.781 117.3" stroke="#263238" stroke-width="0.175" stroke-linecap="round" stroke-linejoin="round"/>
<path d="M232.69 157.791C235.114 153.864 236.186 150.149 237.083 145.423C236.859 142.46 233.447 132.788 229.484 123.42" stroke="#263238" stroke-width="0.175" stroke-linecap="round" stroke-linejoin="round"/>
<path d="M235.076 137.933C239.009 140.89 245.85 143.162 245.063 148.264C244.193 153.369 242.407 158.273 239.791 162.741" stroke="#263238" stroke-width="0.175" stroke-linecap="round" stroke-linejoin="round"/>
<path d="M229.767 246.299C229.767 246.299 216.066 227.277 218.811 214.14C220.829 204.475 233.803 187.574 243.11 173.576C248.237 168.795 250.8 165.092 251.921 160.784C250.279 152.694 247.613 150.337 245.049 148.265" stroke="#263238" stroke-width="0.175" stroke-linecap="round" stroke-linejoin="round"/>
<path d="M233.421 141.072C231.895 140.643 230.297 140.532 228.726 140.745C227.155 140.959 225.645 141.493 224.289 142.314" stroke="#263238" stroke-width="0.175" stroke-linecap="round" stroke-linejoin="round"/>
<path d="M232.652 144.326C230.791 144.044 228.888 144.378 227.234 145.277" stroke="#263238" stroke-width="0.175" stroke-linecap="round" stroke-linejoin="round"/>
</svg>
