<svg width="131" height="78" viewBox="0 0 131 78" fill="none" xmlns="http://www.w3.org/2000/svg">
<g opacity="0.3">
<path d="M35.5944 24.8193H35.2721V24.448C35.1178 24.4484 34.9654 24.4143 34.8259 24.3481C34.6865 24.2819 34.5637 24.1853 34.4665 24.0655C34.2694 23.7913 34.1618 23.463 34.1582 23.1253V23.0693L34.8294 22.8885V22.9726C34.8388 23.1183 34.8623 23.2629 34.8994 23.4041C34.927 23.5237 34.9849 23.6342 35.0676 23.725C35.1078 23.765 35.1561 23.796 35.2093 23.8158C35.2624 23.8356 35.3192 23.8438 35.3758 23.8399C35.4314 23.8447 35.4873 23.8374 35.5398 23.8185C35.5923 23.7997 35.6401 23.7697 35.6799 23.7306C35.7543 23.6377 35.7908 23.5201 35.7822 23.4013C35.79 23.2478 35.7477 23.0958 35.6617 22.9684C35.564 22.8408 35.4542 22.723 35.3338 22.6167L34.6052 21.9749C34.5133 21.8913 34.4315 21.7972 34.3614 21.6947C34.2945 21.594 34.2452 21.4826 34.2157 21.3654C34.1826 21.2335 34.1665 21.0979 34.168 20.9619C34.1598 20.8202 34.1803 20.6784 34.2285 20.545C34.2767 20.4116 34.3514 20.2893 34.4482 20.1856C34.6386 20.0065 34.8876 19.9029 35.1488 19.8942V19.5312H35.4711V19.8956C35.5931 19.9085 35.7123 19.9407 35.8242 19.9908C35.9427 20.0449 36.0472 20.1254 36.1297 20.2262C36.2159 20.3345 36.2819 20.4574 36.3244 20.5891C36.3744 20.7465 36.405 20.9093 36.4155 21.074V21.1328L35.771 21.3094V21.2239C35.7615 21.0935 35.7408 20.9641 35.7093 20.8372C35.6861 20.7369 35.6345 20.6455 35.5608 20.5737C35.52 20.5413 35.4729 20.5176 35.4225 20.5044C35.3721 20.4911 35.3194 20.4885 35.2679 20.4967C35.1552 20.4978 35.0462 20.5368 34.9583 20.6074C34.9213 20.6466 34.893 20.6932 34.8754 20.7442C34.8578 20.7952 34.8512 20.8493 34.856 20.903C34.8516 21.0035 34.8718 21.1036 34.9148 21.1945C34.9686 21.2872 35.0373 21.3705 35.118 21.4411L35.8494 22.0828C35.9626 22.1848 36.0667 22.2963 36.1605 22.4163C36.2602 22.5444 36.3413 22.6859 36.4015 22.8367C36.4648 23.0021 36.4962 23.178 36.494 23.3551C36.4976 23.545 36.4568 23.7331 36.3749 23.9044C36.2977 24.0585 36.1806 24.1892 36.0358 24.2827C35.9033 24.3655 35.7548 24.4194 35.6 24.441L35.5944 24.8193ZM35.4123 24.6792H35.4543V24.3079H35.5173C35.672 24.296 35.8218 24.248 35.9545 24.1678C36.0784 24.0882 36.1782 23.9763 36.2432 23.8441C36.3162 23.6926 36.3522 23.526 36.3483 23.3579C36.3527 23.1965 36.326 23.0357 36.2698 22.8843C36.2149 22.7475 36.1408 22.6191 36.0498 22.5032C35.9604 22.3899 35.8614 22.2844 35.7542 22.1879L35.0213 21.5448C34.9293 21.4644 34.8508 21.3698 34.7887 21.2645C34.7346 21.1534 34.7086 21.0307 34.7131 20.9072C34.7076 20.8336 34.7182 20.7596 34.7441 20.6904C34.77 20.6212 34.8106 20.5585 34.863 20.5065C34.9743 20.4171 35.1125 20.3677 35.2553 20.3664C35.326 20.3563 35.398 20.3613 35.4666 20.3811C35.5352 20.4009 35.5988 20.435 35.6533 20.4813C35.7441 20.5696 35.8082 20.6818 35.8382 20.8049C35.8658 20.9126 35.8855 21.0222 35.8971 21.1328L36.2698 21.0277C36.2575 20.8935 36.2307 20.761 36.1899 20.6326C36.1529 20.5177 36.0955 20.4104 36.0204 20.3159C35.9498 20.2312 35.8613 20.1632 35.7612 20.1169C35.644 20.0662 35.5187 20.0368 35.3912 20.0301H35.3268V19.6714H35.289V20.0273H35.2217C34.9754 20.0243 34.7373 20.1155 34.5561 20.2823C34.4707 20.3727 34.4047 20.4796 34.362 20.5965C34.3194 20.7133 34.301 20.8377 34.3081 20.9619C34.3062 21.0847 34.3208 21.2072 34.3516 21.3262C34.3791 21.426 34.4226 21.5206 34.4805 21.6064C34.5451 21.6998 34.6198 21.7858 34.7033 21.8628L35.4291 22.5116C35.557 22.6234 35.6734 22.7478 35.7766 22.8829C35.8814 23.0343 35.9336 23.216 35.9251 23.3999C35.9324 23.5526 35.8824 23.7025 35.785 23.8203C35.7319 23.8735 35.6681 23.9148 35.5977 23.9414C35.5274 23.968 35.4522 23.9792 35.3772 23.9744C35.3015 23.9784 35.2258 23.9663 35.1551 23.939C35.0843 23.9117 35.0201 23.8699 34.9667 23.8161C34.8686 23.7079 34.7992 23.5769 34.7649 23.435C34.7338 23.3125 34.7113 23.1879 34.6977 23.0623L34.3081 23.1743C34.32 23.4643 34.4175 23.7441 34.5884 23.9786C34.68 24.0884 34.796 24.1753 34.9271 24.2325C35.0582 24.2896 35.2008 24.3155 35.3436 24.3079H35.4123V24.6792Z" fill="black"/>
<path d="M35.3238 26.0011C34.5673 26.0008 33.8279 25.7762 33.199 25.3557C32.5702 24.9352 32.0801 24.3377 31.7908 23.6387C31.5015 22.9397 31.4259 22.1706 31.5737 21.4287C31.7214 20.6868 32.0859 20.0053 32.6209 19.4705C33.1559 18.9357 33.8375 18.5715 34.5795 18.424C35.3215 18.2765 36.0905 18.3523 36.7894 18.6419C37.4883 18.9315 38.0856 19.4218 38.5059 20.0508C38.9261 20.6798 39.1505 21.4193 39.1505 22.1758C39.149 23.1901 38.7453 24.1625 38.0279 24.8796C37.3106 25.5966 36.3381 26 35.3238 26.0011ZM35.3238 18.4907C34.595 18.491 33.8827 18.7073 33.2769 19.1124C32.671 19.5175 32.1989 20.0932 31.9202 20.7666C31.6415 21.44 31.5688 22.1809 31.7111 22.8956C31.8534 23.6104 32.2045 24.2669 32.72 24.7821C33.2354 25.2973 33.892 25.6482 34.6068 25.7903C35.3216 25.9323 36.0625 25.8593 36.7358 25.5803C37.4091 25.3014 37.9845 24.829 38.3894 24.223C38.7942 23.6171 39.0103 22.9046 39.0103 22.1758C39.0092 21.1986 38.6204 20.2617 37.9293 19.5708C37.2381 18.8799 36.3011 18.4914 35.3238 18.4907Z" fill="black"/>
<path d="M35.3229 25.6C34.6456 25.6 33.9835 25.3992 33.4204 25.0229C32.8572 24.6466 32.4183 24.1117 32.1591 23.486C31.8999 22.8602 31.8321 22.1717 31.9642 21.5074C32.0964 20.8431 32.4225 20.2329 32.9014 19.754C33.3804 19.2751 33.9906 18.9489 34.6548 18.8168C35.3191 18.6846 36.0077 18.7525 36.6334 19.0117C37.2592 19.2708 37.794 19.7098 38.1703 20.2729C38.5466 20.8361 38.7474 21.4982 38.7474 22.1755C38.7463 23.0834 38.3852 23.9538 37.7432 24.5958C37.1012 25.2377 36.2308 25.5989 35.3229 25.6ZM35.3229 18.8911C34.6733 18.8911 34.0383 19.0837 33.4982 19.4446C32.9581 19.8055 32.5372 20.3185 32.2886 20.9186C32.04 21.5188 31.9749 22.1791 32.1017 22.8162C32.2284 23.4534 32.5412 24.0386 33.0005 24.4979C33.4599 24.9572 34.0451 25.27 34.6822 25.3968C35.3193 25.5235 35.9797 25.4585 36.5798 25.2099C37.1799 24.9613 37.6929 24.5403 38.0538 24.0002C38.4147 23.4601 38.6073 22.8251 38.6073 22.1755C38.6066 21.3046 38.2603 20.4697 37.6445 19.8539C37.0287 19.2381 36.1938 18.8918 35.3229 18.8911Z" fill="black"/>
</g>
<g opacity="0.3">
<path d="M85.5517 44.1147H85.2714V43.8345C85.1589 43.8333 85.0479 43.8077 84.9463 43.7593C84.8446 43.7109 84.7548 43.6409 84.6829 43.5543C84.5361 43.3499 84.4558 43.1053 84.4531 42.8537V42.7976L84.9828 42.6575V42.7416C84.9906 42.848 85.0079 42.9535 85.0346 43.0568C85.0543 43.1414 85.0953 43.2195 85.1537 43.2838C85.1818 43.311 85.2152 43.3321 85.2519 43.3456C85.2886 43.3591 85.3277 43.3648 85.3667 43.3623C85.405 43.3657 85.4436 43.3608 85.4798 43.348C85.5161 43.3352 85.5492 43.3147 85.5769 43.288C85.6281 43.2229 85.6531 43.1409 85.6469 43.0582C85.6527 42.9496 85.6233 42.8419 85.5629 42.7514C85.4918 42.6585 85.4115 42.5731 85.3233 42.4964L84.788 42.0242C84.7192 41.961 84.6581 41.89 84.6059 41.8126C84.5548 41.7373 84.5169 41.6539 84.4938 41.566C84.473 41.4665 84.4655 41.3647 84.4713 41.2633C84.4653 41.1564 84.4811 41.0495 84.518 40.949C84.5549 40.8485 84.612 40.7566 84.6857 40.679C84.8223 40.549 85.0005 40.4715 85.1887 40.4604V40.1914H85.469V40.4632C85.5552 40.4731 85.6393 40.4963 85.7184 40.5319C85.8045 40.5721 85.881 40.6304 85.9426 40.7028C86.0088 40.7836 86.0587 40.8764 86.0897 40.9761C86.1266 41.0935 86.1496 41.2148 86.1584 41.3376V41.395L85.6427 41.5351L85.6357 41.4497C85.6294 41.3551 85.6144 41.2613 85.5909 41.1694C85.5746 41.0992 85.5386 41.035 85.4872 40.9845C85.459 40.9622 85.4266 40.9459 85.3919 40.9368C85.3572 40.9276 85.3209 40.9257 85.2854 40.9312C85.2067 40.933 85.1305 40.9601 85.0682 41.0083C85.0433 41.0358 85.0243 41.0682 85.0125 41.1034C85.0007 41.1386 84.9963 41.1759 84.9996 41.2129C84.9966 41.2833 85.0105 41.3535 85.0402 41.4174C85.0771 41.4835 85.1244 41.5431 85.1803 41.594L85.7184 42.0662C85.8028 42.1417 85.8802 42.2247 85.9496 42.3142C86.0243 42.408 86.0847 42.5124 86.1289 42.6239C86.1775 42.7479 86.2013 42.8802 86.199 43.0134C86.2019 43.1559 86.1712 43.297 86.1093 43.4254C86.051 43.54 85.9629 43.6368 85.8543 43.7056C85.7593 43.7658 85.653 43.8058 85.5418 43.8233L85.5517 44.1147ZM84.6017 42.8985C84.6117 43.1029 84.6808 43.3001 84.8006 43.466C84.8669 43.5457 84.9511 43.6087 85.0463 43.6499C85.1414 43.691 85.245 43.7091 85.3485 43.7028H85.4171H85.4746C85.586 43.6938 85.6936 43.6582 85.7885 43.5991C85.8765 43.5423 85.9476 43.463 85.9944 43.3693C86.0458 43.2603 86.0712 43.1409 86.0687 43.0204C86.0706 42.9056 86.0506 42.7915 86.0098 42.6841C85.9704 42.5835 85.9166 42.4891 85.8501 42.4039C85.7856 42.3211 85.7138 42.2442 85.6357 42.1741L85.0963 41.7019C85.0265 41.64 84.9673 41.5671 84.9211 41.4861C84.8803 41.4019 84.8606 41.3091 84.8637 41.2157C84.8596 41.1589 84.868 41.102 84.888 41.0488C84.9081 40.9956 84.9395 40.9473 84.98 40.9074C85.0643 40.8371 85.17 40.7975 85.2798 40.7953C85.3344 40.7877 85.39 40.7918 85.4429 40.8072C85.4958 40.8227 85.5448 40.8492 85.5867 40.885C85.6564 40.9541 85.705 41.0415 85.7268 41.1372C85.7453 41.21 85.7589 41.284 85.7674 41.3586L86.0084 41.2927C85.9995 41.2009 85.9807 41.1102 85.9524 41.0223C85.9267 40.9395 85.8853 40.8625 85.8305 40.7953C85.7809 40.7352 85.7181 40.6872 85.6469 40.6552C85.5629 40.6194 85.4733 40.5985 85.3821 40.5935H85.3191H85.2518C85.0749 40.5899 84.9036 40.6552 84.774 40.7757C84.7149 40.8415 84.67 40.9187 84.642 41.0026C84.6141 41.0865 84.6037 41.1752 84.6115 41.2633C84.6108 41.3521 84.6211 41.4406 84.6423 41.5267C84.662 41.5997 84.6937 41.6688 84.7362 41.7313C84.7818 41.7991 84.8354 41.8612 84.8959 41.9163L85.4312 42.3885C85.5258 42.4735 85.6121 42.5674 85.689 42.6687C85.7676 42.7835 85.807 42.9206 85.8011 43.0596C85.8086 43.1776 85.7704 43.294 85.6946 43.3847C85.6539 43.4259 85.6048 43.4579 85.5506 43.4785C85.4965 43.499 85.4385 43.5077 85.3807 43.5038C85.3226 43.5064 85.2646 43.4969 85.2103 43.476C85.156 43.455 85.1067 43.4229 85.0654 43.3819C84.9915 43.2997 84.9391 43.2006 84.9127 43.0933C84.8911 43.0094 84.8751 42.9242 84.8651 42.8383L84.6017 42.8985Z" fill="black"/>
<path d="M85.3332 44.9828C84.7728 44.9828 84.225 44.8166 83.759 44.5052C83.2931 44.1939 82.9299 43.7513 82.7155 43.2335C82.5011 42.7157 82.4451 42.146 82.5545 41.5964C82.664 41.0467 82.934 40.5419 83.3303 40.1457C83.7267 39.7496 84.2316 39.4798 84.7813 39.3707C85.331 39.2615 85.9007 39.3178 86.4184 39.5325C86.9361 39.7471 87.3784 40.1105 87.6896 40.5766C88.0007 41.0427 88.1667 41.5906 88.1664 42.151C88.1653 42.902 87.8664 43.6218 87.3352 44.1527C86.8041 44.6835 86.0841 44.9821 85.3332 44.9828ZM85.3332 39.4579C84.8006 39.4579 84.2799 39.6159 83.837 39.9118C83.3941 40.2077 83.049 40.6283 82.8451 41.1204C82.6413 41.6125 82.588 42.154 82.6919 42.6764C82.7958 43.1988 83.0523 43.6787 83.4289 44.0553C83.8055 44.432 84.2854 44.6884 84.8078 44.7924C85.3302 44.8963 85.8717 44.8429 86.3638 44.6391C86.8559 44.4353 87.2765 44.0901 87.5724 43.6472C87.8683 43.2043 88.0263 42.6837 88.0263 42.151C88.0255 41.437 87.7416 40.7524 87.2367 40.2475C86.7318 39.7426 86.0472 39.4587 85.3332 39.4579Z" fill="black"/>
<path d="M85.3344 44.6874C84.8325 44.6874 84.3418 44.5386 83.9245 44.2597C83.5072 43.9808 83.1819 43.5844 82.9899 43.1206C82.7979 42.6569 82.7477 42.1466 82.8457 41.6543C82.9438 41.162 83.1856 40.7099 83.5406 40.355C83.8956 40.0002 84.3479 39.7586 84.8402 39.6609C85.3326 39.5631 85.8428 39.6136 86.3065 39.8059C86.7701 39.9981 87.1663 40.3236 87.445 40.7411C87.7236 41.1586 87.8722 41.6493 87.872 42.1513C87.8712 42.8239 87.6036 43.4688 87.1278 43.9443C86.6521 44.4198 86.0071 44.687 85.3344 44.6874ZM85.3344 39.7538C84.8603 39.7538 84.3967 39.8944 84.0025 40.1579C83.6082 40.4213 83.3009 40.7957 83.1195 41.2338C82.938 41.6719 82.8906 42.1539 82.9831 42.619C83.0756 43.084 83.3039 43.5112 83.6392 43.8465C83.9745 44.1818 84.4017 44.4101 84.8667 44.5026C85.3318 44.5951 85.8138 44.5477 86.2519 44.3662C86.6899 44.1848 87.0644 43.8775 87.3278 43.4832C87.5912 43.089 87.7318 42.6254 87.7318 42.1513C87.7315 41.5155 87.4788 40.906 87.0292 40.4564C86.5797 40.0069 85.9701 39.7542 85.3344 39.7538Z" fill="black"/>
</g>
<g opacity="0.3">
<path d="M52.5145 20.4867H52.2343V20.2064C52.1213 20.2041 52.0102 20.177 51.9088 20.1271C51.8074 20.0773 51.7181 20.0058 51.6472 19.9178C51.499 19.7141 51.4182 19.4691 51.416 19.2172V19.1598L51.9457 19.0196L51.9527 19.1051C51.9593 19.2111 51.9762 19.3162 52.0031 19.419C52.0228 19.5035 52.0638 19.5817 52.1222 19.646C52.1503 19.6732 52.1837 19.6942 52.2204 19.7077C52.2571 19.7212 52.2962 19.7269 52.3352 19.7244C52.3734 19.728 52.4119 19.7233 52.4482 19.7107C52.4844 19.6982 52.5176 19.678 52.5454 19.6516C52.5967 19.5859 52.6217 19.5035 52.6154 19.4204C52.621 19.3117 52.5916 19.2041 52.5314 19.1135C52.4599 19.021 52.3797 18.9355 52.2918 18.8585L51.7565 18.3863C51.6877 18.3236 51.6266 18.2531 51.5743 18.1761C51.5233 18.1003 51.4854 18.0165 51.4623 17.9281C51.437 17.8302 51.4248 17.7294 51.4258 17.6283C51.42 17.5214 51.436 17.4145 51.4728 17.314C51.5097 17.2136 51.5666 17.1217 51.6402 17.044C51.7768 16.9139 51.955 16.8365 52.1432 16.8254V16.5605H52.4235V16.831C52.5096 16.8409 52.5938 16.864 52.6729 16.8996C52.7627 16.9408 52.8422 17.0016 52.9055 17.0776C52.9692 17.1615 53.0167 17.2565 53.0456 17.3578C53.083 17.4751 53.1061 17.5965 53.1142 17.7193V17.7768L52.5986 17.9169V17.8328C52.5922 17.7382 52.5772 17.6444 52.5538 17.5526C52.5375 17.4823 52.5015 17.4182 52.4501 17.3676C52.422 17.3452 52.3896 17.329 52.3548 17.32C52.32 17.3111 52.2837 17.3097 52.2483 17.3158C52.1693 17.3162 52.0928 17.3434 52.0311 17.3929C51.9849 17.4452 51.9612 17.5137 51.9653 17.5834C51.9625 17.6543 51.9764 17.7249 52.0059 17.7894C52.0432 17.8551 52.0905 17.9147 52.146 17.9659L52.6841 18.4367C52.7682 18.5125 52.8456 18.5955 52.9153 18.6848C52.9902 18.7792 53.0511 18.8839 53.096 18.9958C53.144 19.1195 53.1678 19.2513 53.1661 19.3839C53.1688 19.5265 53.1376 19.6677 53.075 19.7959C53.0165 19.9104 52.9285 20.0072 52.82 20.0761C52.7247 20.1354 52.6184 20.1749 52.5075 20.1924L52.5145 20.4867ZM51.5645 19.2719C51.5757 19.4739 51.6447 19.6685 51.7635 19.8323C51.8299 19.912 51.914 19.9749 52.0092 20.016C52.1044 20.0572 52.2079 20.0754 52.3114 20.0691H52.3856H52.4431C52.5546 20.0605 52.6623 20.0249 52.7569 19.9654C52.8453 19.9091 52.9165 19.8296 52.9629 19.7356C53.0148 19.6268 53.0407 19.5073 53.0386 19.3867C53.0399 19.2719 53.0194 19.1578 52.9783 19.0505C52.9386 18.95 52.8848 18.8556 52.8186 18.7702C52.7541 18.6874 52.6823 18.6105 52.6042 18.5404L52.0648 18.0682C51.9942 18.0099 51.9332 17.9409 51.884 17.8637C51.8414 17.7766 51.8212 17.6803 51.8252 17.5834C51.8211 17.5267 51.8294 17.4698 51.8495 17.4165C51.8696 17.3633 51.901 17.3151 51.9415 17.2752C52.0269 17.2039 52.1343 17.1643 52.2455 17.1631C52.3001 17.1554 52.3557 17.1595 52.4086 17.175C52.4615 17.1904 52.5105 17.2169 52.5524 17.2527C52.6218 17.322 52.6703 17.4094 52.6925 17.5049C52.7107 17.5778 52.7243 17.6518 52.7331 17.7263L52.9741 17.6619C52.9654 17.57 52.9466 17.4793 52.9181 17.3915C52.8927 17.3081 52.8513 17.2305 52.7962 17.1631C52.7466 17.1028 52.6838 17.0549 52.6126 17.0229C52.529 16.9858 52.4392 16.9644 52.3478 16.9599H52.2847H52.2175C52.0408 16.9572 51.8698 17.0224 51.7397 17.142C51.6792 17.2067 51.6327 17.2831 51.603 17.3665C51.5734 17.4499 51.5612 17.5385 51.5673 17.6269C51.5666 17.7156 51.5769 17.8041 51.5982 17.8903C51.6181 17.9636 51.6498 18.0331 51.692 18.0963C51.7383 18.1649 51.7923 18.2279 51.8532 18.284L52.3856 18.7562C52.4809 18.8405 52.5673 18.9345 52.6435 19.0365C52.7221 19.1507 52.7614 19.2874 52.7555 19.426C52.7631 19.544 52.7249 19.6604 52.6491 19.7511C52.6084 19.7923 52.5593 19.8242 52.5051 19.8448C52.4509 19.8653 52.393 19.874 52.3352 19.8702C52.2771 19.8728 52.219 19.8633 52.1648 19.8423C52.1105 19.8213 52.0612 19.7893 52.0199 19.7483C51.946 19.6661 51.8936 19.5669 51.8672 19.4596C51.8455 19.3758 51.8296 19.2906 51.8196 19.2046L51.5645 19.2719Z" fill="black"/>
<path d="M52.2966 21.355C51.7366 21.355 51.1891 21.1889 50.7234 20.8778C50.2577 20.5666 49.8947 20.1243 49.6804 19.6069C49.4661 19.0895 49.41 18.5201 49.5193 17.9708C49.6285 17.4214 49.8982 16.9169 50.2943 16.5208C50.6903 16.1248 51.1949 15.8551 51.7442 15.7458C52.2935 15.6366 52.8629 15.6926 53.3803 15.907C53.8978 16.1213 54.34 16.4843 54.6512 16.9499C54.9623 17.4156 55.1284 17.9631 55.1284 18.5232C55.1273 19.2739 54.8286 19.9936 54.2978 20.5244C53.767 21.0552 53.0473 21.3539 52.2966 21.355ZM52.2966 15.8315C51.7643 15.8315 51.2439 15.9894 50.8012 16.2852C50.3586 16.5809 50.0136 17.0013 49.8099 17.4931C49.6061 17.985 49.5528 18.5262 49.6567 19.0483C49.7605 19.5705 50.0169 20.0501 50.3933 20.4265C50.7698 20.803 51.2494 21.0593 51.7715 21.1632C52.2936 21.267 52.8349 21.2137 53.3267 21.01C53.8185 20.8063 54.2389 20.4613 54.5347 20.0186C54.8304 19.576 54.9883 19.0556 54.9883 18.5232C54.9872 17.8097 54.7033 17.1257 54.1987 16.6211C53.6942 16.1166 53.0102 15.8326 52.2966 15.8315Z" fill="black"/>
<path d="M52.2968 21.0595C51.7948 21.0598 51.304 20.9111 50.8864 20.6324C50.4689 20.3537 50.1435 19.9574 49.9512 19.4937C49.759 19.0299 49.7086 18.5196 49.8065 18.0272C49.9044 17.5349 50.1461 17.0826 50.501 16.7276C50.856 16.3726 51.3083 16.1309 51.8006 16.0331C52.293 15.9352 52.8033 15.9856 53.2671 16.1778C53.7308 16.37 54.1271 16.6955 54.4058 17.113C54.6846 17.5305 54.8332 18.0213 54.8329 18.5233C54.8322 19.1957 54.5647 19.8404 54.0893 20.3158C53.6138 20.7913 52.9692 21.0587 52.2968 21.0595ZM52.2968 16.1259C51.8225 16.1256 51.3589 16.266 50.9644 16.5293C50.57 16.7925 50.2625 17.1669 50.0808 17.6049C49.8992 18.043 49.8515 18.525 49.9438 18.9902C50.0362 19.4553 50.2644 19.8827 50.5996 20.2181C50.9349 20.5535 51.362 20.782 51.8271 20.8746C52.2922 20.9672 52.7743 20.9198 53.2125 20.7384C53.6506 20.557 54.0251 20.2497 54.2886 19.8554C54.5521 19.4611 54.6928 18.9976 54.6928 18.5233C54.692 17.888 54.4394 17.2788 53.9903 16.8294C53.5411 16.38 52.9321 16.127 52.2968 16.1259Z" fill="black"/>
</g>
<g opacity="0.3">
<path d="M35.2601 40.048H34.9798V39.7678C34.8667 39.7652 34.7554 39.7381 34.6538 39.6883C34.5522 39.6384 34.4626 39.5671 34.3914 39.4792C34.2438 39.2751 34.163 39.0304 34.1602 38.7786V38.7225L34.6912 38.5824V38.6679C34.6984 38.7738 34.7153 38.8789 34.7416 38.9817C34.7619 39.0665 34.8029 39.145 34.8607 39.2101C34.8888 39.2373 34.9223 39.2584 34.9589 39.2719C34.9956 39.2854 35.0347 39.2911 35.0737 39.2886C35.1122 39.2914 35.1509 39.2863 35.1873 39.2735C35.2237 39.2608 35.2571 39.2406 35.2853 39.2143C35.3364 39.1491 35.3614 39.0672 35.3554 38.9845C35.361 38.8757 35.331 38.768 35.2699 38.6777C35.1994 38.5843 35.1196 38.4984 35.0317 38.4213L34.4964 37.9491C34.4269 37.8867 34.3653 37.8161 34.3129 37.7389C34.2618 37.6631 34.2239 37.5792 34.2008 37.4909C34.1777 37.3955 34.1669 37.2975 34.1686 37.1994C34.1629 37.0928 34.179 36.9861 34.2159 36.8859C34.2527 36.7857 34.3096 36.6941 34.3829 36.6165C34.5195 36.4863 34.6976 36.4084 34.886 36.3965V36.1289H35.1662V36.3993C35.2518 36.41 35.3353 36.4331 35.4142 36.468C35.5057 36.5059 35.5872 36.5644 35.6524 36.6389C35.7156 36.72 35.7632 36.8122 35.7925 36.9108C35.8298 37.0281 35.8528 37.1495 35.8612 37.2723V37.3297L35.3442 37.4698V37.3858C35.3367 37.2912 35.3212 37.1975 35.2979 37.1055C35.2822 37.0351 35.2462 36.9707 35.1942 36.9206C35.1662 36.8981 35.1337 36.8819 35.0989 36.873C35.0641 36.864 35.0278 36.8626 34.9925 36.8687C34.9139 36.8696 34.838 36.8967 34.7767 36.9458C34.7514 36.9728 34.7322 37.0049 34.7204 37.04C34.7085 37.075 34.7043 37.1122 34.708 37.149C34.7045 37.2199 34.7185 37.2906 34.7487 37.3549C34.785 37.4213 34.8324 37.481 34.8888 37.5315L35.4268 38.0023C35.5106 38.0785 35.5879 38.1614 35.658 38.2503C35.7365 38.3443 35.8011 38.4491 35.85 38.5614C35.8979 38.6851 35.9216 38.8168 35.92 38.9495C35.9229 39.0921 35.8917 39.2333 35.829 39.3615C35.7709 39.4762 35.6828 39.5731 35.5739 39.6417C35.4788 39.7014 35.3725 39.741 35.2615 39.758L35.2601 40.048ZM34.3087 38.8332C34.3202 39.0352 34.3892 39.2297 34.5076 39.3937C34.5741 39.4736 34.6585 39.5367 34.7539 39.5779C34.8494 39.619 34.9532 39.6371 35.0569 39.6305H35.1256H35.1816C35.2929 39.6208 35.4004 39.5853 35.4955 39.5268C35.5862 39.4726 35.6604 39.3946 35.7099 39.3012C35.7625 39.1926 35.7884 39.073 35.7855 38.9523C35.7875 38.8374 35.7671 38.7231 35.7253 38.616C35.6861 38.5153 35.6323 38.4208 35.5655 38.3358C35.501 38.253 35.4293 38.1761 35.3512 38.106L34.8131 37.6338C34.7426 37.5728 34.6829 37.5003 34.6366 37.4194C34.5962 37.3347 34.5769 37.2414 34.5805 37.1476C34.5762 37.0909 34.5843 37.034 34.6041 36.9808C34.6239 36.9276 34.6551 36.8793 34.6954 36.8393C34.7801 36.7696 34.8856 36.7301 34.9953 36.7272C35.0498 36.7195 35.1054 36.7235 35.1584 36.739C35.2113 36.7545 35.2603 36.781 35.3021 36.8169C35.372 36.8858 35.4206 36.9734 35.4422 37.0691C35.4611 37.1418 35.4747 37.2158 35.4829 37.2905L35.7253 37.226C35.7159 37.1342 35.6971 37.0436 35.6692 36.9556C35.6424 36.8729 35.6011 36.7956 35.5473 36.7272C35.4966 36.6676 35.4335 36.6198 35.3624 36.5871C35.2787 36.5499 35.189 36.5286 35.0975 36.524H35.0345H34.9672C34.7903 36.5214 34.6191 36.5871 34.4894 36.7076C34.4268 36.7725 34.3783 36.8498 34.3472 36.9344C34.3161 37.0191 34.303 37.1094 34.3087 37.1994C34.3076 37.2883 34.3185 37.3769 34.3409 37.4628C34.3595 37.5363 34.3908 37.606 34.4334 37.6688C34.4795 37.7367 34.5336 37.7988 34.5945 37.8538L35.134 38.3204C35.2293 38.4047 35.3157 38.4986 35.3918 38.6006C35.4717 38.7148 35.5116 38.8523 35.5053 38.9915C35.5118 39.1097 35.4733 39.2259 35.3974 39.3166C35.3115 39.3947 35.1996 39.438 35.0835 39.438C34.9675 39.438 34.8556 39.3947 34.7697 39.3166C34.6934 39.2334 34.6407 39.1313 34.6169 39.021C34.5944 38.9373 34.5784 38.8521 34.5693 38.7659L34.3087 38.8332Z" fill="black"/>
<path d="M35.0427 40.9165C34.4827 40.9165 33.9352 40.7505 33.4695 40.4393C33.0038 40.1281 32.6408 39.6859 32.4265 39.1684C32.2122 38.651 32.1561 38.0816 32.2654 37.5323C32.3746 36.983 32.6443 36.4784 33.0404 36.0823C33.4364 35.6863 33.941 35.4166 34.4903 35.3073C35.0396 35.1981 35.609 35.2542 36.1264 35.4685C36.6438 35.6828 37.0861 36.0458 37.3973 36.5115C37.7084 36.9772 37.8745 37.5247 37.8745 38.0847C37.8738 38.8356 37.5752 39.5554 37.0443 40.0863C36.5134 40.6172 35.7935 40.9158 35.0427 40.9165ZM35.0427 35.393C34.5104 35.393 33.99 35.5509 33.5473 35.8467C33.1047 36.1424 32.7597 36.5628 32.5559 37.0547C32.3522 37.5465 32.2989 38.0877 32.4028 38.6099C32.5066 39.132 32.763 39.6116 33.1394 39.988C33.5159 40.3645 33.9955 40.6208 34.5176 40.7247C35.0397 40.8286 35.5809 40.7753 36.0728 40.5715C36.5646 40.3678 36.985 40.0228 37.2808 39.5802C37.5765 39.1375 37.7344 38.6171 37.7344 38.0847C37.7337 37.3711 37.4498 36.6869 36.9452 36.1822C36.4406 35.6776 35.7564 35.3938 35.0427 35.393Z" fill="black"/>
<path d="M35.044 40.6211C34.5424 40.6211 34.052 40.4724 33.635 40.1937C33.2179 39.915 32.8928 39.519 32.7009 39.0555C32.5089 38.5921 32.4587 38.0822 32.5565 37.5902C32.6544 37.0982 32.8959 36.6463 33.2506 36.2917C33.6053 35.937 34.0572 35.6954 34.5492 35.5976C35.0411 35.4997 35.5511 35.5499 36.0145 35.7419C36.4779 35.9338 36.874 36.2589 37.1527 36.676C37.4314 37.093 37.5801 37.5834 37.5801 38.085C37.5794 38.7574 37.3119 39.402 36.8365 39.8775C36.361 40.353 35.7164 40.6204 35.044 40.6211ZM35.044 35.6889C34.5701 35.6889 34.1068 35.8295 33.7128 36.0928C33.3188 36.356 33.0117 36.7302 32.8303 37.1681C32.649 37.6059 32.6015 38.0876 32.694 38.5524C32.7864 39.0172 33.0146 39.4441 33.3497 39.7792C33.6848 40.1143 34.1117 40.3425 34.5765 40.435C35.0413 40.5274 35.5231 40.48 35.9609 40.2986C36.3987 40.1173 36.7729 39.8102 37.0362 39.4162C37.2995 39.0221 37.44 38.5589 37.44 38.085C37.4392 37.4497 37.1866 36.8407 36.7374 36.3916C36.2882 35.9424 35.6792 35.6897 35.044 35.6889Z" fill="black"/>
</g>
<g opacity="0.3">
<path d="M72.5779 76.2142H72.2402V75.8093C72.0716 75.8098 71.905 75.7723 71.7529 75.6995C71.6008 75.6267 71.4671 75.5206 71.3617 75.3889C71.1469 75.0918 71.0294 74.7355 71.0254 74.3689V74.3128L71.7456 74.118V74.2035C71.7561 74.3625 71.7814 74.5201 71.8213 74.6743C71.8523 74.8057 71.9159 74.9271 72.0062 75.0274C72.0507 75.0715 72.1041 75.1055 72.1628 75.1272C72.2216 75.149 72.2842 75.1579 72.3467 75.1535C72.4081 75.1587 72.4699 75.1506 72.5279 75.1298C72.586 75.109 72.6388 75.076 72.683 75.033C72.7658 74.9304 72.8063 74.8002 72.7965 74.6687C72.8047 74.5006 72.758 74.3343 72.6634 74.1951C72.557 74.0558 72.4374 73.9273 72.3061 73.8112L71.5116 73.1106C71.4112 73.0199 71.3223 72.9174 71.2468 72.8051C71.1732 72.6965 71.1187 72.5762 71.0856 72.4492C71.0486 72.307 71.0307 72.1604 71.0324 72.0135C71.0239 71.8598 71.0467 71.7061 71.0995 71.5616C71.1522 71.417 71.2338 71.2848 71.3393 71.1727C71.5446 70.9786 71.8135 70.8656 72.0959 70.8547V70.4609H72.4406V70.8575C72.5745 70.8712 72.7054 70.9057 72.8287 70.9598C72.9581 71.0185 73.0722 71.1063 73.1622 71.2162C73.2562 71.3328 73.328 71.4658 73.3738 71.6085C73.4269 71.7798 73.4603 71.9565 73.4733 72.1354V72.1942L72.7727 72.3834V72.2993C72.7628 72.1575 72.7403 72.0168 72.7054 71.8789C72.6794 71.7687 72.6225 71.6681 72.5415 71.5889C72.4968 71.5522 72.4448 71.5255 72.389 71.5105C72.3332 71.4956 72.2748 71.4927 72.2178 71.502C72.0933 71.504 71.973 71.5474 71.8759 71.6253C71.8349 71.6686 71.8036 71.7201 71.7841 71.7764C71.7645 71.8326 71.7571 71.8924 71.7624 71.9518C71.7583 72.0623 71.7804 72.1723 71.8269 72.2727C71.8862 72.3742 71.9614 72.4655 72.0497 72.5431L72.8483 73.2437C72.9712 73.3546 73.0846 73.4755 73.1874 73.6052C73.295 73.7432 73.3827 73.8955 73.448 74.0578C73.517 74.2365 73.5513 74.4267 73.5489 74.6183C73.5532 74.8243 73.5085 75.0284 73.4186 75.2138C73.3358 75.3806 73.2094 75.522 73.0529 75.6229C72.9074 75.7141 72.744 75.7729 72.5737 75.7953L72.5779 76.2142ZM72.3803 76.0741H72.4378V75.6734L72.5008 75.6664C72.6713 75.6524 72.8361 75.5982 72.9814 75.508C73.1172 75.4201 73.2266 75.2971 73.2981 75.1521C73.3774 74.9865 73.4168 74.8046 73.413 74.6211C73.4153 74.4464 73.3844 74.2728 73.3219 74.1096C73.2616 73.9589 73.1805 73.8174 73.0809 73.6893C72.983 73.5659 72.8752 73.4506 72.7587 73.3446L71.96 72.644C71.8598 72.5556 71.7746 72.4515 71.7078 72.3357C71.65 72.2152 71.6221 72.0826 71.6265 71.949C71.6212 71.8698 71.6329 71.7903 71.6607 71.7159C71.6885 71.6415 71.7317 71.5738 71.7876 71.5174C71.9061 71.4191 72.0541 71.3634 72.208 71.3591C72.2844 71.3487 72.3622 71.3544 72.4363 71.3759C72.5104 71.3974 72.5791 71.4341 72.6381 71.4838C72.7391 71.5807 72.8097 71.7048 72.8413 71.8411C72.8724 71.9602 72.8939 72.0815 72.9058 72.204L73.3261 72.0891C73.3132 71.9411 73.2841 71.795 73.2393 71.6534C73.1987 71.5268 73.1356 71.4086 73.0529 71.3045C72.9767 71.2122 72.881 71.138 72.7727 71.0873C72.6447 71.0308 72.5074 70.9985 72.3677 70.992H72.3033V70.6067H72.2388V70.9948H72.1702C71.9003 70.9912 71.6394 71.0915 71.4415 71.275C71.3492 71.374 71.278 71.4908 71.2322 71.6183C71.1864 71.7457 71.1671 71.8811 71.1753 72.0163C71.174 72.1509 71.19 72.2851 71.223 72.4156C71.2518 72.5273 71.2991 72.6334 71.3631 72.7295C71.4326 72.832 71.514 72.9261 71.6055 73.0097L72.3985 73.7103C72.5372 73.833 72.6638 73.9686 72.7769 74.1152C72.8897 74.2797 72.9458 74.4765 72.9366 74.6757C72.947 74.8424 72.8934 75.0068 72.7867 75.1353C72.7292 75.1924 72.6603 75.2367 72.5844 75.2652C72.5086 75.2937 72.4276 75.3058 72.3467 75.3007C72.265 75.3047 72.1834 75.2916 72.1072 75.2622C72.0309 75.2327 71.9617 75.1876 71.9039 75.1297C71.798 75.0128 71.7233 74.8712 71.6867 74.7178C71.6511 74.5821 71.6263 74.4439 71.6125 74.3044L71.1641 74.4263C71.1758 74.7446 71.2817 75.0523 71.4682 75.3105C71.6503 75.5487 71.925 75.6678 72.3089 75.6748H72.3775L72.3803 76.0741Z" fill="black"/>
<path d="M72.2899 77.5017C71.4665 77.5017 70.6617 77.2575 69.9771 76.8001C69.2925 76.3426 68.7589 75.6925 68.4438 74.9318C68.1288 74.1711 68.0463 73.3341 68.2069 72.5266C68.3676 71.719 68.764 70.9773 69.3462 70.3951C69.9284 69.8129 70.6702 69.4164 71.4777 69.2558C72.2852 69.0951 73.1223 69.1776 73.8829 69.4927C74.6436 69.8077 75.2938 70.3413 75.7512 71.0259C76.2086 71.7105 76.4528 72.5154 76.4528 73.3387C76.4517 74.4425 76.0127 75.5007 75.2323 76.2811C74.4518 77.0616 73.3936 77.5005 72.2899 77.5017ZM72.2899 69.3173C71.4942 69.3173 70.7164 69.5533 70.0548 69.9954C69.3932 70.4375 68.8776 71.0658 68.5732 71.801C68.2687 72.5361 68.1891 73.3451 68.3445 74.1255C68.4998 74.9058 68.8831 75.6226 69.4458 76.1852C70.0086 76.7477 70.7255 77.1308 71.5059 77.2858C72.2864 77.4409 73.0953 77.361 73.8303 77.0563C74.5653 76.7516 75.1935 76.2358 75.6354 75.5741C76.0772 74.9123 76.3129 74.1344 76.3127 73.3387C76.3116 72.2723 75.8873 71.2498 75.1331 70.4959C74.3789 69.7419 73.3563 69.318 72.2899 69.3173Z" fill="black"/>
<path d="M72.2896 77.0648C71.5527 77.0651 70.8322 76.8468 70.2194 76.4376C69.6065 76.0284 69.1287 75.4466 68.8465 74.7658C68.5643 74.085 68.4903 73.3359 68.6339 72.613C68.7775 71.8902 69.1323 71.2262 69.6533 70.705C70.1743 70.1838 70.8381 69.8288 71.5609 69.685C72.2836 69.5411 73.0328 69.6148 73.7137 69.8968C74.3946 70.1787 74.9765 70.6563 75.386 71.269C75.7954 71.8817 76.014 72.6021 76.014 73.3391C76.0133 74.3267 75.6207 75.2737 74.9224 75.9722C74.2242 76.6708 73.2773 77.0637 72.2896 77.0648ZM72.2896 69.7548C71.5804 69.7545 70.8869 69.9646 70.2971 70.3585C69.7072 70.7524 69.2474 71.3124 68.9758 71.9676C68.7043 72.6229 68.6331 73.344 68.7715 74.0396C68.9098 74.7353 69.2513 75.3743 69.7528 75.8759C70.2544 76.3774 70.8934 76.719 71.5891 76.8573C72.2847 76.9956 73.0058 76.9245 73.6611 76.6529C74.3163 76.3813 74.8763 75.9215 75.2702 75.3317C75.6641 74.7418 75.8742 74.0483 75.8739 73.3391C75.8728 72.3888 75.4948 71.4778 74.8228 70.8058C74.1509 70.1339 73.2399 69.7559 72.2896 69.7548Z" fill="black"/>
</g>
<g opacity="0.3">
<path d="M44.3017 73.4408H44.0214V73.1605C43.9083 73.158 43.797 73.1308 43.6954 73.081C43.5938 73.0312 43.5042 72.9598 43.4329 72.8719C43.2858 72.6677 43.2056 72.423 43.2031 72.1713V72.1139L43.7328 71.9737V72.0592C43.7406 72.1652 43.7579 72.2702 43.7846 72.3731C43.8046 72.458 43.8456 72.5365 43.9037 72.6015C43.9318 72.6287 43.9652 72.6497 44.0019 72.6632C44.0386 72.6767 44.0777 72.6824 44.1167 72.6799C44.155 72.6832 44.1936 72.6783 44.2298 72.6655C44.266 72.6527 44.2991 72.6323 44.3269 72.6057C44.3782 72.54 44.4032 72.4576 44.3969 72.3745C44.4027 72.2662 44.3732 72.159 44.3129 72.069C44.2415 71.976 44.1612 71.8901 44.0733 71.8126L43.5534 71.3432C43.4847 71.2805 43.4235 71.21 43.3713 71.133C43.3202 71.0572 43.2823 70.9734 43.2592 70.885C43.234 70.7871 43.2217 70.6863 43.2227 70.5852C43.2168 70.4785 43.2327 70.3718 43.2696 70.2715C43.3064 70.1713 43.3635 70.0796 43.4371 70.0023C43.5735 69.8718 43.7517 69.7939 43.9401 69.7823V69.5146H44.2204V69.7851C44.3064 69.7957 44.3904 69.8189 44.4698 69.8537C44.5604 69.8942 44.6402 69.9557 44.7024 70.0331C44.7686 70.1133 44.8185 70.2056 44.8495 70.3049C44.8868 70.4222 44.9098 70.5436 44.9182 70.6664V70.7239L44.4025 70.864L44.3955 70.7799C44.3891 70.6853 44.3741 70.5915 44.3507 70.4997C44.3341 70.4295 44.2982 70.3655 44.247 70.3147C44.219 70.2923 44.1865 70.2761 44.1517 70.2671C44.1169 70.2582 44.0806 70.2567 44.0452 70.2629C43.9663 70.264 43.89 70.2911 43.8281 70.3399C43.8031 70.3672 43.7841 70.3993 43.7722 70.4343C43.7604 70.4693 43.756 70.5063 43.7594 70.5431C43.7566 70.614 43.7705 70.6846 43.8 70.7491C43.8373 70.8148 43.8846 70.8744 43.9401 70.9256L44.4782 71.3964C44.5623 71.4723 44.6397 71.5552 44.7094 71.6445C44.7844 71.7389 44.8452 71.8436 44.8901 71.9555C44.9375 72.0793 44.9608 72.2111 44.9588 72.3437C44.9621 72.4861 44.9313 72.6274 44.8691 72.7556C44.8107 72.8701 44.7226 72.9669 44.6141 73.0358C44.519 73.0956 44.4127 73.1351 44.3017 73.1521V73.4408ZM43.3517 72.2288C43.3625 72.4309 43.4316 72.6255 43.5506 72.7892C43.6169 72.869 43.7011 72.932 43.7963 72.9731C43.8914 73.0142 43.995 73.0324 44.0985 73.026H44.1671H44.2246C44.3338 73.0176 44.4397 72.9846 44.5342 72.9293C44.6223 72.8721 44.6934 72.7922 44.7402 72.6982C44.7917 72.5892 44.8171 72.4697 44.8145 72.3493C44.8162 72.2345 44.7963 72.1204 44.7556 72.013C44.7159 71.9125 44.6621 71.8181 44.5959 71.7327C44.531 71.6503 44.4593 71.5734 44.3815 71.5029L43.8421 71.0307C43.7723 70.9694 43.7132 70.8969 43.6669 70.8164C43.626 70.7318 43.6063 70.6385 43.6095 70.5445C43.6054 70.4878 43.6137 70.4309 43.6338 70.3776C43.6539 70.3244 43.6853 70.2762 43.7258 70.2363C43.8101 70.1659 43.9158 70.1264 44.0256 70.1242C44.0802 70.1166 44.1358 70.1206 44.1887 70.1361C44.2416 70.1515 44.2906 70.178 44.3325 70.2138C44.4019 70.2831 44.4504 70.3705 44.4726 70.4661C44.4908 70.5389 44.5044 70.6129 44.5132 70.6874L44.7542 70.623C44.7454 70.5311 44.7266 70.4404 44.6982 70.3526C44.6725 70.2693 44.6311 70.1918 44.5763 70.1242C44.5263 70.0643 44.4636 70.0164 44.3927 69.984C44.3091 69.9469 44.2193 69.9255 44.1279 69.921H44.0649H43.9976C43.8206 69.9182 43.6494 69.9839 43.5198 70.1045C43.4594 70.1689 43.4128 70.2451 43.3832 70.3283C43.3535 70.4115 43.3414 70.4999 43.3474 70.588C43.3467 70.6767 43.357 70.7652 43.3783 70.8514C43.3982 70.9247 43.4299 70.9942 43.4722 71.0574C43.5182 71.1249 43.5717 71.187 43.6319 71.2423L44.1671 71.7131C44.2621 71.7978 44.3484 71.8917 44.425 71.9934C44.5036 72.1076 44.543 72.2443 44.5371 72.3829C44.5446 72.5009 44.5064 72.6173 44.4306 72.708C44.3899 72.7494 44.3409 72.7815 44.2867 72.8023C44.2326 72.8231 44.1746 72.832 44.1167 72.8285C44.0585 72.8309 44.0004 72.8212 43.9461 72.8C43.8918 72.7787 43.8426 72.7464 43.8014 72.7052C43.7275 72.623 43.6751 72.5238 43.6487 72.4165C43.6268 72.3327 43.6109 72.2475 43.6011 72.1615L43.3517 72.2288Z" fill="black"/>
<path d="M44.0843 74.3101C43.5243 74.3098 42.9769 74.1435 42.5114 73.8322C42.0459 73.5208 41.6832 73.0785 41.4691 72.561C41.2549 72.0435 41.1991 71.4742 41.3085 70.925C41.4179 70.3758 41.6877 69.8713 42.0838 69.4754C42.4799 69.0795 42.9845 68.8099 43.5338 68.7008C44.083 68.5916 44.6523 68.6478 45.1697 68.8622C45.6871 69.0766 46.1292 69.4395 46.4403 69.9052C46.7514 70.3708 46.9175 70.9183 46.9175 71.4783C46.9164 72.2292 46.6175 72.9491 46.0864 73.4799C45.5552 74.0108 44.8352 74.3094 44.0843 74.3101ZM44.0843 68.7866C43.552 68.7869 43.0317 68.945 42.5893 69.2409C42.1468 69.5369 41.802 69.9573 41.5985 70.4492C41.395 70.9411 41.3419 71.4822 41.4459 72.0043C41.5499 72.5263 41.8064 73.0058 42.1829 73.3821C42.5594 73.7584 43.039 74.0146 43.5611 74.1184C44.0832 74.2221 44.6243 74.1687 45.1161 73.965C45.6078 73.7612 46.0281 73.4162 46.3238 72.9736C46.6195 72.531 46.7774 72.0106 46.7774 71.4783C46.7766 70.7644 46.4926 70.08 45.9877 69.5753C45.4828 69.0706 44.7982 68.787 44.0843 68.7866Z" fill="black"/>
<path d="M44.0836 74.0147C43.582 74.0144 43.0918 73.8654 42.6749 73.5866C42.2581 73.3078 41.9332 72.9116 41.7415 72.4481C41.5497 71.9847 41.4997 71.4748 41.5977 70.9829C41.6957 70.491 41.9374 70.0393 42.2921 69.6847C42.6469 69.3302 43.0988 69.0888 43.5907 68.991C44.0826 68.8933 44.5925 68.9436 45.0558 69.1356C45.5192 69.3276 45.9152 69.6526 46.1938 70.0697C46.4724 70.4867 46.6211 70.977 46.6211 71.4785C46.6204 72.1512 46.3527 72.796 45.877 73.2715C45.4012 73.747 44.7562 74.0143 44.0836 74.0147ZM44.0836 69.0825C43.6097 69.0828 43.1466 69.2235 42.7528 69.487C42.359 69.7504 42.0521 70.1247 41.8709 70.5626C41.6898 71.0004 41.6425 71.4821 41.7352 71.9468C41.8278 72.4115 42.0561 72.8383 42.3912 73.1733C42.7264 73.5082 43.1533 73.7363 43.618 73.8286C44.0828 73.921 44.5645 73.8734 45.0022 73.6921C45.4399 73.5107 45.8141 73.2036 46.0773 72.8096C46.3405 72.4156 46.481 71.9524 46.481 71.4785C46.4802 70.8431 46.2274 70.2338 45.7779 69.7846C45.3284 69.3354 44.719 69.0829 44.0836 69.0825Z" fill="black"/>
</g>
<g opacity="0.3">
<path d="M84.6649 22.99H84.3847V22.7098C84.2718 22.708 84.1606 22.6813 84.0591 22.6316C83.9577 22.582 83.8684 22.5106 83.7976 22.4226C83.6498 22.2186 83.569 21.9738 83.5664 21.722V21.6659L84.0975 21.5258V21.6099C84.1041 21.7163 84.121 21.8219 84.1479 21.9251C84.1682 22.0095 84.2091 22.0875 84.267 22.1521C84.2951 22.1793 84.3285 22.2004 84.3652 22.2139C84.4019 22.2274 84.441 22.2331 84.48 22.2306C84.5183 22.2342 84.557 22.2295 84.5933 22.2167C84.6296 22.2038 84.6626 22.1832 84.6902 22.1563C84.742 22.0915 84.7671 22.0093 84.7602 21.9265C84.766 21.8179 84.7365 21.7102 84.6761 21.6197C84.6052 21.5271 84.5254 21.4417 84.4379 21.3647L83.9097 20.8911C83.841 20.8283 83.7799 20.7578 83.7275 20.6809C83.6765 20.6056 83.6386 20.5222 83.6154 20.4343C83.5902 20.3363 83.578 20.2355 83.579 20.1344C83.5725 20.0266 83.5881 19.9187 83.625 19.8172C83.6619 19.7158 83.7192 19.6229 83.7934 19.5445C83.9299 19.4145 84.1082 19.337 84.2964 19.3259V19.0625H84.5767V19.3343C84.6628 19.3442 84.747 19.3674 84.8261 19.403C84.9163 19.4442 84.9963 19.505 85.0601 19.5809C85.1241 19.6646 85.1716 19.7597 85.2002 19.8612C85.2377 19.9784 85.2608 20.0998 85.2688 20.2227V20.2801L84.7532 20.4203L84.7462 20.3348C84.7398 20.2402 84.7248 20.1464 84.7014 20.0545C84.6851 19.9843 84.6491 19.9201 84.5977 19.8696C84.5697 19.8469 84.5373 19.8304 84.5025 19.8212C84.4677 19.8121 84.4314 19.8104 84.3959 19.8163C84.3175 19.8178 84.2417 19.8449 84.1801 19.8934C84.1543 19.9203 84.1346 19.9526 84.1225 19.9879C84.1104 20.0233 84.1061 20.0608 84.1101 20.098C84.1066 20.1686 84.1211 20.239 84.1521 20.3026C84.1885 20.3689 84.2358 20.4286 84.2922 20.4791L84.8415 20.9457C84.9257 21.0218 85.0035 21.1048 85.0741 21.1937C85.1483 21.2889 85.2087 21.3941 85.2534 21.5062C85.3013 21.6304 85.3251 21.7626 85.3235 21.8957C85.326 22.0383 85.2948 22.1794 85.2324 22.3077C85.1748 22.4227 85.0865 22.5197 84.9774 22.5879C84.8824 22.6481 84.776 22.6881 84.6649 22.7056V22.99ZM83.7149 21.7738C83.7227 21.9797 83.7903 22.1789 83.9097 22.3469C83.9762 22.4264 84.0604 22.4892 84.1555 22.5303C84.2507 22.5714 84.3541 22.5897 84.4576 22.5837H84.5262H84.5837C84.6951 22.5747 84.8027 22.5391 84.8975 22.48C84.9859 22.4236 85.0571 22.3442 85.1035 22.2502C85.1558 22.1415 85.1818 22.0219 85.1792 21.9013C85.1806 21.7864 85.1602 21.6723 85.1189 21.565C85.08 21.4641 85.0262 21.3697 84.9592 21.2848C84.8967 21.2003 84.8268 21.1215 84.7504 21.0494L84.211 20.5772C84.1412 20.5153 84.082 20.4424 84.0358 20.3614C83.995 20.2772 83.9753 20.1844 83.9784 20.091C83.9743 20.0342 83.9826 19.9773 84.0027 19.9241C84.0228 19.8709 84.0542 19.8226 84.0947 19.7827C84.179 19.7124 84.2847 19.6728 84.3945 19.6706C84.4491 19.6627 84.5047 19.6667 84.5577 19.6821C84.6106 19.6976 84.6596 19.7243 84.7014 19.7603C84.7712 19.8287 84.8198 19.9158 84.8415 20.0111C84.8603 20.0843 84.8738 20.1588 84.8821 20.2339L85.1231 20.168C85.1141 20.0762 85.0953 19.9855 85.0671 19.8976C85.0416 19.815 85.0007 19.738 84.9466 19.6706C84.8966 19.6102 84.8333 19.5623 84.7616 19.5305C84.678 19.4933 84.5882 19.472 84.4968 19.4674H84.4337H84.3665C84.1898 19.4648 84.0188 19.53 83.8887 19.6496C83.8282 19.7142 83.7817 19.7907 83.752 19.8741C83.7224 19.9575 83.7102 20.0461 83.7163 20.1344C83.7157 20.2232 83.726 20.3116 83.7472 20.3978C83.7672 20.4706 83.7989 20.5397 83.841 20.6024C83.8867 20.6702 83.9403 20.7323 84.0008 20.7874L84.536 21.2596C84.631 21.3442 84.7174 21.4381 84.7938 21.5398C84.8723 21.6546 84.9116 21.7918 84.9059 21.9307C84.9134 22.0487 84.8753 22.1651 84.7994 22.2558C84.7587 22.297 84.7096 22.329 84.6555 22.3496C84.6013 22.3701 84.5434 22.3788 84.4856 22.3749C84.4275 22.3775 84.3694 22.368 84.3152 22.347C84.2609 22.3261 84.2116 22.294 84.1703 22.253C84.0964 22.1708 84.044 22.0717 84.0176 21.9644C83.9964 21.8805 83.9809 21.7953 83.9714 21.7093L83.7149 21.7738Z" fill="black"/>
<path d="M84.4479 23.8588C83.8874 23.8591 83.3394 23.6931 82.8733 23.3819C82.4072 23.0707 82.0438 22.6282 81.8292 22.1105C81.6146 21.5927 81.5584 21.0229 81.6677 20.4732C81.7769 19.9235 82.0468 19.4185 82.4431 19.0222C82.8394 18.6259 83.3444 18.356 83.8941 18.2468C84.4438 18.1375 85.0136 18.1937 85.5313 18.4083C86.0491 18.6229 86.4916 18.9863 86.8028 19.4524C87.114 19.9186 87.2799 20.4665 87.2797 21.027C87.2786 21.7777 86.9798 22.4973 86.449 23.0282C85.9182 23.559 85.1986 23.8577 84.4479 23.8588ZM84.4479 18.3339C83.9152 18.3336 83.3944 18.4913 82.9513 18.7871C82.5082 19.0828 82.1628 19.5033 81.9588 19.9954C81.7548 20.4875 81.7012 21.029 81.805 21.5515C81.9087 22.074 82.1651 22.554 82.5417 22.9308C82.9183 23.3076 83.3981 23.5642 83.9206 23.6682C84.443 23.7723 84.9846 23.719 85.4767 23.5152C85.9689 23.3114 86.3896 22.9662 86.6856 22.5233C86.9816 22.0804 87.1395 21.5597 87.1395 21.027C87.1388 20.3132 86.855 19.6289 86.3504 19.124C85.8459 18.6192 85.1617 18.335 84.4479 18.3339Z" fill="black"/>
<path d="M84.4471 23.5634C83.9451 23.5637 83.4543 23.415 83.0368 23.1363C82.6193 22.8576 82.2939 22.4613 82.1016 21.9976C81.9094 21.5338 81.859 21.0235 81.9569 20.5311C82.0548 20.0388 82.2965 19.5865 82.6514 19.2315C83.0064 18.8765 83.4587 18.6348 83.951 18.537C84.4434 18.4391 84.9537 18.4895 85.4175 18.6817C85.8812 18.8739 86.2775 19.1994 86.5562 19.6169C86.8349 20.0344 86.9836 20.5252 86.9833 21.0272C86.9825 21.6996 86.7151 22.3443 86.2396 22.8198C85.7642 23.2952 85.1195 23.5627 84.4471 23.5634ZM84.4471 18.6298C83.9729 18.6295 83.5093 18.7699 83.1148 19.0332C82.7204 19.2964 82.4129 19.6708 82.2312 20.1088C82.0495 20.5469 82.0019 21.0289 82.0942 21.4941C82.1866 21.9592 82.4148 22.3866 82.75 22.722C83.0852 23.0574 83.5124 23.2859 83.9775 23.3785C84.4426 23.4711 84.9247 23.4237 85.3629 23.2423C85.801 23.0609 86.1755 22.7536 86.439 22.3593C86.7025 21.965 86.8432 21.5015 86.8432 21.0272C86.8424 20.3919 86.5898 19.7827 86.1407 19.3333C85.6915 18.8839 85.0825 18.6309 84.4471 18.6298Z" fill="black"/>
</g>
<path d="M80.2113 33.6552C80.2113 33.6552 74.5 31.6936 70.8598 29.4236C67.2195 27.1537 64.7562 26.2738 63.4755 26.4699C62.1948 26.6661 59.3392 26.6661 57.2739 27.0612C55.2085 27.4564 53.911 27.8487 53.5327 28.8323C53.1544 29.816 54.8134 32.5735 56.8787 33.1648C58.9441 33.7561 63.0916 36.5109 63.0916 36.5109C63.0916 36.5109 45.078 53.7399 45.7673 55.511C46.4567 57.2821 54.3314 64.4786 55.4131 64.5683C56.4948 64.6579 72.7402 59.6445 73.7238 59.4483C75.9179 58.9582 78.0099 58.0896 79.9058 56.8813C81.187 56.0602 82.3756 55.1027 83.4508 54.0257L91.6225 50.4807L82.3747 32.6632L80.2113 33.6552Z" fill="white"/>
<path d="M55.4312 64.7092H55.392C54.1281 64.5971 46.2787 57.2465 45.6257 55.565C44.9364 53.7939 60.4979 38.7984 62.8603 36.5341C62.1065 36.0437 58.6568 33.8186 56.8436 33.303C55.4424 32.9022 54.2486 31.5683 53.6882 30.4249C53.3547 29.7439 53.2538 29.161 53.4079 28.7827C53.8199 27.7599 55.0893 27.3423 57.2528 26.9247C58.6045 26.7076 59.9679 26.5701 61.3358 26.5128C62.2046 26.4596 62.9556 26.4119 63.46 26.3334C64.8752 26.1149 67.4618 27.1461 70.9395 29.3068C74.3416 31.4226 79.6269 33.303 80.2098 33.5103L82.3256 32.5491C82.3585 32.5351 82.3955 32.534 82.4292 32.5459C82.4629 32.5578 82.4909 32.582 82.5077 32.6136L91.7555 50.4311C91.7638 50.4486 91.7681 50.4678 91.7681 50.4871C91.7681 50.5065 91.7638 50.5257 91.7555 50.5432C91.749 50.5611 91.7389 50.5775 91.7259 50.5915C91.7129 50.6054 91.6973 50.6166 91.6799 50.6245L83.5502 54.1527C82.4694 55.2237 81.2804 56.1797 80.0024 57.0055C78.0814 58.2231 75.9629 59.0965 73.7419 59.5865C73.4308 59.6481 71.5 60.2226 69.0564 60.9484C62.3727 62.9297 56.3056 64.7092 55.4312 64.7092ZM63.8524 26.5969C63.7342 26.5963 63.6161 26.6047 63.4993 26.6221C62.9808 26.7034 62.2242 26.7482 61.3498 26.8042C59.9931 26.8599 58.6409 26.9965 57.3004 27.2134C55.2211 27.6085 54.0244 27.9953 53.6573 28.8948C53.5396 29.1891 53.6573 29.7187 53.9376 30.31C54.47 31.3973 55.5994 32.664 56.9165 33.0423C58.9818 33.6308 62.9892 36.2931 63.1574 36.4052C63.1752 36.4169 63.1901 36.4327 63.2008 36.4511C63.2115 36.4696 63.2177 36.4904 63.219 36.5117C63.2216 36.5324 63.2191 36.5534 63.2118 36.5729C63.2045 36.5924 63.1925 36.6099 63.177 36.6238C55.9637 43.5232 45.4044 54.2367 45.8836 55.4726C46.5757 57.2465 54.4084 64.3477 55.4116 64.4402C56.1066 64.5018 64.1634 62.117 68.9695 60.6906C71.5168 59.934 73.358 59.3875 73.6831 59.323C75.8644 58.8373 77.9454 57.9783 79.8343 56.7841C81.1029 55.9659 82.2818 55.0163 83.3512 53.9509C83.3652 53.9372 83.3813 53.9259 83.3989 53.9173L91.4389 50.4367L82.3144 32.8686L80.2686 33.799C80.2523 33.806 80.2346 33.8096 80.2168 33.8096C80.199 33.8096 80.1813 33.806 80.1649 33.799C80.1089 33.7794 74.4005 31.8009 70.7854 29.5534C67.6916 27.6197 65.2591 26.5829 63.8524 26.5829V26.5969Z" fill="#263238"/>
<path d="M71.9219 50.2178C71.9219 50.2178 76.075 53.9225 76.5262 55.4975C76.7808 56.5357 76.742 57.6243 76.4141 58.6417L73.7126 59.4488L71.9219 50.2178Z" fill="#263238"/>
<path d="M73.7134 59.589C73.6877 59.5895 73.6624 59.5827 73.6405 59.5694C73.6081 59.5478 73.5851 59.5148 73.5761 59.4769L71.7797 50.2431C71.7743 50.2141 71.7781 50.1842 71.7907 50.1576C71.8032 50.131 71.8238 50.109 71.8495 50.0947C71.8753 50.0804 71.9049 50.0746 71.9341 50.0781C71.9633 50.0816 71.9907 50.0942 72.0123 50.1142C72.1833 50.2655 76.2159 53.8637 76.6587 55.4583C76.9243 56.5248 76.8845 57.6445 76.5438 58.6894C76.5357 58.7098 76.5233 58.7282 76.5073 58.7432C76.4913 58.7583 76.4722 58.7696 76.4513 58.7763L73.7526 59.5834L73.7134 59.589ZM72.1384 50.6046L73.8199 59.2695L76.3 58.5269C76.5996 57.5557 76.6306 56.5214 76.3896 55.534C76.0309 54.2673 73.1081 51.4985 72.1384 50.6046Z" fill="#263238"/>
<path d="M84.8379 38.7617L88.6547 51.5658L91.6308 50.4897L84.8379 38.7617Z" fill="#263238"/>
<path d="M88.6554 51.7056C88.6338 51.7053 88.6126 51.6995 88.5938 51.6888C88.5766 51.6804 88.5613 51.6686 88.5488 51.6542C88.5363 51.6397 88.5268 51.6229 88.5209 51.6047L84.7041 38.8007C84.6953 38.7681 84.6985 38.7334 84.7132 38.7031C84.7279 38.6727 84.7531 38.6487 84.7841 38.6354C84.8152 38.6221 84.8499 38.6204 84.8821 38.6307C84.9142 38.641 84.9416 38.6625 84.9591 38.6914L91.752 50.4193C91.7602 50.4379 91.7644 50.4579 91.7644 50.4782C91.7644 50.4984 91.7602 50.5185 91.752 50.537C91.745 50.5563 91.7339 50.5739 91.7193 50.5884C91.7048 50.603 91.6873 50.6141 91.668 50.6211L88.6918 51.6972C88.6802 51.7017 88.6679 51.7046 88.6554 51.7056ZM85.3122 39.8572L88.7479 51.3833L91.4269 50.4165L85.3122 39.8572Z" fill="#263238"/>
<path d="M56.8801 33.1651C56.8801 33.1651 64.1663 34.4429 65.545 35.0342C66.9238 35.6255 74.4033 43.5983 77.0628 46.0588C79.7222 48.5193 81.0982 52.3613 81.1963 54.8218C81.2944 57.2823 80.3107 60.5303 79.0301 61.0235C77.7494 61.5167 76.8638 60.8273 76.4715 59.8437C76.0792 58.8601 75.8802 56.9881 75.8802 56.9881L74.3025 53.7401C74.4085 55.0229 74.3425 56.3141 74.1063 57.5794C73.7112 59.4486 73.0218 63.3859 71.4468 64.3695C69.8719 65.3532 68.0027 64.7647 67.8038 64.2715C67.6431 63.8216 67.5111 63.362 67.4086 62.8955C67.4086 62.8955 66.9154 64.6666 65.447 65.157C63.9785 65.6474 61.9048 65.0589 61.9048 65.0589C61.9048 65.0589 60.2233 67.0206 58.853 66.6339C57.4826 66.2471 56.0955 64.7647 56.0955 64.7647C56.0955 64.7647 51.4687 61.909 47.2372 58.9553C43.0056 56.0016 35.4224 46.7482 35.4224 46.7482L31.7793 44.4839L42.9047 28.9307L47.6295 31.8844L56.8801 33.1651Z" fill="white"/>
<path d="M59.2309 66.828C59.0888 66.8287 58.9474 66.8098 58.8105 66.772C57.4682 66.3881 56.1567 65.0373 56.0081 64.8748C55.7083 64.687 51.2245 61.907 47.1583 59.071C43.0472 56.2042 35.7106 47.3179 35.3323 46.8555L31.7088 44.6136C31.6921 44.6036 31.6778 44.5902 31.6666 44.5742C31.6555 44.5583 31.6479 44.5402 31.6443 44.5211C31.6384 44.4828 31.6475 44.4437 31.6696 44.4118L42.7866 28.8586C42.807 28.8293 42.838 28.8091 42.8731 28.8023C42.9081 28.7955 42.9444 28.8026 42.9743 28.8222L47.6795 31.7507L56.9021 33.0257C57.1992 33.079 64.2191 34.3148 65.5894 34.9061C66.517 35.3041 70.0312 38.8491 73.1278 41.9765C74.7252 43.5879 76.2328 45.1124 77.1492 45.9587C79.7554 48.3716 81.2239 52.2416 81.3276 54.817C81.4256 57.2579 80.442 60.6292 79.0716 61.156C77.6424 61.7165 76.7205 60.8758 76.3337 59.8949C75.947 58.9141 75.7733 57.2607 75.734 57.0281L74.4758 54.4331C74.5182 55.4971 74.4382 56.5624 74.2376 57.6082L74.1367 58.0902C73.7191 60.1331 73.0157 63.552 71.5165 64.4908C71.065 64.7683 70.5596 64.9466 70.0339 65.0137C69.5082 65.0809 68.9742 65.0354 68.4675 64.8804C68.304 64.8442 68.1492 64.7761 68.0121 64.6799C67.8751 64.5837 67.7584 64.4614 67.6688 64.3199C67.5566 64.0091 67.463 63.6918 67.3886 63.3699C67.1364 63.9472 66.5647 64.928 65.4914 65.2867C64.1462 65.7351 62.3667 65.3203 61.952 65.2139C61.6633 65.5361 60.4303 66.828 59.2309 66.828ZM31.9862 44.4454L35.5032 46.6313C35.5158 46.64 35.5271 46.6504 35.5368 46.6621C35.6125 46.7546 43.1537 55.9352 47.3208 58.8412C51.4879 61.7473 56.1286 64.617 56.1763 64.645L56.2043 64.6702C56.2183 64.6702 57.5719 66.1218 58.8974 66.5001C60.1725 66.8645 61.7866 64.9897 61.8034 64.97C61.821 64.9496 61.844 64.9345 61.8698 64.9266C61.8956 64.9186 61.9231 64.9182 61.9492 64.9252C61.9688 64.9252 63.9921 65.4997 65.4101 65.0261C66.8281 64.5525 67.2821 62.8739 67.2877 62.8571C67.2958 62.8277 67.3134 62.8019 67.3377 62.7836C67.362 62.7654 67.3918 62.7557 67.4222 62.7562C67.4538 62.7561 67.4844 62.767 67.5089 62.7869C67.5334 62.8068 67.5503 62.8346 67.5567 62.8655C67.6585 63.3249 67.7876 63.7778 67.9434 64.2218C68.0982 64.4231 68.3199 64.5623 68.5684 64.6141C69.0345 64.7553 69.5253 64.7961 70.0083 64.7337C70.4913 64.6714 70.9557 64.5075 71.3707 64.2526C72.7719 63.3783 73.4557 60.0323 73.8648 58.0342L73.9657 57.5494C74.1986 56.2978 74.2637 55.0208 74.1591 53.7521C74.156 53.7193 74.1646 53.6865 74.1834 53.6594C74.2021 53.6322 74.2298 53.6126 74.2616 53.6039C74.2934 53.5952 74.3272 53.598 74.3572 53.6118C74.3871 53.6256 74.4113 53.6495 74.4253 53.6793L76.0002 56.9272C76.0078 56.9421 76.0126 56.9582 76.0143 56.9749C76.0143 56.9917 76.2132 58.8356 76.5943 59.7913C76.7597 60.2004 77.4155 61.4923 78.9736 60.8926C80.0945 60.4582 81.1538 57.398 81.0501 54.8282C80.9492 52.3061 79.5116 48.5257 76.9615 46.1633C76.0423 45.3226 74.5318 43.7897 72.9317 42.1755C70.006 39.219 66.3601 35.5395 65.483 35.1696C64.1434 34.5951 57.0198 33.3396 56.8517 33.3088L47.6038 32.0281C47.5848 32.0258 47.5666 32.0191 47.5506 32.0085L42.9351 29.1248L31.9862 44.4454Z" fill="#263238"/>
<path d="M44.2903 33.2578L36.6426 47.9731L35.418 46.7485L44.2903 33.2578Z" fill="#263238"/>
<path d="M36.6442 48.1138C36.6077 48.114 36.5725 48.0999 36.5462 48.0745L35.3215 46.8499C35.2983 46.8273 35.2837 46.7973 35.2802 46.7651C35.2766 46.7329 35.2843 46.7005 35.3019 46.6733L44.1742 33.1799C44.1942 33.1502 44.2248 33.1294 44.2597 33.1215C44.2946 33.1137 44.3312 33.1196 44.362 33.1379C44.3933 33.1555 44.4165 33.1848 44.4264 33.2194C44.4364 33.254 44.4323 33.2912 44.4152 33.3228L36.7675 48.0381C36.7578 48.0577 36.7436 48.0748 36.7261 48.0879C36.7086 48.1011 36.6882 48.1099 36.6667 48.1138H36.6442ZM35.5989 46.7322L36.6078 47.741L42.9159 35.618L35.5989 46.7322Z" fill="#263238"/>
<path d="M59.0463 26.961C59.0463 26.961 54.9072 26.8545 53.9264 27.258C52.245 27.9474 52.1553 30.2117 52.1553 30.604C52.1553 30.9964 50.9755 34.149 50.7766 35.3288C50.5776 36.5086 51.9591 37.1028 55.109 36.0182C58.2589 34.9337 59.1444 33.5577 59.1444 30.604" fill="white"/>
<path d="M52.3418 36.7269C51.8577 36.7625 51.3763 36.6288 50.9799 36.3486C50.8337 36.2222 50.7246 36.0584 50.6644 35.8748C50.6041 35.6911 50.595 35.4945 50.638 35.3061C50.8683 34.3053 51.1546 33.3183 51.4955 32.3496C51.7027 31.7784 51.8758 31.1954 52.014 30.6037C52.014 30.3235 52.0672 27.8714 53.8719 27.1287C54.8696 26.7168 58.8798 26.8177 59.0479 26.8205C59.0666 26.8208 59.0849 26.8249 59.102 26.8325C59.119 26.84 59.1344 26.8509 59.1472 26.8645C59.16 26.8781 59.1699 26.894 59.1765 26.9115C59.183 26.929 59.186 26.9476 59.1852 26.9662C59.1831 27.0026 59.1671 27.0369 59.1405 27.0619C59.1139 27.0869 59.0788 27.1008 59.0423 27.1007C59.0003 27.1007 54.9228 26.9998 53.9784 27.381C52.3418 28.0563 52.297 30.3403 52.297 30.5981C52.297 30.7887 52.1064 31.3884 51.7645 32.4308C51.4303 33.3869 51.1496 34.3608 50.9238 35.3481C50.8895 35.4885 50.8943 35.6357 50.9378 35.7735C50.9813 35.9114 51.0618 36.0347 51.1704 36.13C51.7533 36.6232 53.1741 36.5307 55.0713 35.8806C58.0531 34.8549 59.0115 33.5714 59.0115 30.5981C59.0122 30.5612 59.0272 30.5259 59.0533 30.4998C59.0794 30.4737 59.1147 30.4587 59.1516 30.458C59.1888 30.458 59.2244 30.4727 59.2507 30.499C59.2769 30.5253 59.2917 30.5609 59.2917 30.5981C59.2917 33.7227 58.2885 35.0819 55.161 36.1468C54.2583 36.4896 53.3065 36.6854 52.3418 36.7269Z" fill="#263238"/>
<path d="M51.0735 34.78C51.0478 34.7806 51.0226 34.7738 51.0006 34.7604C50.9718 34.7439 50.9499 34.7174 50.9391 34.686C50.9283 34.6546 50.9292 34.6203 50.9418 34.5895L52.1244 31.5377C52.1326 31.5122 52.1495 31.4904 52.172 31.476C52.6328 31.1612 53.1726 30.9816 53.7302 30.9576C53.8912 30.9492 54.0522 30.9756 54.2022 31.0351C54.3521 31.0946 54.4874 31.1857 54.5989 31.3023C54.8931 31.6246 55.0136 32.143 54.952 32.88C54.9395 33.0606 54.8891 33.2365 54.8042 33.3963C54.7192 33.5562 54.6015 33.6963 54.4588 33.8076C53.9123 34.2532 52.9735 34.3681 52.3346 34.2896C52.1208 34.2669 51.9047 34.2951 51.704 34.3721C51.5033 34.4491 51.3237 34.5725 51.18 34.7324C51.1665 34.7472 51.1501 34.7591 51.1317 34.7673C51.1134 34.7755 51.0936 34.7799 51.0735 34.78ZM52.3682 31.6806L51.3902 34.2027C51.686 34.0294 52.0308 33.9585 52.371 34.001C52.9511 34.0738 53.8002 33.973 54.2822 33.5806C54.3951 33.4929 54.4883 33.3825 54.5559 33.2565C54.6235 33.1305 54.6639 32.9918 54.6746 32.8492C54.7278 32.2046 54.6325 31.7451 54.3943 31.4844C54.3093 31.3963 54.2061 31.3279 54.0918 31.2838C53.9776 31.2398 53.8551 31.2212 53.733 31.2294C53.246 31.2558 52.7749 31.4116 52.3682 31.6806Z" fill="#263238"/>
<path d="M74.3018 53.8805C74.2711 53.8804 74.2413 53.8701 74.217 53.8514C74.1927 53.8327 74.1752 53.8065 74.1672 53.7768C74.1672 53.7768 73.7973 52.5606 70.7511 49.0128C70.2028 48.326 69.7433 47.5727 69.3836 46.7709C69.2379 46.4738 69.1034 46.1936 68.9632 45.9582C68.9451 45.9259 68.9405 45.8876 68.9505 45.8519C68.9605 45.8162 68.9842 45.7859 69.0165 45.7676C69.0485 45.7493 69.0865 45.7442 69.1221 45.7537C69.1578 45.7631 69.1883 45.7863 69.207 45.8181C69.3472 46.0619 69.4873 46.3449 69.6358 46.6588C69.9857 47.4391 70.4319 48.1725 70.9641 48.8419C74.0748 52.4709 74.4251 53.6704 74.4363 53.718C74.4418 53.7358 74.4436 53.7546 74.4416 53.7732C74.4396 53.7918 74.4338 53.8097 74.4246 53.826C74.4154 53.8423 74.4031 53.8565 74.3882 53.8678C74.3733 53.8791 74.3563 53.8872 74.3382 53.8917L74.3018 53.8805Z" fill="#263238"/>
<path d="M68.7559 45.4428C68.731 45.4429 68.7065 45.4364 68.6849 45.4241C68.6633 45.4119 68.6452 45.3941 68.6325 45.3727L68.2766 44.7506C68.2657 44.735 68.2598 44.7164 68.2598 44.6974L68.0609 42.7357C68.0584 42.6988 68.0701 42.6624 68.0935 42.6337C68.1169 42.6051 68.1503 42.5865 68.187 42.5816C68.224 42.5784 68.2608 42.5898 68.2896 42.6134C68.3184 42.6369 68.3369 42.6707 68.3411 42.7077L68.5345 44.6469L68.8764 45.241C68.8949 45.2735 68.9 45.3118 68.8905 45.348C68.8811 45.3841 68.8579 45.4151 68.8259 45.4344C68.8035 45.4424 68.7795 45.4453 68.7559 45.4428Z" fill="#263238"/>
<path d="M67.413 63.0473C67.3862 63.0476 67.3599 63.0402 67.3372 63.0261C67.3145 63.0119 67.2963 62.9915 67.2848 62.9673C67.2733 62.9432 67.269 62.9162 67.2724 62.8896C67.2757 62.8631 67.2866 62.838 67.3037 62.8175C67.6456 62.3915 68.0632 60.0964 67.4943 59.2416C66.9254 58.3869 63.0245 50.7897 62.8592 50.4674C62.8494 50.4492 62.8436 50.4291 62.8423 50.4085L62.7443 48.0461C62.7435 48.0277 62.7464 48.0094 62.7527 47.9921C62.7591 47.9748 62.7688 47.9589 62.7813 47.9454C62.7938 47.9319 62.8088 47.9209 62.8256 47.9132C62.8423 47.9055 62.8604 47.9011 62.8788 47.9004C62.9157 47.8996 62.9516 47.9132 62.9788 47.9383C63.0059 47.9634 63.0223 47.998 63.0245 48.0349L63.1226 50.3665C63.3832 50.8793 67.1636 58.244 67.7269 59.0875C68.3462 60.0151 67.9679 62.4504 67.5223 62.994C67.5091 63.0104 67.4925 63.0237 67.4736 63.0329C67.4547 63.0421 67.434 63.047 67.413 63.0473Z" fill="#263238"/>
<path d="M61.9006 65.1994C61.8648 65.1995 61.8304 65.1859 61.8044 65.1614C61.7783 65.1369 61.7626 65.1034 61.7605 65.0677C61.7605 65.0369 61.5475 61.9403 60.0174 60.0234C59.4183 59.2439 58.8698 58.4267 58.3752 57.577C58.3652 57.5613 58.3584 57.5437 58.3554 57.5253C58.3523 57.507 58.353 57.4881 58.3575 57.4701C58.362 57.452 58.3701 57.435 58.3813 57.4201C58.3925 57.4053 58.4067 57.3928 58.4228 57.3836C58.4545 57.365 58.4922 57.3595 58.5279 57.3684C58.5635 57.3774 58.5942 57.3999 58.6134 57.4312C59.1025 58.2707 59.6454 59.0776 60.2388 59.8469C61.8221 61.8282 62.0323 64.9164 62.0407 65.0453C62.0418 65.0637 62.0393 65.0822 62.0333 65.0996C62.0273 65.117 62.0179 65.1331 62.0057 65.1469C61.9934 65.1607 61.9786 65.172 61.962 65.18C61.9454 65.1881 61.9274 65.1928 61.909 65.1938L61.9006 65.1994Z" fill="#263238"/>
<path d="M57.9698 56.7468C57.9449 56.7471 57.9203 56.7408 57.8986 56.7285C57.877 56.7162 57.859 56.6983 57.8465 56.6767C57.0618 55.298 56.4649 54.107 56.4593 54.0957C56.4504 54.0764 56.4456 54.0554 56.4453 54.0341V52.7534C56.4453 52.7162 56.4601 52.6806 56.4864 52.6543C56.5126 52.628 56.5483 52.6133 56.5854 52.6133C56.6226 52.6133 56.6582 52.628 56.6845 52.6543C56.7108 52.6806 56.7255 52.7162 56.7255 52.7534V54.0005C56.8208 54.191 57.3757 55.2868 58.0903 56.5226C58.1086 56.5554 58.1133 56.594 58.1033 56.6302C58.0933 56.6664 58.0695 56.6972 58.0371 56.716C58.0178 56.7321 57.9946 56.7427 57.9698 56.7468Z" fill="#263238"/>
<path d="M40.6734 53.911C40.6734 53.911 38.3054 53.2384 37.6412 52.3977C36.9771 51.557 36.6912 48.8359 36.6436 47.9812C36.5959 47.1264 36.0831 46.2717 37.1172 45.8934C38.1513 45.5151 39.5412 46.6528 40.0625 47.7934C40.5837 48.934 40.623 50.4977 40.623 50.7359C40.623 50.9741 41.43 52.2548 41.43 52.2548C41.43 52.2548 42.1979 53.7204 40.6734 53.911Z" fill="white"/>
<path d="M40.6724 54.0517H40.6359C40.5379 54.0237 38.2091 53.3623 37.5225 52.4824C36.7098 51.4371 36.4996 48.021 36.4968 47.9986C36.4805 47.798 36.4514 47.5986 36.41 47.4017C36.2923 46.7907 36.1606 46.0986 37.0629 45.7707C38.1502 45.3755 39.6075 46.4853 40.182 47.7323C40.7564 48.9794 40.7705 50.7169 40.7705 50.7169C40.9839 51.224 41.2477 51.7085 41.5579 52.1629C41.5775 52.2049 41.9475 52.9336 41.656 53.4856C41.556 53.6525 41.4154 53.7913 41.2474 53.8893C41.0793 53.9873 40.8893 54.0412 40.6948 54.0461L40.6724 54.0517ZM37.5477 45.9528C37.417 45.9518 37.287 45.9736 37.1638 46.0173C36.5193 46.2527 36.5613 46.6506 36.6902 47.3316C36.7357 47.5413 36.7666 47.7538 36.7827 47.9677C36.8415 49.0551 37.1582 51.5436 37.7495 52.3058C38.3408 53.0681 40.4258 53.6902 40.6892 53.7687C40.8326 53.7648 40.973 53.7263 41.0984 53.6566C41.2238 53.5868 41.3305 53.4878 41.4094 53.3679C41.6336 52.942 41.3169 52.3198 41.3141 52.3114C41.0703 51.9275 40.4902 50.9803 40.4902 50.7281C40.4902 50.7113 40.4902 49.0467 39.9298 47.8416C39.487 46.8664 38.4305 45.9528 37.5477 45.9528Z" fill="#263238"/>
<path d="M36.9177 49.7835C36.9177 49.7835 37.7584 50.6242 38.3722 50.5822C38.9859 50.5401 38.5599 48.4664 38.5599 48.4664C38.1263 48.3584 37.7241 48.1501 37.3857 47.8582C37.1058 47.607 36.8401 47.3404 36.5898 47.0596L36.9177 49.7835Z" fill="white"/>
<path d="M38.3252 50.7164C37.6666 50.7164 36.8539 49.9121 36.8175 49.8757C36.7974 49.8526 36.7838 49.8246 36.7783 49.7944L36.4504 47.0733C36.4465 47.0435 36.4523 47.0133 36.467 46.9871C36.4816 46.9608 36.5043 46.94 36.5317 46.9276C36.559 46.915 36.5897 46.9118 36.6191 46.9184C36.6484 46.9249 36.6748 46.941 36.6942 46.964C36.9429 47.239 37.2058 47.5009 37.4817 47.7487C37.8039 48.0278 38.1882 48.2258 38.6026 48.326C38.6287 48.3326 38.6525 48.3463 38.6713 48.3656C38.6901 48.3849 38.7032 48.409 38.7091 48.4353C38.7455 48.6034 39.0342 50.0887 38.6811 50.5567C38.6485 50.6018 38.6066 50.6394 38.5583 50.6669C38.5099 50.6945 38.4562 50.7114 38.4008 50.7164H38.3252ZM37.0501 49.7104C37.3023 49.9514 37.9384 50.4614 38.3616 50.4362C38.3791 50.4342 38.3959 50.4284 38.4109 50.4192C38.426 50.41 38.4388 50.3976 38.4485 50.3829C38.6474 50.1195 38.555 49.1695 38.4485 48.5754C38.0254 48.4561 37.634 48.2446 37.3023 47.9561C37.0893 47.7627 36.9184 47.5946 36.7867 47.4629L37.0501 49.7104Z" fill="#263238"/>
<path d="M45.0954 58.5637C45.0954 58.5637 42.5732 59.085 41.9623 58.2302C41.3514 57.3755 40.1099 53.9566 40.1576 52.7712C40.2052 51.5858 43.3383 48.6881 44.9048 47.4999C46.4713 46.3117 47.469 45.9334 48.419 46.5023C49.369 47.0712 50.1284 47.7858 49.8454 48.7806C49.5623 49.7755 47.2812 54.0519 46.9001 54.8113C46.519 55.5708 46.1406 58.2302 46.1406 58.2302L45.0954 58.5637Z" fill="white"/>
<path d="M43.5621 58.86C42.8783 58.86 42.1609 58.7451 41.847 58.3135C41.2221 57.4448 39.9667 54.0203 40.0171 52.7648C40.0675 51.5094 43.223 48.5977 44.8204 47.3871C46.2804 46.2829 47.4013 45.7281 48.4915 46.381C49.2901 46.863 50.3158 47.6365 49.9795 48.8191C49.7469 49.629 48.2561 52.5014 47.4574 54.0455C47.2584 54.4266 47.1043 54.7209 47.0286 54.8862C46.6615 55.6176 46.286 58.2491 46.2804 58.2491C46.2776 58.2755 46.2671 58.3005 46.2502 58.3209C46.2332 58.3414 46.2106 58.3564 46.1851 58.364L45.1398 58.6975H45.1258C44.6106 58.7991 44.0872 58.8535 43.5621 58.86ZM47.519 46.3838C46.8717 46.3838 46.0954 46.7733 44.9969 47.6113C43.3827 48.8331 40.3478 51.6859 40.3057 52.776C40.2581 53.9614 41.4911 57.3271 42.0824 58.1482C42.5448 58.7871 44.386 58.5685 45.067 58.4284L46.0226 58.123C46.0926 57.6494 46.4317 55.4495 46.782 54.7601L47.2136 53.9194C48.0095 52.3865 49.4947 49.5309 49.7161 48.749C49.9375 47.9672 49.5171 47.3254 48.3542 46.6276C48.1044 46.469 47.8149 46.3844 47.519 46.3838Z" fill="#263238"/>
<path d="M44.1448 48.3067C44.1448 48.3067 43.0995 49.3043 43.6236 50.0638C44.1476 50.8232 45.476 51.535 46.0448 51.3445C46.6137 51.1539 48.4661 49.2091 48.7996 48.5925C49.133 47.976 47.0901 46.502 47.0901 46.502C45.9747 46.8518 44.963 47.4718 44.1448 48.3067Z" fill="white"/>
<path d="M45.8323 51.515C45.1093 51.515 43.9631 50.8032 43.5091 50.1418C42.9318 49.3011 43.9771 48.2755 44.0472 48.2082C44.8788 47.3515 45.913 46.7183 47.0541 46.367C47.0741 46.3616 47.0951 46.3608 47.1155 46.3647C47.1359 46.3686 47.1551 46.3771 47.1718 46.3895C47.5305 46.6473 49.2932 47.9672 48.9233 48.6566C48.5534 49.346 46.7094 51.2712 46.0901 51.4786C46.0066 51.504 45.9196 51.5163 45.8323 51.515ZM47.0625 46.6557C45.9986 47.0076 45.0334 47.6069 44.2461 48.4044C44.2461 48.4044 43.2933 49.3291 43.7417 49.9821C44.2657 50.7443 45.5408 51.3665 46.0032 51.2095C46.4656 51.0526 48.346 49.1414 48.6795 48.5221C48.8588 48.1942 47.8416 47.2274 47.0625 46.6557Z" fill="#263238"/>
<path d="M49.2083 62.2067C49.2083 62.2067 46.4592 62.7672 45.7838 61.8452C45.1085 60.9232 43.7633 57.1765 43.8222 55.879C43.881 54.5815 47.2971 51.4176 49.0094 50.1229C50.7216 48.8282 51.8117 48.4106 52.8486 49.0327C53.8855 49.6549 54.715 50.4339 54.4039 51.5213C54.0929 52.6086 51.6016 57.2801 51.1896 58.1096C50.7777 58.9391 50.3489 61.8452 50.3489 61.8452L49.2083 62.2067Z" fill="white"/>
<path d="M47.5342 62.5317C46.7888 62.5317 46.0097 62.4056 45.6734 61.9376C45.0064 61.0157 43.6221 57.2212 43.6753 55.8845C43.7286 54.5478 47.1727 51.3418 48.9186 50.0219C50.5075 48.8169 51.7209 48.2144 52.9147 48.9234C53.7835 49.4446 54.8988 50.2881 54.5317 51.5716C54.2795 52.4544 52.6485 55.5931 51.7742 57.2801C51.5584 57.6948 51.3902 58.0171 51.3062 58.1824C50.9082 58.9839 50.4935 61.848 50.4907 61.876C50.4869 61.9021 50.476 61.9266 50.4592 61.9469C50.4424 61.9671 50.4203 61.9824 50.3954 61.9909L49.252 62.3524H49.238C48.6769 62.4652 48.1065 62.5252 47.5342 62.5317ZM51.8582 48.901C51.1492 48.901 50.2973 49.3269 49.0867 50.2433C47.3212 51.5828 44.0032 54.7019 43.9556 55.8957C43.9051 57.1932 45.2531 60.8755 45.9004 61.7807C46.4076 62.4813 48.4225 62.2431 49.1764 62.089L50.2245 61.7555C50.3001 61.2539 50.6728 58.8326 51.0652 58.0647C51.1492 57.8966 51.3146 57.5743 51.5332 57.1568C52.4047 55.4754 54.0273 52.3563 54.2711 51.5016C54.5149 50.6468 54.0525 49.935 52.7774 49.17C52.5025 48.9954 52.1839 48.9022 51.8582 48.901Z" fill="#263238"/>
<path d="M48.1722 51.014C48.1722 51.014 47.0317 52.1041 47.6118 52.9336C48.1918 53.7632 49.6351 54.5422 50.2572 54.3348C50.8793 54.1275 52.9026 52.0005 53.2669 51.3251C53.6312 50.6497 51.4006 49.0439 51.4006 49.0439C50.1775 49.4222 49.0679 50.0993 48.1722 51.014Z" fill="white"/>
<path d="M50.0105 54.5083C49.2258 54.5083 47.9816 53.7321 47.4883 53.0118C46.8662 52.1067 48.0012 50.9857 48.0768 50.9157C48.9855 49.9835 50.1125 49.2928 51.3556 48.9064C51.3757 48.9015 51.3966 48.9011 51.4169 48.9049C51.4372 48.9088 51.4564 48.9169 51.4733 48.9288C51.8628 49.209 53.7825 50.6466 53.3817 51.3921C53.0034 52.0955 50.9689 54.2421 50.2991 54.4747C50.2054 54.5019 50.1079 54.5132 50.0105 54.5083ZM51.3612 49.1978C50.1958 49.581 49.1389 50.2372 48.2786 51.1118C48.2786 51.1118 47.2305 52.1291 47.7181 52.8521C48.2506 53.6284 49.6462 54.385 50.2038 54.1973C50.7615 54.0095 52.7568 51.9553 53.1323 51.2576C53.3369 50.8764 52.2384 49.8395 51.3612 49.1978Z" fill="#263238"/>
<path d="M54.5565 63.8706C54.5565 63.8706 53.8307 61.696 53.8307 61.4998C53.8307 61.3036 55.1506 58.1369 55.0189 56.7554C54.8872 55.3738 53.7662 53.7904 53.0404 54.1856C52.3146 54.5807 50.9975 55.7017 49.8121 57.4812C48.6267 59.2607 48.2316 60.6423 48.6267 61.3008C49.0218 61.9594 51.3954 64.4647 52.3819 64.8598C53.3683 65.255 55.4028 64.5796 55.4028 64.5796L54.5565 63.8706Z" fill="white"/>
<path d="M53.1685 65.1208C52.8825 65.1297 52.5974 65.085 52.3278 64.9891C51.3218 64.5828 48.9061 62.0438 48.5194 61.3657C48.0822 60.6342 48.5194 59.1854 49.7104 57.3947C50.8313 55.7133 52.1653 54.5026 52.9864 54.0543C53.0988 53.998 53.2238 53.9715 53.3495 53.9774C53.4751 53.9833 53.5971 54.0213 53.7038 54.0879C54.3988 54.455 55.0685 55.6684 55.1694 56.7333C55.2703 57.7982 54.5641 59.816 54.183 60.9033C54.0849 61.1835 53.9924 61.4469 53.984 61.5002C53.984 61.6263 54.3511 62.764 54.6902 63.7813L55.5057 64.4511C55.525 64.4672 55.5398 64.4881 55.5486 64.5117C55.5575 64.5353 55.5601 64.5607 55.5561 64.5856C55.5513 64.6103 55.5399 64.6332 55.5231 64.6519C55.5063 64.6706 55.4848 64.6845 55.4609 64.6921C54.7204 64.9411 53.9489 65.0854 53.1685 65.1208ZM53.2834 54.2644C53.2216 54.2633 53.1606 54.2788 53.1069 54.3093C52.3138 54.7408 51.0247 55.9122 49.929 57.5572C48.8333 59.2022 48.3709 60.6034 48.7464 61.2311C49.1219 61.8589 51.4787 64.3474 52.4427 64.7285C53.1741 65.0228 54.5613 64.6753 55.1218 64.5099L54.4744 63.9803C54.4548 63.963 54.4402 63.9408 54.4324 63.9158C54.2586 63.4002 53.6982 61.7048 53.6982 61.5002C53.7458 61.2665 53.8172 61.0384 53.9111 60.8192C54.2586 59.83 54.9817 57.7758 54.8864 56.7698C54.7911 55.7637 54.1774 54.668 53.5665 54.3429C53.4798 54.2942 53.3827 54.2673 53.2834 54.2644Z" fill="#263238"/>
<path d="M49.9434 58.0725C49.9434 58.0725 50.8009 58.5993 51.395 58.5993C51.9891 58.5993 53.5024 57.2177 53.4351 55.8334C53.3679 54.449 52.5131 54.7797 52.5131 54.7797C52.5131 54.7797 50.2012 56.4919 49.9434 58.0725Z" fill="white"/>
<path d="M51.3923 58.7395C50.7674 58.7395 49.9071 58.2154 49.8707 58.193C49.8474 58.1778 49.829 58.1563 49.8176 58.131C49.8062 58.1056 49.8022 58.0776 49.8062 58.0501C50.0864 56.4331 52.3283 54.7377 52.4292 54.6676L52.4629 54.648C52.5711 54.6108 52.6861 54.5978 52.7999 54.6099C52.9137 54.622 53.0235 54.6589 53.1214 54.7181C53.4016 54.9002 53.5502 55.2785 53.5754 55.839C53.623 56.8367 52.9252 57.683 52.6226 57.9996C52.1854 58.4452 51.7034 58.7395 51.3923 58.7395ZM50.1005 58.0024C50.494 58.2442 50.9343 58.3998 51.3923 58.4592C51.5885 58.4592 52.0033 58.2322 52.418 57.7951C52.6861 57.5419 52.9016 57.2383 53.0521 56.9017C53.2026 56.565 53.2852 56.202 53.2952 55.8334C53.2755 55.3822 53.1606 55.0768 52.9701 54.9507C52.9126 54.9147 52.8481 54.8916 52.7808 54.8829C52.7136 54.8742 52.6453 54.8801 52.5806 54.9002C52.3732 55.0627 50.4115 56.6013 50.1005 58.0024Z" fill="#263238"/>
<path d="M81.5957 32.0363L91.7571 54.035L97.855 51.4036L87.2145 29.5254L81.5957 32.0363Z" fill="white"/>
<path d="M91.758 54.1746C91.7314 54.1747 91.7052 54.1671 91.6829 54.1527C91.6605 54.1383 91.6428 54.1176 91.6319 54.0933L81.4705 32.0947C81.4629 32.0779 81.459 32.0598 81.459 32.0414C81.459 32.0231 81.4629 32.0049 81.4705 31.9882C81.4761 31.9706 81.4856 31.9544 81.4982 31.9408C81.5108 31.9273 81.5262 31.9166 81.5434 31.9097L87.1621 29.3876C87.1784 29.3796 87.1962 29.3751 87.2143 29.3742C87.2324 29.3733 87.2505 29.3761 87.2675 29.3823C87.2845 29.3886 87.3001 29.3983 87.3133 29.4107C87.3265 29.4232 87.337 29.4382 87.3443 29.4548L97.9933 51.3302C98.0007 51.3474 98.0046 51.366 98.0046 51.3848C98.0046 51.4036 98.0007 51.4222 97.9933 51.4395C97.9867 51.4574 97.9766 51.4738 97.9636 51.4878C97.9507 51.5017 97.935 51.5129 97.9176 51.5208L91.8196 54.1494C91.8017 54.163 91.7804 54.1717 91.758 54.1746ZM81.7844 32.1059L91.8281 53.8495L97.6654 51.3274L87.1509 29.6986L81.7844 32.1059Z" fill="#263238"/>
<path d="M130.834 3.11816L85.1836 29.8837L100.277 60.7267L130.834 45.4817V3.11816Z" fill="#4B4B4B"/>
<path d="M100.277 60.8672H100.232C100.196 60.8542 100.167 60.8281 100.15 60.7944L85.0569 29.9458C85.0415 29.914 85.0388 29.8775 85.0492 29.8437C85.0596 29.81 85.0823 29.7814 85.1129 29.7637L130.764 2.99534C130.785 2.98296 130.809 2.97648 130.834 2.97656C130.859 2.97665 130.883 2.98329 130.905 2.99582C130.926 3.00835 130.944 3.02632 130.956 3.0479C130.968 3.06947 130.974 3.09388 130.974 3.11864V45.4822C130.973 45.5076 130.966 45.5325 130.953 45.5541C130.939 45.5758 130.92 45.5935 130.898 45.6055L100.352 60.8532C100.329 60.8663 100.303 60.8712 100.277 60.8672ZM85.3679 29.9402L100.341 60.5394L130.693 45.4065V3.35685L85.3679 29.9402Z" fill="#263238"/>
<path d="M46.0938 30.3634L32.2249 51.8829L26.9648 49.2514L41.5484 27.6143L46.0938 30.3634Z" fill="white"/>
<path d="M32.2236 52.0225C32.2019 52.0226 32.1806 52.0168 32.162 52.0057L26.9019 49.3771C26.884 49.3682 26.8682 49.3555 26.8556 49.34C26.8429 49.3244 26.8338 49.3063 26.8287 49.2869C26.8237 49.2675 26.8229 49.2473 26.8263 49.2276C26.8297 49.2078 26.8374 49.1891 26.8487 49.1725L41.421 27.5354C41.441 27.5057 41.4716 27.4848 41.5065 27.477C41.5414 27.4692 41.578 27.475 41.6088 27.4933L46.1514 30.2425C46.1837 30.2622 46.2069 30.2939 46.2158 30.3307C46.2247 30.3675 46.2187 30.4063 46.1991 30.4386L32.3301 51.9581C32.3189 51.9766 32.3033 51.9922 32.2848 52.0034C32.2662 52.0146 32.2453 52.0212 32.2236 52.0225ZM27.1794 49.1977L32.1844 51.7003L45.916 30.4022L41.6088 27.796L27.1794 49.1977Z" fill="#263238"/>
<path d="M0.140625 0.142578V45.9306L22.7025 59.9145L43.7007 27.7348L0.140625 0.142578Z" fill="#92E3A9"/>
<path d="M22.702 60.0541C22.6761 60.0535 22.6509 60.0457 22.6291 60.0317L0.0672568 46.0478C0.0468209 46.0357 0.0298804 46.0184 0.0180915 45.9978C0.00630274 45.9772 6.92168e-05 45.9539 0 45.9301V0.14203C0.000223539 0.116884 0.00707792 0.0922437 0.0198709 0.070594C0.0326639 0.0489442 0.0509427 0.031051 0.0728617 0.018725C0.0946781 0.00644914 0.119289 0 0.144322 0C0.169355 0 0.193966 0.00644914 0.215782 0.018725L43.7758 27.6109C43.8072 27.6317 43.8293 27.6639 43.8375 27.7006C43.8451 27.7373 43.8381 27.7756 43.8179 27.8071L22.8197 59.9896C22.8074 60.0097 22.7901 60.0263 22.7695 60.0376C22.7488 60.0489 22.7255 60.0546 22.702 60.0541ZM0.283039 45.8516L22.6628 59.7206L43.5096 27.7735L0.280237 0.397048L0.283039 45.8516Z" fill="#263238"/>
</svg>
