<svg width="24" height="24" viewBox="0 0 24 24" fill="none" xmlns="http://www.w3.org/2000/svg">
<path d="M19.7069 10.7073C19.5119 10.9023 19.256 11.0003 19 11.0003C18.744 11.0003 18.488 10.9023 18.293 10.7073L13 5.41422V21.0003C13 21.5533 12.553 22.0003 12 22.0003C11.447 22.0003 11 21.5533 11 21.0003V5.41422L5.70695 10.7073C5.31595 11.0983 4.68401 11.0983 4.29301 10.7073C3.90201 10.3163 3.90201 9.68425 4.29301 9.29325L11.293 2.29325C11.684 1.90225 12.3159 1.90225 12.7069 2.29325L19.7069 9.29325C20.0979 9.68425 20.0979 10.3163 19.7069 10.7073Z" fill="#6C6C6C"/>
</svg>
