<svg width="24" height="24" viewBox="0 0 24 24" fill="none" xmlns="http://www.w3.org/2000/svg">
<path d="M19.7069 14.707L12.7069 21.707C12.5119 21.902 12.256 22 12 22C11.744 22 11.488 21.902 11.293 21.707L4.29301 14.707C3.90201 14.316 3.90201 13.684 4.29301 13.293C4.68401 12.902 5.31595 12.902 5.70695 13.293L11 18.5861V3C11 2.447 11.447 2 12 2C12.553 2 13 2.447 13 3V18.5861L18.293 13.293C18.684 12.902 19.3159 12.902 19.7069 13.293C20.0979 13.684 20.0979 14.316 19.7069 14.707Z" fill="#6C6C6C"/>
</svg>
