<svg width="24" height="24" viewBox="0 0 24 24" fill="none" xmlns="http://www.w3.org/2000/svg">
<g opacity="0.85">
<path d="M2.99707 13.0823C2.99707 13.0053 2.99707 12.9663 2.99907 12.9343C3.01483 12.692 3.11818 12.4637 3.28986 12.2921C3.46153 12.1204 3.6898 12.017 3.93207 12.0013C3.96507 11.9993 4.00207 11.9993 4.08007 11.9993H19.9141C19.9911 11.9993 20.0291 11.9993 20.0621 12.0013C20.3043 12.017 20.5326 12.1204 20.7043 12.2921C20.876 12.4637 20.9793 12.692 20.9951 12.9343C20.9971 12.9663 20.9971 13.0043 20.9971 13.0823C20.9971 13.4773 20.9971 13.6753 20.9831 13.8973C20.7741 17.1843 17.9801 20.0863 14.7031 20.4173C14.4821 20.4403 14.3531 20.4453 14.0951 20.4553C13.3961 20.4828 12.6966 20.4975 11.9971 20.4993C11.3471 20.4993 10.6331 20.4823 9.89907 20.4553C9.64107 20.4453 9.51207 20.4403 9.29207 20.4183C6.01407 20.0863 3.22007 17.1843 3.01207 13.8973C2.99707 13.6753 2.99707 13.4773 2.99707 13.0823Z" stroke="#6C6C6C"/>
<path d="M5.99805 19.9995L4.99805 21.9995M17.998 19.9995L18.998 21.9995M1.99805 11.9995H21.998" stroke="#6C6C6C" stroke-linecap="round"/>
<path d="M2.24707 12.9995C2.24707 13.1984 2.32609 13.3892 2.46674 13.5298C2.60739 13.6705 2.79816 13.7495 2.99707 13.7495C3.19598 13.7495 3.38675 13.6705 3.5274 13.5298C3.66805 13.3892 3.74707 13.1984 3.74707 12.9995H2.24707ZM6.34307 8.74151L5.64507 9.01651C5.68199 9.10985 5.73727 9.19483 5.80764 9.26641C5.87801 9.338 5.96203 9.39472 6.05472 9.43324C6.14742 9.47175 6.2469 9.49127 6.34727 9.49063C6.44765 9.48999 6.54688 9.4692 6.63907 9.42951L6.34307 8.74151ZM12.3031 6.17451L12.6001 6.86451C12.7791 6.78742 12.921 6.64368 12.9959 6.46375C13.0707 6.28381 13.0726 6.0818 13.0011 5.90051L12.3031 6.17451ZM3.74707 12.9995V4.38451H2.24707V12.9995H3.74707ZM5.38207 2.74951C6.05107 2.74951 6.65207 3.15651 6.90007 3.77751L8.29307 3.21951C8.06047 2.63783 7.65894 2.14018 7.14025 1.78887C6.62157 1.43755 6.00953 1.24969 5.38307 1.24951L5.38207 2.74951ZM3.74707 4.38451C3.74707 3.48151 4.47907 2.74951 5.38207 2.74951L5.38307 1.24951C4.55162 1.24951 3.75322 1.57981 3.16529 2.16773C2.57736 2.75566 2.24707 3.55306 2.24707 4.38451H3.74707ZM6.90007 3.77751L7.28007 4.72551L8.67207 4.16851L8.29307 3.21951L6.90007 3.77751ZM7.04007 8.46651C6.78852 7.8254 6.79353 7.11203 7.05407 6.47451L5.66407 5.90951C5.25834 6.90412 5.25217 8.01677 5.64507 9.01651L7.04007 8.46651ZM12.0071 5.48651L6.04607 8.05251L6.63907 9.42951L12.5991 6.86351L12.0071 5.48651ZM10.2791 5.06751C10.9011 5.33351 11.3641 5.83651 11.6061 6.44951L13.0011 5.90051C12.8103 5.40874 12.5236 4.95888 12.1575 4.5791C11.7915 4.19932 11.3535 3.89623 10.8691 3.68751L10.2791 5.06751ZM7.05407 6.47451C7.28863 5.88392 7.73407 5.40242 8.30407 5.12151L7.64807 3.77351C6.74539 4.21573 6.03857 4.9767 5.66407 5.90951L7.05407 6.47451ZM8.30407 5.12151C8.60991 4.97055 8.94482 4.88764 9.28576 4.87849C9.6267 4.86934 9.96558 4.93317 10.2791 5.06751L10.8691 3.68751C10.3577 3.46888 9.8052 3.36428 9.24928 3.37895C8.69336 3.39362 8.14716 3.52821 7.64807 3.77351L8.30407 5.12151Z" fill="#6C6C6C"/>
</g>
</svg>
