<svg width="24" height="24" viewBox="0 0 24 24" fill="none" xmlns="http://www.w3.org/2000/svg">
<g opacity="0.85">
<path d="M18.998 20.0005V18.5005M4.99805 20.0005V18.5005" stroke="#6C6C6C" stroke-linecap="round"/>
<path d="M20.998 12.0005C20.998 8.22949 20.998 6.34349 19.826 5.17249C18.655 4.00049 16.769 4.00049 12.998 4.00049H10.998C7.22705 4.00049 5.34105 4.00049 4.17005 5.17249C2.99805 6.34349 2.99805 8.22949 2.99805 12.0005M1.99805 15.0005C1.99805 14.0685 1.99805 13.6025 2.15005 13.2355C2.25056 12.9927 2.39794 12.772 2.58377 12.5862C2.7696 12.4004 2.99023 12.253 3.23305 12.1525C3.60005 12.0005 4.06605 12.0005 4.99805 12.0005H18.998C19.93 12.0005 20.396 12.0005 20.763 12.1525C21.0059 12.253 21.2265 12.4004 21.4123 12.5862C21.5982 12.772 21.7455 12.9927 21.846 13.2355C21.998 13.6025 21.998 14.0685 21.998 15.0005C21.998 15.9325 21.998 16.3985 21.846 16.7655C21.7455 17.0083 21.5982 17.2289 21.4123 17.4148C21.2265 17.6006 21.0059 17.748 20.763 17.8485C20.396 18.0005 19.93 18.0005 18.998 18.0005H4.99805C4.06605 18.0005 3.60005 18.0005 3.23305 17.8485C2.99023 17.748 2.7696 17.6006 2.58377 17.4148C2.39794 17.2289 2.25056 17.0083 2.15005 16.7655C1.99805 16.3985 1.99805 15.9325 1.99805 15.0005Z" stroke="#6C6C6C"/>
<path d="M18.499 12.0002V10.5002C18.499 8.61424 18.499 7.67224 17.913 7.08624C17.327 6.50024 16.385 6.50024 14.499 6.50024H9.49902C7.61302 6.50024 6.67102 6.50024 6.08502 7.08624C5.49902 7.67224 5.49902 8.61424 5.49902 10.5002V12.0002M11.999 7.00024V12.0002" stroke="#6C6C6C"/>
</g>
</svg>
