<svg width="24" height="24" viewBox="0 0 24 24" fill="none" xmlns="http://www.w3.org/2000/svg">
<path d="M17.555 6.03003L16.425 4.33594C15.867 3.49894 14.934 3 13.929 3H10.07C9.06501 3 8.13201 3.49894 7.57401 4.33594L6.444 6.03003C3.947 6.30703 2 8.43 2 11V16C2 18.757 4.243 21 7 21H17C19.757 21 22 18.757 22 16V11C21.999 8.431 20.051 6.30803 17.555 6.03003ZM19.999 16C19.999 17.654 18.653 19 16.999 19H6.99899C5.34499 19 3.99899 17.654 3.99899 16V11C3.99899 9.346 5.34499 8 6.99899 8C7.33299 8 7.64499 7.83293 7.83099 7.55493L9.237 5.44604C9.423 5.16704 9.734 5.00098 10.069 5.00098H13.928C14.263 5.00098 14.574 5.16704 14.76 5.44604L16.166 7.55493C16.352 7.83293 16.664 8 16.998 8C18.652 8 19.998 9.346 19.998 11V16H19.999ZM11.999 9C9.79299 9 7.99899 10.794 7.99899 13C7.99899 15.206 9.79299 17 11.999 17C14.205 17 15.999 15.206 15.999 13C15.999 10.794 14.205 9 11.999 9ZM11.999 15C10.896 15 9.99899 14.103 9.99899 13C9.99899 11.897 10.896 11 11.999 11C13.102 11 13.999 11.897 13.999 13C13.999 14.103 13.102 15 11.999 15ZM18.999 10C18.999 10.552 18.551 11 17.999 11C17.447 11 16.999 10.552 16.999 10C16.999 9.448 17.447 9 17.999 9C18.551 9 18.999 9.448 18.999 10Z" fill="#6C6C6C"/>
</svg>
