<svg width="64" height="64" viewBox="0 0 64 64" fill="none" xmlns="http://www.w3.org/2000/svg">
<g clip-path="url(#clip0_2382_3344)">
<path d="M9.373 5.60068L60.285 56.5127L56.5117 60.286L51.141 54.9127C49.2896 55.6337 47.3198 56.0027 45.333 56.0007H18.6663C14.8883 56.0031 11.2313 54.6684 8.34283 52.2331C5.4544 49.7978 3.52092 46.419 2.88475 42.6949C2.24857 38.9708 2.95075 35.1417 4.86695 31.8856C6.78315 28.6296 9.78974 26.1566 13.3543 24.9047C13.2402 22.5877 13.5595 20.2698 14.2957 18.07L5.59966 9.37134L9.373 5.60068ZM45.333 24.0007C48.1381 24.0024 50.8935 24.7412 53.3232 26.143C55.7529 27.5449 57.7716 29.5606 59.1771 31.9883C60.5825 34.4159 61.3253 37.1702 61.3312 39.9754C61.337 42.7805 60.6056 45.5379 59.2103 47.9713L37.3597 26.1233C39.7063 24.774 42.4263 24.0007 45.333 24.0007ZM31.9997 5.33401C36.1125 5.33435 40.1101 6.6924 43.3721 9.19733C46.634 11.7023 48.9778 15.214 50.0397 19.1873C47.2171 18.5537 44.2953 18.4988 41.4509 19.0258C38.6065 19.5529 35.8985 20.6511 33.4903 22.254L20.517 9.28068C23.7948 6.71676 27.8382 5.32702 31.9997 5.33401Z" fill="#9E9E9E"/>
</g>
<defs>
<clipPath id="clip0_2382_3344">
<rect width="64" height="64" fill="white"/>
</clipPath>
</defs>
</svg>
