<svg width="79" height="65" viewBox="0 0 79 65" fill="none" xmlns="http://www.w3.org/2000/svg">
<path d="M72.6818 8.07446H22.3762C17.548 8.07446 13.532 11.7879 13.1545 16.6013L10.8615 45.8436C10.4399 51.2207 14.6895 55.8167 20.0832 55.8167H72.6818C74.3153 55.8143 75.8812 55.2771 77.0368 54.3227C78.1923 53.3682 78.8436 52.0742 78.8479 50.7239V13.1855C78.8494 11.8319 78.2007 10.5333 77.0445 9.57493C75.8883 8.61656 74.3191 8.07688 72.6818 8.07446Z" fill="#DEDEDE" fill-opacity="0.4"/>
<path d="M69.2157 3.84338H9.56946C6.7535 3.84338 4.4707 6.12616 4.4707 8.94212V46.5043C4.4707 49.3203 6.7535 51.6031 9.56946 51.6031H69.2157C72.0317 51.6031 74.3144 49.3203 74.3144 46.5043V8.94212C74.3144 6.12616 72.0317 3.84338 69.2157 3.84338Z" fill="#E0E0E0"/>
<path d="M2.83999 3.29206C2.72056 3.29156 2.60611 3.24415 2.52132 3.16004L1.70188 2.34515C1.61616 2.25943 1.56799 2.14316 1.56799 2.02193C1.56799 1.9007 1.61616 1.78443 1.70188 1.69871C1.7876 1.61298 1.90387 1.56482 2.0251 1.56482C2.14633 1.56482 2.2626 1.61298 2.34833 1.69871L3.16321 2.51815C3.248 2.60344 3.2956 2.71883 3.2956 2.83909C3.2956 2.95936 3.248 3.07475 3.16321 3.16004C3.12067 3.20224 3.07023 3.23561 3.01476 3.25827C2.95929 3.28092 2.89991 3.29241 2.83999 3.29206Z" fill="#6C6C6C"/>
<path d="M1.60689 6.15097H0.455123C0.334385 6.15097 0.218591 6.103 0.133216 6.01763C0.0478408 5.93225 -0.00012207 5.81646 -0.00012207 5.69572C-0.00012207 5.57498 0.0478408 5.45919 0.133216 5.37382C0.218591 5.28844 0.334385 5.24048 0.455123 5.24048H1.60689C1.72763 5.24048 1.84343 5.28844 1.9288 5.37382C2.01418 5.45919 2.06214 5.57498 2.06214 5.69572C2.06214 5.81646 2.01418 5.93225 1.9288 6.01763C1.84343 6.103 1.72763 6.15097 1.60689 6.15097Z" fill="#6C6C6C"/>
<path d="M5.74065 2.06314C5.62524 2.06342 5.51402 2.01986 5.42951 1.94126C5.34499 1.86266 5.29349 1.75489 5.28541 1.63976L5.20346 0.487993C5.19913 0.428179 5.20666 0.368102 5.22561 0.311206C5.24457 0.254309 5.27458 0.201716 5.31392 0.156452C5.35326 0.111188 5.40116 0.0741451 5.45486 0.0474479C5.50856 0.0207507 5.56701 0.00492682 5.62684 0.000885664C5.74689 -0.00661031 5.86504 0.0337077 5.95545 0.113037C6.04587 0.192365 6.10122 0.304254 6.1094 0.42426L6.1959 1.57603C6.20023 1.63584 6.19271 1.69592 6.17375 1.75282C6.1548 1.80972 6.12478 1.86231 6.08544 1.90758C6.0461 1.95284 5.99821 1.98988 5.94451 2.01658C5.8908 2.04328 5.83235 2.0591 5.77252 2.06314H5.74065Z" fill="#6C6C6C"/>
<path d="M44.4865 46.6907L62.801 65.0006V46.6907H44.4865Z" fill="#E0E0E0"/>
<path d="M49.5076 38.6692L48.5971 34.8042C48.3672 33.7882 48.3672 32.7337 48.5971 31.7176L49.8627 26.2137C50.3805 23.8667 50.1002 21.4139 49.066 19.2443C48.0319 17.0746 46.3032 15.3121 44.1539 14.2363C44.1943 14.135 44.2292 14.0317 44.2587 13.9267C44.3334 13.5928 44.3416 13.2475 44.2829 12.9104C44.2242 12.5733 44.0996 12.2511 43.9164 11.9622C43.7331 11.6732 43.4947 11.4232 43.2148 11.2264C42.935 11.0296 42.6191 10.8898 42.2852 10.8151C41.9513 10.7404 41.6059 10.7321 41.2689 10.7909C40.9318 10.8496 40.6096 10.9742 40.3207 11.1574C40.0317 11.3407 39.7817 11.579 39.5849 11.8589C39.3881 12.1388 39.2483 12.4547 39.1736 12.7886C39.151 12.895 39.1373 13.0031 39.1326 13.1118C36.73 13.1682 34.4149 14.0244 32.5538 15.545C30.6927 17.0655 29.392 19.1634 28.8577 21.5065L27.624 27.015C27.3974 28.0292 26.9462 28.9797 26.3038 29.7965L23.85 32.9149C23.61 33.2208 23.4513 33.5825 23.3888 33.9662C23.3262 34.35 23.3618 34.7433 23.4922 35.1096C23.6227 35.4759 23.8437 35.8032 24.1347 36.061C24.4257 36.3189 24.7772 36.4988 25.1566 36.5842L46.7807 41.428C47.1587 41.5097 47.5513 41.4947 47.9219 41.3844C48.2926 41.2741 48.6295 41.0721 48.9014 40.7971C49.1732 40.522 49.3713 40.1828 49.4773 39.8109C49.5833 39.4389 49.5937 39.0463 49.5076 38.6692Z" fill="#6C6C6C"/>
<path d="M33.1776 39.862C33.0132 39.8258 32.8423 39.8306 32.6801 39.8762C32.5179 39.9217 32.3695 40.0065 32.248 40.1231C32.1264 40.2397 32.0355 40.3845 31.9833 40.5446C31.931 40.7047 31.9191 40.8753 31.9485 41.0411C32.0726 41.7726 32.4117 42.4506 32.9225 42.9888C33.4333 43.5269 34.0928 43.9008 34.8168 44.0629C35.5409 44.225 36.2968 44.1679 36.9883 43.899C37.6798 43.63 38.2756 43.1613 38.6998 42.5525C38.7967 42.4153 38.8583 42.2564 38.8794 42.0898C38.9004 41.9231 38.8801 41.7538 38.8203 41.5969C38.7604 41.4399 38.6629 41.3 38.5363 41.1896C38.4097 41.0792 38.2579 41.0017 38.0943 40.9637L33.1776 39.862Z" fill="#6C6C6C"/>
<path d="M16.5707 32.2003C16.4579 32.2012 16.3467 32.1737 16.2472 32.1204C16.1478 32.0671 16.0634 31.9897 16.0016 31.8953C13.8515 28.674 13.069 24.7304 13.8262 20.9322C14.5835 17.1339 16.8185 13.792 20.0397 11.6415C20.1906 11.5413 20.3751 11.5051 20.5527 11.541C20.7303 11.5768 20.8864 11.6818 20.9866 11.8327C21.0868 11.9836 21.1229 12.1682 21.0871 12.3457C21.0512 12.5233 20.9463 12.6794 20.7954 12.7796C17.8794 14.7327 15.8579 17.7634 15.175 21.2059C14.4921 24.6485 15.2037 28.2214 17.1534 31.1396C17.2541 31.29 17.291 31.4741 17.256 31.6517C17.221 31.8292 17.117 31.9856 16.9668 32.0865C16.8494 32.1638 16.7112 32.2035 16.5707 32.2003Z" fill="#6C6C6C"/>
<path d="M19.461 30.2608C19.3491 30.2601 19.2391 30.2319 19.1407 30.1787C19.0422 30.1255 18.9584 30.0489 18.8965 29.9557C17.2599 27.5018 16.6643 24.4986 17.2405 21.6058C17.8166 18.713 19.5175 16.1672 21.9694 14.5275C22.0441 14.4776 22.1279 14.4429 22.2161 14.4254C22.3042 14.4078 22.3949 14.4079 22.4831 14.4254C22.5712 14.4429 22.655 14.4777 22.7298 14.5276C22.8045 14.5775 22.8686 14.6417 22.9186 14.7164C22.9685 14.7912 23.0032 14.875 23.0207 14.9631C23.0382 15.0513 23.0382 15.142 23.0207 15.2302C23.0031 15.3183 22.9684 15.4021 22.9185 15.4768C22.8685 15.5516 22.8043 15.6157 22.7296 15.6656C20.5775 17.1018 19.0841 19.3342 18.5778 21.8715C18.0715 24.4088 18.5939 27.0433 20.03 29.1955C20.1307 29.3458 20.1676 29.53 20.1326 29.7076C20.0976 29.8851 19.9936 30.0415 19.8434 30.1424C19.7301 30.2182 19.5972 30.2593 19.461 30.2608Z" fill="#6C6C6C"/>
<path d="M22.357 28.3263C22.2454 28.3269 22.1354 28.2998 22.0368 28.2473C21.9383 28.1949 21.8543 28.1188 21.7925 28.0259C21.2347 27.1907 20.8471 26.2537 20.6519 25.2686C20.4566 24.2834 20.4575 23.2694 20.6546 22.2846C20.8516 21.2998 21.2409 20.3636 21.8002 19.5294C22.3595 18.6952 23.0778 17.9795 23.9139 17.4232C24.0643 17.3298 24.245 17.2985 24.418 17.3357C24.591 17.373 24.7428 17.476 24.8414 17.6229C24.94 17.7699 24.9776 17.9494 24.9464 18.1236C24.9152 18.2978 24.8176 18.4531 24.6742 18.5568C23.9884 19.0146 23.3994 19.6031 22.9411 20.2886C22.4827 20.9741 22.1639 21.7431 22.0028 22.5519C21.8417 23.3606 21.8416 24.1932 22.0023 25.0019C22.1631 25.8107 22.4816 26.5799 22.9397 27.2656C23.0392 27.4163 23.0754 27.6001 23.0405 27.7773C23.0056 27.9545 22.9023 28.1108 22.7531 28.2125C22.6357 28.2898 22.4975 28.3295 22.357 28.3263Z" fill="#6C6C6C"/>
<path d="M55.9408 41.8011C55.7881 41.8007 55.6399 41.7492 55.5199 41.6547C55.4 41.5602 55.3151 41.4283 55.279 41.28C55.2428 41.1316 55.2574 40.9754 55.3204 40.8364C55.3834 40.6973 55.4912 40.5833 55.6266 40.5127C58.7457 38.9012 61.0971 36.1171 62.1642 32.7725C63.2313 29.4278 62.9266 25.7964 61.3172 22.6763C61.2683 22.5962 61.2364 22.5068 61.2235 22.4139C61.2107 22.3209 61.2171 22.2263 61.2425 22.1359C61.2678 22.0455 61.3115 21.9614 61.3708 21.8886C61.4302 21.8159 61.5038 21.7562 61.5873 21.7132C61.6707 21.6703 61.7621 21.645 61.8558 21.6389C61.9494 21.6328 62.0434 21.6461 62.1316 21.6779C62.2199 21.7098 62.3007 21.7595 62.3689 21.8239C62.4371 21.8884 62.4914 21.9662 62.5281 22.0526C63.4073 23.7575 63.9419 25.619 64.1016 27.5306C64.2612 29.4422 64.0426 31.3666 63.4584 33.1937C62.8741 35.0209 61.9356 36.715 60.6965 38.1794C59.4574 39.6438 57.9419 40.8497 56.2367 41.7282C56.1444 41.7734 56.0435 41.7982 55.9408 41.8011Z" fill="#6C6C6C"/>
<path d="M54.3421 38.7104C54.1894 38.71 54.0413 38.6585 53.9213 38.5641C53.8013 38.4696 53.7165 38.3377 53.6803 38.1893C53.6442 38.041 53.6587 37.8848 53.7218 37.7457C53.7848 37.6066 53.8926 37.4927 54.028 37.4221C55.1672 36.8348 56.1794 36.0286 57.0068 35.0498C57.8342 34.071 58.4605 32.9386 58.8499 31.7175C59.2394 30.4964 59.3842 29.2106 59.2763 27.9334C59.1683 26.6563 58.8097 25.413 58.2208 24.2746C58.1375 24.1134 58.1216 23.9257 58.1767 23.7529C58.2318 23.58 58.3533 23.4361 58.5144 23.3527C58.6756 23.2694 58.8633 23.2536 59.0362 23.3086C59.2091 23.3637 59.353 23.4852 59.4363 23.6464C60.1073 24.9441 60.5159 26.3614 60.6388 27.8171C60.7617 29.2729 60.5964 30.7386 60.1525 32.1304C59.7086 33.5223 58.9946 34.813 58.0516 35.9288C57.1085 37.0445 55.9547 37.9635 54.6562 38.633C54.5596 38.6847 54.4516 38.7113 54.3421 38.7104Z" fill="#6C6C6C"/>
<path d="M52.7452 35.6192C52.593 35.6167 52.446 35.5638 52.3272 35.4688C52.2083 35.3738 52.1243 35.242 52.0884 35.0941C52.0525 34.9463 52.0666 34.7907 52.1286 34.6517C52.1906 34.5128 52.297 34.3983 52.4311 34.3263C53.164 33.9491 53.8154 33.4311 54.3479 32.8018C54.8804 32.1726 55.2835 31.4445 55.5343 30.6593C55.785 29.874 55.8785 29.047 55.8092 28.2256C55.74 27.4042 55.5094 26.6046 55.1307 25.8724C55.0474 25.7112 55.0315 25.5235 55.0866 25.3506C55.1416 25.1778 55.2631 25.0338 55.4243 24.9505C55.5855 24.8672 55.7732 24.8513 55.9461 24.9064C56.1189 24.9615 56.2629 25.083 56.3462 25.2442C57.2727 27.0471 57.446 29.1441 56.8281 31.0747C56.2101 33.0053 54.8514 34.6119 53.0502 35.5418C52.9558 35.5905 52.8514 35.617 52.7452 35.6192Z" fill="#6C6C6C"/>
</svg>
