<svg width="24" height="25" viewBox="0 0 24 25" fill="none" xmlns="http://www.w3.org/2000/svg">
<path fill-rule="evenodd" clip-rule="evenodd" d="M15.3617 6.14301C15.2237 5.92265 15.0206 5.75077 14.7804 5.65129C14.5402 5.55181 14.275 5.52969 14.0217 5.58801L12.2237 6.00101C12.0394 6.04336 11.8479 6.04336 11.6637 6.00101L9.86566 5.58801C9.61232 5.52969 9.34711 5.55181 9.10693 5.65129C8.86676 5.75077 8.66357 5.92265 8.52566 6.14301L7.54566 7.70701C7.44566 7.86701 7.31066 8.00201 7.15066 8.10301L5.58666 9.08301C5.36667 9.2208 5.19504 9.42366 5.09559 9.66342C4.99614 9.90319 4.97379 10.168 5.03166 10.421L5.44466 12.221C5.48685 12.405 5.48685 12.5961 5.44466 12.78L5.03166 14.579C4.97357 14.8322 4.9958 15.0972 5.09526 15.3372C5.19473 15.5771 5.36648 15.7802 5.58666 15.918L7.15066 16.898C7.31066 16.998 7.44566 17.133 7.54666 17.293L8.52666 18.857C8.80866 19.308 9.34666 19.531 9.86566 19.412L11.6637 18.999C11.8479 18.9567 12.0394 18.9567 12.2237 18.999L14.0227 19.412C14.2758 19.4701 14.5408 19.4479 14.7808 19.3484C15.0208 19.2489 15.2238 19.0772 15.3617 18.857L16.3417 17.293C16.4417 17.133 16.5767 16.998 16.7367 16.898L18.3017 15.918C18.5218 15.78 18.6935 15.5767 18.7928 15.3365C18.8921 15.0964 18.9141 14.8312 18.8557 14.578L18.4437 12.78C18.4013 12.5957 18.4013 12.4043 18.4437 12.22L18.8567 10.421C18.9148 10.1679 18.8928 9.903 18.7935 9.66304C18.6942 9.42308 18.5226 9.22 18.3027 9.08201L16.7377 8.10201C16.5779 8.00183 16.4428 7.86679 16.3427 7.70701L15.3617 6.14301ZM14.8587 10.27C14.9205 10.1563 14.9358 10.023 14.9014 9.89818C14.867 9.77338 14.7855 9.66679 14.6741 9.60085C14.5627 9.53491 14.43 9.51476 14.304 9.54463C14.1781 9.5745 14.0686 9.65206 13.9987 9.76101L11.3837 14.187L9.80466 12.675C9.75781 12.6269 9.70176 12.5887 9.63985 12.5628C9.57793 12.5368 9.51142 12.5236 9.44428 12.5239C9.37714 12.5242 9.31075 12.538 9.24906 12.5645C9.18738 12.591 9.13166 12.6296 9.08524 12.6781C9.03882 12.7267 9.00264 12.784 8.97886 12.8468C8.95509 12.9096 8.9442 12.9765 8.94685 13.0436C8.9495 13.1107 8.96564 13.1766 8.9943 13.2373C9.02296 13.298 9.06355 13.3523 9.11366 13.397L11.1477 15.346C11.2021 15.3981 11.2676 15.4371 11.3393 15.4603C11.4109 15.4835 11.4869 15.4902 11.5615 15.4799C11.6361 15.4697 11.7074 15.4426 11.7702 15.4009C11.8329 15.3592 11.8853 15.3039 11.9237 15.239L14.8587 10.27Z" fill="#E4B533"/>
</svg>
