<svg width="24" height="24" viewBox="0 0 24 24" fill="none" xmlns="http://www.w3.org/2000/svg">
<path d="M17 3H7C4.243 3 2 5.243 2 8V16C2 18.757 4.243 21 7 21H17C19.757 21 22 18.757 22 16V8C22 5.243 19.757 3 17 3ZM7 5H17C18.654 5 20 6.346 20 8V12.5859L16.417 9.00293C15.636 8.22193 14.364 8.22193 13.583 9.00293L9 13.5859L8.41701 13.0029C7.63601 12.2219 6.36399 12.2219 5.58299 13.0029L4 14.5859V8C4 6.346 5.346 5 7 5ZM6.5 9C6.5 8.172 7.172 7.5 8 7.5C8.828 7.5 9.5 8.172 9.5 9C9.5 9.828 8.828 10.5 8 10.5C7.172 10.5 6.5 9.828 6.5 9Z" fill="#6C6C6C"/>
</svg>
