<svg width="60" height="61" viewBox="0 0 60 61" fill="none" xmlns="http://www.w3.org/2000/svg">
<path d="M48.7735 4.24219H11.2737C7.13144 4.24219 3.77344 7.60019 3.77344 11.7425V49.2422C3.77344 53.3845 7.13144 56.7425 11.2737 56.7425H48.7735C52.9158 56.7425 56.2738 53.3845 56.2738 49.2422V11.7425C56.2738 7.60019 52.9158 4.24219 48.7735 4.24219Z" stroke="#A9A9A9" stroke-width="1.19991" stroke-linecap="round" stroke-linejoin="round"/>
<path d="M22.5234 30.4922C11.2734 30.4922 7.52344 37.9922 3.77344 37.9922" stroke="#A9A9A9" stroke-width="1.19991" stroke-linecap="round" stroke-linejoin="round"/>
<path d="M22.5234 30.4922C33.7734 30.4922 38.0988 37.9922 45.0235 37.9922" stroke="#A9A9A9" stroke-width="1.19991" stroke-linecap="round" stroke-linejoin="round"/>
<path d="M56.1928 34.5039C38.7706 34.5039 36.2817 56.6372 26.3262 56.6372" stroke="#A9A9A9" stroke-width="1.19991" stroke-linecap="round" stroke-linejoin="round"/>
<path d="M41.2737 26.7428C45.416 26.7428 48.774 23.3848 48.774 19.2425C48.774 15.1002 45.416 11.7422 41.2737 11.7422C37.1314 11.7422 33.7734 15.1002 33.7734 19.2425C33.7734 23.3848 37.1314 26.7428 41.2737 26.7428Z" stroke="#545454" stroke-opacity="0.5" stroke-width="1.19991" stroke-linecap="round" stroke-linejoin="round"/>
</svg>
