<svg width="24" height="24" viewBox="0 0 24 24" fill="none" xmlns="http://www.w3.org/2000/svg">
<path d="M21.2929 19.2929L4.70711 2.70711C4.07714 2.07714 3 2.52331 3 3.41421V20C3 20.5523 3.44772 21 4 21H20.5858C21.4767 21 21.9229 19.9229 21.2929 19.2929Z" stroke="#6C6C6C"/>
<path d="M14.1464 16.1464L7.85355 9.85355C7.53857 9.53857 7 9.76165 7 10.2071V16.5C7 16.7761 7.22386 17 7.5 17H13.7929C14.2383 17 14.4614 16.4614 14.1464 16.1464Z" stroke="#6C6C6C"/>
<line x1="3" y1="7.9" x2="5" y2="7.9" stroke="#6C6C6C" stroke-width="0.2"/>
<line x1="3" y1="8.9" x2="4" y2="8.9" stroke="#6C6C6C" stroke-width="0.2"/>
<line x1="3" y1="9.9" x2="4" y2="9.9" stroke="#6C6C6C" stroke-width="0.2"/>
<line x1="8.9" y1="21" x2="8.9" y2="20" stroke="#6C6C6C" stroke-width="0.2"/>
<line x1="9.9" y1="21" x2="9.9" y2="20" stroke="#6C6C6C" stroke-width="0.2"/>
<line x1="7.9" y1="21" x2="7.9" y2="19" stroke="#6C6C6C" stroke-width="0.2"/>
<line x1="3" y1="10.9" x2="5" y2="10.9" stroke="#6C6C6C" stroke-width="0.2"/>
<line x1="3" y1="11.9" x2="4" y2="11.9" stroke="#6C6C6C" stroke-width="0.2"/>
<line x1="3" y1="12.9" x2="4" y2="12.9" stroke="#6C6C6C" stroke-width="0.2"/>
<line x1="11.9" y1="21" x2="11.9" y2="20" stroke="#6C6C6C" stroke-width="0.2"/>
<line x1="12.9" y1="21" x2="12.9" y2="20" stroke="#6C6C6C" stroke-width="0.2"/>
<line x1="10.9" y1="21" x2="10.9" y2="19" stroke="#6C6C6C" stroke-width="0.2"/>
<line x1="3" y1="13.9" x2="5" y2="13.9" stroke="#6C6C6C" stroke-width="0.2"/>
<line x1="3" y1="14.9" x2="4" y2="14.9" stroke="#6C6C6C" stroke-width="0.2"/>
<line x1="3" y1="15.9" x2="4" y2="15.9" stroke="#6C6C6C" stroke-width="0.2"/>
<line x1="14.9" y1="21" x2="14.9" y2="20" stroke="#6C6C6C" stroke-width="0.2"/>
<line x1="15.9" y1="21" x2="15.9" y2="20" stroke="#6C6C6C" stroke-width="0.2"/>
<line x1="13.9" y1="21" x2="13.9" y2="19" stroke="#6C6C6C" stroke-width="0.2"/>
<line x1="3" y1="16.9" x2="5" y2="16.9" stroke="#6C6C6C" stroke-width="0.2"/>
<line x1="3" y1="17.9" x2="4" y2="17.9" stroke="#6C6C6C" stroke-width="0.2"/>
<line x1="3" y1="18.9" x2="4" y2="18.9" stroke="#6C6C6C" stroke-width="0.2"/>
<line x1="17.9" y1="21" x2="17.9" y2="20" stroke="#6C6C6C" stroke-width="0.2"/>
<line x1="18.9" y1="21" x2="18.9" y2="20" stroke="#6C6C6C" stroke-width="0.2"/>
<line x1="16.9" y1="21" x2="16.9" y2="19" stroke="#6C6C6C" stroke-width="0.2"/>
<line x1="3" y1="4.9" x2="5" y2="4.9" stroke="#6C6C6C" stroke-width="0.2"/>
<line x1="3" y1="5.9" x2="4" y2="5.9" stroke="#6C6C6C" stroke-width="0.2"/>
<line x1="3" y1="6.9" x2="4" y2="6.9" stroke="#6C6C6C" stroke-width="0.2"/>
<line x1="5.9" y1="21" x2="5.9" y2="20" stroke="#6C6C6C" stroke-width="0.2"/>
<line x1="6.9" y1="21" x2="6.9" y2="20" stroke="#6C6C6C" stroke-width="0.2"/>
<line x1="4.9" y1="21" x2="4.9" y2="19" stroke="#6C6C6C" stroke-width="0.2"/>
</svg>
