<svg width="16" height="16" viewBox="0 0 16 16" fill="none" xmlns="http://www.w3.org/2000/svg">
<path d="M13.3642 10.9822C12.5617 10 11.9951 9.5 11.9951 6.79219C11.9951 4.3125 10.7289 3.42906 9.68668 3C9.54824 2.94312 9.41793 2.8125 9.37574 2.67031C9.19293 2.04812 8.68043 1.5 7.99918 1.5C7.31793 1.5 6.80512 2.04844 6.62418 2.67094C6.58199 2.81469 6.45168 2.94312 6.31324 3C5.2698 3.42969 4.0048 4.31 4.0048 6.79219C4.00324 9.5 3.43668 10 2.63418 10.9822C2.30168 11.3891 2.59293 12 3.17449 12H12.827C13.4054 12 13.6948 11.3872 13.3642 10.9822Z" stroke="#4B4B4B" stroke-width="1.25" stroke-linecap="round" stroke-linejoin="round"/>
<path d="M10 12V12.5C10 13.0304 9.78929 13.5391 9.41421 13.9142C9.03914 14.2893 8.53043 14.5 8 14.5C7.46957 14.5 6.96086 14.2893 6.58579 13.9142C6.21071 13.5391 6 13.0304 6 12.5V12" stroke="#4B4B4B" stroke-width="1.25" stroke-linecap="round" stroke-linejoin="round"/>
</svg>
