<svg width="24" height="24" viewBox="0 0 24 24" fill="none" xmlns="http://www.w3.org/2000/svg">
<path d="M21.9325 16.558C21.9075 16.414 21.8775 16.2869 21.8465 16.1769C21.6455 15.4589 21.0235 14.9128 20.2615 14.7848L15.9305 14.0639C15.2045 13.9469 14.4725 14.2249 14.0255 14.7929C13.9675 14.8659 13.9115 14.9418 13.7995 15.0658C11.6115 14.1148 9.8825 12.3849 8.9685 10.1459C9.0715 10.0769 9.17052 10.0029 9.26452 9.92593C9.82152 9.47693 10.0975 8.75698 9.98553 8.04898L9.31451 3.79385C9.19751 3.04885 8.68551 2.43996 7.97851 2.20596C7.82551 2.15496 7.64552 2.107 7.43652 2.069C6.09652 1.831 4.72548 2.20797 3.67248 3.11197C2.57148 4.05797 1.9635 5.43079 2.0025 6.87979C2.2245 15.1328 8.86453 21.774 17.1185 21.997C17.1615 21.998 17.2055 21.998 17.2485 21.998C18.6375 21.998 19.9505 21.3968 20.8665 20.3368C21.7785 19.2828 22.1665 17.905 21.9325 16.558ZM19.3535 19.0299C18.8025 19.6679 18.0245 20.0159 17.1715 19.9989C9.98051 19.8049 4.19449 14.0188 4.00049 6.82681C3.97849 5.98281 4.33352 5.18301 4.97552 4.63101C5.45752 4.21701 6.0345 3.99893 6.6325 3.99893C6.78051 3.99893 6.92953 4.01297 7.07953 4.03897C7.18253 4.05897 7.2715 4.08087 7.3385 4.10587L8.00451 8.37491C7.95451 8.41491 7.90249 8.45287 7.84649 8.49087C7.01149 9.05887 6.70249 10.089 7.09649 10.996C8.24949 13.65 10.3465 15.7468 12.9995 16.9008C13.9055 17.2948 14.9375 16.987 15.5065 16.152L15.5995 16.037L19.9195 16.7179C19.9345 16.7719 19.9485 16.832 19.9605 16.902C20.0925 17.655 19.8715 18.4319 19.3535 19.0299Z" fill="#6C6C6C"/>
</svg>
