<svg width="24" height="25" viewBox="0 0 24 25" fill="none" xmlns="http://www.w3.org/2000/svg">
<path d="M12 16.5C11.2089 16.5 10.4355 16.2654 9.77772 15.8259C9.11992 15.3864 8.60723 14.7616 8.30448 14.0307C8.00173 13.2998 7.92252 12.4956 8.07686 11.7196C8.2312 10.9437 8.61216 10.231 9.17157 9.67157C9.73098 9.11216 10.4437 8.7312 11.2196 8.57686C11.9956 8.42252 12.7998 8.50173 13.5307 8.80448C14.2616 9.10723 14.8864 9.61992 15.3259 10.2777C15.7654 10.9355 16 11.7089 16 12.5C16 13.5609 15.5786 14.5783 14.8284 15.3284C14.0783 16.0786 13.0609 16.5 12 16.5ZM12 10.5C11.6044 10.5 11.2178 10.6173 10.8889 10.8371C10.56 11.0568 10.3036 11.3692 10.1522 11.7346C10.0009 12.1001 9.96126 12.5022 10.0384 12.8902C10.1156 13.2781 10.3061 13.6345 10.5858 13.9142C10.8655 14.1939 11.2219 14.3844 11.6098 14.4616C11.9978 14.5387 12.3999 14.4991 12.7654 14.3478C13.1308 14.1964 13.4432 13.94 13.6629 13.6111C13.8827 13.2822 14 12.8956 14 12.5C14 11.9696 13.7893 11.4609 13.4142 11.0858C13.0391 10.7107 12.5304 10.5 12 10.5ZM12.5 22.5H11.5C10.837 22.5 10.2011 22.2366 9.73223 21.7678C9.26339 21.2989 9 20.663 9 20C9.00199 19.9769 8.99644 19.9538 8.98418 19.9342C8.97192 19.9145 8.95361 19.8994 8.932 19.891C8.883 19.867 8.826 19.919 8.826 19.919C8.35675 20.3889 7.72042 20.6536 7.05636 20.6553C6.3923 20.657 5.75463 20.3955 5.283 19.928L4.577 19.221C4.34458 18.9884 4.16033 18.7122 4.03481 18.4082C3.90929 18.1043 3.84497 17.7786 3.84553 17.4498C3.84609 17.1209 3.91151 16.7954 4.03806 16.4919C4.16461 16.1884 4.34979 15.9128 4.583 15.681C4.59976 15.6658 4.61087 15.6453 4.6145 15.623C4.61813 15.6007 4.61408 15.5777 4.603 15.558C4.59164 15.5409 4.57638 15.5267 4.55847 15.5166C4.54057 15.5065 4.52053 15.5008 4.5 15.5C3.83696 15.5 3.20107 15.2366 2.73223 14.7678C2.26339 14.2989 2 13.663 2 13V12C2 11.337 2.26339 10.7011 2.73223 10.2322C3.20107 9.76339 3.83696 9.5 4.5 9.5C4.52231 9.50121 4.54448 9.49577 4.56371 9.48438C4.58293 9.47299 4.59834 9.45615 4.608 9.436C4.61538 9.41915 4.61722 9.40039 4.61327 9.38242C4.60932 9.36445 4.59977 9.3482 4.586 9.336C4.352 9.10386 4.16605 8.82787 4.03879 8.52382C3.91153 8.21976 3.84546 7.8936 3.84434 7.56399C3.84323 7.23438 3.9071 6.90778 4.0323 6.60287C4.1575 6.29796 4.34157 6.02072 4.574 5.787L5.282 5.078C5.75172 4.61103 6.38715 4.34892 7.0495 4.34892C7.71185 4.34892 8.34728 4.61103 8.817 5.078C8.83074 5.09748 8.85099 5.1114 8.87409 5.11727C8.89719 5.12314 8.92163 5.12056 8.943 5.11C9 5.08 9 5 9 5C9 4.33696 9.26339 3.70107 9.73223 3.23223C10.2011 2.76339 10.837 2.5 11.5 2.5H12.5C13.163 2.5 13.7989 2.76339 14.2678 3.23223C14.7366 3.70107 15 4.33696 15 5C15 5 14.995 5.1 15.05 5.12C15.0702 5.12632 15.0916 5.12734 15.1123 5.12296C15.1329 5.11858 15.1521 5.10895 15.168 5.095C15.3998 4.85747 15.6768 4.66875 15.9827 4.53994C16.2885 4.41113 16.6171 4.34485 16.949 4.345C17.2775 4.34384 17.6029 4.40795 17.9064 4.53361C18.2099 4.65927 18.4855 4.84398 18.717 5.077L19.417 5.777C19.8857 6.24582 20.149 6.88159 20.149 7.5445C20.149 8.20741 19.8857 8.84318 19.417 9.312C19.403 9.333 19.345 9.376 19.368 9.436C19.3706 9.44705 19.3753 9.45749 19.382 9.4667C19.3886 9.47591 19.397 9.48371 19.4067 9.48966C19.4163 9.49561 19.4271 9.49959 19.4383 9.50136C19.4495 9.50314 19.461 9.50267 19.472 9.5C19.8023 9.4975 20.1299 9.56025 20.4359 9.68465C20.7419 9.80906 21.0204 9.99267 21.2552 10.2249C21.4901 10.4572 21.6768 10.7336 21.8046 11.0382C21.9324 11.3428 21.9988 11.6697 22 12V13C22 13.663 21.7366 14.2989 21.2678 14.7678C20.7989 15.2366 20.163 15.5 19.5 15.5C19.44 15.5 19.386 15.5 19.367 15.549C19.348 15.598 19.358 15.629 19.407 15.67C19.6425 15.9014 19.8299 16.1771 19.9583 16.4813C20.0867 16.7854 20.1535 17.112 20.155 17.4422C20.1565 17.7723 20.0926 18.0995 19.9669 18.4048C19.8413 18.7101 19.6564 18.9875 19.423 19.221L18.723 19.927C18.2533 20.394 17.6178 20.6561 16.9555 20.6561C16.2932 20.6561 15.6577 20.394 15.188 19.927C15.188 19.927 15.132 19.859 15.076 19.879C15.0561 19.885 15.0385 19.8971 15.0258 19.9136C15.013 19.9301 15.0058 19.9502 15.005 19.971C15.0076 20.3018 14.9448 20.6299 14.8202 20.9364C14.6955 21.2428 14.5115 21.5216 14.2786 21.7567C14.0458 21.9917 13.7688 22.1784 13.4636 22.306C13.1583 22.4335 12.8308 22.4995 12.5 22.5ZM9.671 18.032L9.715 18.05C10.0938 18.2095 10.4174 18.4766 10.6458 18.8182C10.8742 19.1599 10.9974 19.561 11 19.972C10.9973 20.0397 11.0082 20.1073 11.0321 20.1707C11.0559 20.2341 11.0922 20.2922 11.1387 20.3414C11.1853 20.3906 11.2413 20.4299 11.3033 20.4572C11.3654 20.4844 11.4322 20.499 11.5 20.5H12.5C12.6326 20.5 12.7598 20.4473 12.8536 20.3536C12.9473 20.2598 13 20.1326 13 20C13.0002 19.5803 13.1247 19.17 13.3578 18.821C13.591 18.472 13.9223 18.1999 14.31 18.039C14.6899 17.8825 15.1077 17.8418 15.5107 17.9221C15.9137 18.0023 16.284 18.1999 16.575 18.49C16.6208 18.5404 16.6762 18.581 16.7381 18.6094C16.7999 18.6379 16.8668 18.6536 16.9348 18.6557C17.0029 18.6577 17.0706 18.6461 17.134 18.6214C17.1975 18.5967 17.2553 18.5595 17.304 18.512L18.004 17.812C18.0506 17.7656 18.0875 17.7104 18.1127 17.6496C18.1379 17.5889 18.1509 17.5238 18.1509 17.458C18.1509 17.3922 18.1379 17.3271 18.1127 17.2664C18.0875 17.2056 18.0506 17.1504 18.004 17.104C17.7144 16.8127 17.5154 16.4438 17.4311 16.0418C17.3468 15.6399 17.3808 15.2221 17.529 14.839C17.535 14.823 17.54 14.808 17.547 14.792L17.553 14.778C17.7106 14.3987 17.9774 14.0747 18.3194 13.8472C18.6614 13.6197 19.0632 13.4988 19.474 13.5C19.5416 13.5025 19.609 13.4915 19.6722 13.4676C19.7355 13.4437 19.7933 13.4074 19.8424 13.3608C19.8914 13.3142 19.9306 13.2583 19.9576 13.1963C19.9847 13.1344 19.9991 13.0676 20 13V12C20 11.8674 19.9473 11.7402 19.8536 11.6464C19.7598 11.5527 19.6326 11.5 19.5 11.5C19.0828 11.5047 18.6739 11.3842 18.3259 11.154C17.9779 10.9239 17.707 10.5947 17.548 10.209L17.529 10.163C17.3772 9.78566 17.3402 9.37191 17.4225 8.97361C17.5049 8.57532 17.703 8.21019 17.992 7.924C18.0419 7.87801 18.0822 7.82248 18.1103 7.76069C18.1384 7.69889 18.1539 7.63209 18.1557 7.56422C18.1576 7.49636 18.1458 7.4288 18.1211 7.36556C18.0965 7.30231 18.0593 7.24466 18.012 7.196L17.312 6.496C17.2655 6.4496 17.2103 6.41282 17.1495 6.38777C17.0888 6.36272 17.0237 6.34988 16.958 6.35C16.8922 6.35001 16.8271 6.36301 16.7664 6.38823C16.7056 6.41346 16.6504 6.45042 16.604 6.497C16.3083 6.79127 15.9327 6.99214 15.5237 7.07463C15.1148 7.15713 14.6906 7.11761 14.304 6.961C13.9177 6.80639 13.5868 6.53922 13.3542 6.19416C13.1217 5.8491 12.9983 5.4421 13 5.026C13.0025 4.95842 12.9915 4.89102 12.9676 4.82776C12.9437 4.7645 12.9074 4.70666 12.8608 4.65765C12.8142 4.60864 12.7583 4.56944 12.6963 4.54236C12.6344 4.51529 12.5676 4.50089 12.5 4.5H11.5C11.3674 4.5 11.2402 4.55268 11.1464 4.64645C11.0527 4.74021 11 4.86739 11 5C11.003 5.41545 10.8827 5.82245 10.6544 6.16952C10.426 6.5166 10.0999 6.78814 9.71715 6.94979C9.33443 7.11144 8.91237 7.15594 8.50435 7.07765C8.09634 6.99937 7.72071 6.80182 7.425 6.51C7.37934 6.46013 7.32415 6.41992 7.26268 6.39174C7.20122 6.36356 7.13473 6.34798 7.06714 6.34593C6.99956 6.34388 6.93225 6.35539 6.86919 6.3798C6.80613 6.4042 6.7486 6.44099 6.7 6.488L5.988 7.2C5.89426 7.29376 5.84161 7.42092 5.84161 7.5535C5.84161 7.68608 5.89426 7.81324 5.988 7.907C6.28487 8.19762 6.48834 8.57016 6.57242 8.977C6.65649 9.38384 6.61735 9.80651 6.46 10.191C6.43347 10.2574 6.39995 10.3207 6.36 10.38C6.18316 10.7138 5.91978 10.994 5.59746 11.191C5.27514 11.3881 4.90575 11.4948 4.528 11.5C4.46029 11.4973 4.39273 11.5082 4.3293 11.5321C4.26587 11.5559 4.20785 11.5922 4.15865 11.6387C4.10945 11.6853 4.07006 11.7413 4.04282 11.8033C4.01557 11.8654 4.00101 11.9322 4 12V13C4 13.1326 4.05268 13.2598 4.14645 13.3536C4.24021 13.4473 4.36739 13.5 4.5 13.5C4.91367 13.4953 5.31938 13.6138 5.66542 13.8405C6.01146 14.0672 6.28216 14.3919 6.443 14.773L6.449 14.787C6.458 14.808 6.466 14.828 6.473 14.85C6.61912 15.2281 6.65269 15.6404 6.56964 16.0372C6.4866 16.434 6.29049 16.7982 6.005 17.086C5.95512 17.1331 5.91525 17.1898 5.88776 17.2527C5.86027 17.3156 5.84573 17.3834 5.845 17.452C5.84442 17.5179 5.85704 17.5833 5.88211 17.6443C5.90718 17.7052 5.94421 17.7606 5.991 17.807L6.697 18.513C6.79076 18.6067 6.91792 18.6594 7.0505 18.6594C7.18308 18.6594 7.31024 18.6067 7.404 18.513C7.69242 18.2183 8.06147 18.0155 8.46481 17.9299C8.86815 17.8443 9.28778 17.8798 9.671 18.032Z" fill="#4B4B4B"/>
</svg>
