<svg width="24" height="24" viewBox="0 0 24 24" fill="none" xmlns="http://www.w3.org/2000/svg">
<path d="M12 13C14.757 13 17 10.757 17 8C17 5.243 14.757 3 12 3C9.243 3 7 5.243 7 8C7 10.757 9.243 13 12 13ZM12 5C13.654 5 15 6.346 15 8C15 9.654 13.654 11 12 11C10.346 11 9 9.654 9 8C9 6.346 10.346 5 12 5ZM19 17.4V18.266C19 19.155 18.675 20.007 18.085 20.666C17.888 20.887 17.614 20.999 17.34 20.999C17.102 20.999 16.863 20.915 16.673 20.744C16.262 20.375 16.227 19.743 16.595 19.332C16.857 19.04 17 18.661 17 18.266V17.4C17 16.266 16.25 15.286 15.177 15.016C15.046 14.985 14.911 14.999 14.803 15.061C13.055 16.034 10.934 16.027 9.20898 15.068C9.08998 15 8.95299 14.983 8.82599 15.016C7.74999 15.286 7 16.266 7 17.4V18.266C7 18.662 7.14403 19.04 7.40503 19.332C7.77303 19.743 7.73803 20.375 7.32703 20.744C6.91703 21.112 6.28598 21.078 5.91498 20.666C5.32498 20.007 5 19.154 5 18.266V17.4C5 15.347 6.37197 13.569 8.33698 13.077C8.96098 12.916 9.63798 13.009 10.191 13.327C11.3 13.942 12.687 13.9489 13.82 13.3199C14.363 13.0079 15.041 12.922 15.666 13.077C17.628 13.569 19 15.348 19 17.4ZM17.058 3.83801C17.241 3.31701 17.815 3.045 18.333 3.229C19.929 3.792 21 5.308 21 7C21 8.137 20.514 9.22396 19.667 9.98096C19.477 10.152 19.237 10.236 19 10.236C18.726 10.236 18.452 10.124 18.255 9.90295C17.887 9.49195 17.922 8.85897 18.333 8.49097C18.757 8.11197 19 7.568 19 7C19 6.154 18.464 5.39604 17.667 5.11304C17.146 4.93004 16.873 4.35801 17.058 3.83801ZM22 14.834V15.556C22 16.109 21.553 16.556 21 16.556C20.447 16.556 20 16.109 20 15.556V14.834C20 13.966 19.427 13.215 18.606 13.009C18.07 12.874 17.745 12.331 17.879 11.796C18.014 11.259 18.562 10.933 19.092 11.069C20.805 11.499 22 13.047 22 14.834ZM4.33301 10.426C3.48601 9.66703 3 8.57995 3 7.44495C3 5.75395 4.07199 4.23695 5.66699 3.67395C6.18499 3.48995 6.75902 3.76196 6.94202 4.28296C7.12702 4.80396 6.85401 5.37498 6.33301 5.55798C5.53601 5.83998 5 6.59895 5 7.44495C5 8.01295 5.24299 8.55604 5.66699 8.93604C6.07799 9.30504 6.113 9.93702 5.745 10.348C5.547 10.569 5.27402 10.681 4.99902 10.681C4.76202 10.681 4.52301 10.597 4.33301 10.426ZM5.39502 13.453C4.57402 13.659 4 14.41 4 15.278V16C4 16.553 3.552 17 3 17C2.448 17 2 16.553 2 16V15.278C2 13.492 3.19498 11.9429 4.90698 11.5129C5.43998 11.3799 5.986 11.703 6.12 12.239C6.255 12.775 5.93002 13.318 5.39502 13.453Z" fill="#6C6C6C"/>
</svg>
