<svg width="24" height="24" viewBox="0 0 24 24" fill="none" xmlns="http://www.w3.org/2000/svg">
<path d="M16.9995 17.6385V18.1455C16.9995 19.0825 16.6535 19.9795 16.0255 20.6715C15.8275 20.8895 15.5565 20.9995 15.2845 20.9995C15.0445 20.9995 14.8045 20.9135 14.6135 20.7395C14.2045 20.3685 14.1735 19.7365 14.5445 19.3275C14.8385 19.0045 15.0005 18.5835 15.0005 18.1445V17.6375C15.0005 16.3935 14.1635 15.3165 12.9645 15.0195C12.7995 14.9775 12.6265 14.9995 12.4875 15.0785C10.6305 16.0985 8.36151 16.0935 6.52051 15.0835C6.37351 14.9995 6.1995 14.9775 6.0365 15.0205C4.8375 15.3175 4.00049 16.3946 4.00049 17.6385V18.1455C4.00049 18.5835 4.16248 19.0035 4.45648 19.3285C4.82748 19.7375 4.79651 20.3705 4.38751 20.7415C3.97651 21.1115 3.34549 21.0815 2.97449 20.6725C2.34649 19.9795 2.00049 19.0825 2.00049 18.1465V17.6395C2.00049 15.4745 3.4615 13.5995 5.5545 13.0795C6.2075 12.9195 6.91349 13.0116 7.49249 13.3356C8.72849 14.0156 10.2645 14.0206 11.5175 13.3306C12.0885 13.0126 12.7945 12.9185 13.4475 13.0795C15.5385 13.5985 16.9995 15.4735 16.9995 17.6385ZM18.4455 13.0785C17.9105 12.9485 17.3665 13.2715 17.2345 13.8075C17.1025 14.3435 17.4285 14.8865 17.9645 15.0195C19.1635 15.3165 20.0005 16.3935 20.0005 17.6375V18.1445C20.0005 18.5825 19.8385 19.0035 19.5445 19.3275C19.1735 19.7365 19.2045 20.3685 19.6135 20.7395C19.8045 20.9135 20.0455 20.9995 20.2845 20.9995C20.5565 20.9995 20.8275 20.8895 21.0255 20.6715C21.6535 19.9795 21.9995 19.0815 21.9995 18.1455V17.6385C21.9995 15.4735 20.5385 13.5985 18.4455 13.0785ZM4.49951 7.99951C4.49951 5.24251 6.74251 2.99951 9.49951 2.99951C12.2565 2.99951 14.4995 5.24251 14.4995 7.99951C14.4995 10.7565 12.2565 12.9995 9.49951 12.9995C6.74251 12.9995 4.49951 10.7565 4.49951 7.99951ZM6.49951 7.99951C6.49951 9.65351 7.84551 10.9995 9.49951 10.9995C11.1535 10.9995 12.4995 9.65351 12.4995 7.99951C12.4995 6.34551 11.1535 4.99951 9.49951 4.99951C7.84551 4.99951 6.49951 6.34551 6.49951 7.99951ZM19.4995 7.99951C19.4995 5.48151 17.6185 3.35045 15.1235 3.03845C14.5745 2.97545 14.0755 3.35849 14.0075 3.90649C13.9395 4.45449 14.3275 4.95446 14.8765 5.02246C16.3725 5.20946 17.5005 6.48851 17.5005 7.99951C17.5005 8.91451 17.0905 9.76855 16.3755 10.3416C15.9445 10.6876 15.8755 11.3165 16.2205 11.7465C16.4175 11.9935 16.7085 12.1215 17.0015 12.1215C17.2205 12.1215 17.4415 12.0495 17.6265 11.9015C18.8165 10.9475 19.4995 9.52451 19.4995 7.99951Z" fill="#6C6C6C"/>
</svg>
